<svg width="592" height="496" viewBox="0 0 592 496" fill="none" xmlns="http://www.w3.org/2000/svg">
<g filter="url(#filter0_d_144_1255)">
<path d="M26.2004 203.08V200.04C31.0004 199.933 35.0004 198.76 38.2004 196.52C41.5071 194.28 43.9604 190.547 45.5604 185.32C47.2671 180.2 48.1204 173.32 48.1204 164.68V76.68C48.1204 72.7333 47.8004 69.8533 47.1604 68.04C46.5204 66.12 45.2404 64.84 43.3204 64.2C41.5071 63.4533 38.7871 63.0267 35.1604 62.92V59.72C37.4004 59.8267 40.3337 59.9333 43.9604 60.04C47.5871 60.1467 51.3737 60.2 55.3204 60.2C59.2671 60.2 63.0537 60.1467 66.6804 60.04C70.4137 59.9333 73.5071 59.8267 75.9604 59.72V62.92C72.3337 63.0267 69.5604 63.4533 67.6404 64.2C65.8271 64.84 64.6004 66.12 63.9604 68.04C63.3204 69.8533 63.0004 72.7333 63.0004 76.68V135.24C63.0004 139.613 62.9471 144.36 62.8404 149.48C62.7337 154.6 62.4671 159.56 62.0404 164.36C61.7204 169.16 61.1337 173.373 60.2804 177C58.4671 184.467 54.6271 190.653 48.7604 195.56C43.0004 200.573 35.4804 203.08 26.2004 203.08ZM131.862 58.92L170.902 159.56C172.502 163.613 174.315 166.333 176.342 167.72C178.368 169 180.235 169.693 181.942 169.8V173C179.808 172.787 177.195 172.68 174.102 172.68C171.008 172.573 167.915 172.52 164.822 172.52C160.662 172.52 156.768 172.573 153.142 172.68C149.515 172.68 146.582 172.787 144.342 173V169.8C149.782 169.587 153.248 168.68 154.742 167.08C156.235 165.373 155.915 161.8 153.782 156.36L124.022 76.84L126.582 74.76L98.7416 147.08C97.035 151.347 96.0216 154.973 95.7016 157.96C95.3816 160.84 95.6483 163.133 96.5016 164.84C97.4616 166.547 99.0083 167.773 101.142 168.52C103.382 169.267 106.155 169.693 109.462 169.8V173C106.475 172.787 103.328 172.68 100.022 172.68C96.8216 172.573 93.835 172.52 91.0616 172.52C88.395 172.52 86.1016 172.573 84.1816 172.68C82.3683 172.68 80.6616 172.787 79.0616 173V169.8C81.195 169.267 83.3816 168.04 85.6216 166.12C87.8616 164.093 89.8883 160.68 91.7016 155.88L129.302 58.92C129.728 58.92 130.155 58.92 130.582 58.92C131.008 58.92 131.435 58.92 131.862 58.92ZM151.382 126.92V130.12H103.702L105.302 126.92H151.382ZM310.478 59.72V62.92C306.851 63.0267 304.078 63.4533 302.158 64.2C300.345 64.84 299.118 66.12 298.478 68.04C297.838 69.8533 297.518 72.7333 297.518 76.68V156.04C297.518 159.88 297.838 162.76 298.478 164.68C299.118 166.6 300.345 167.88 302.158 168.52C304.078 169.16 306.851 169.587 310.478 169.8V173C308.025 172.787 304.931 172.68 301.198 172.68C297.571 172.573 293.891 172.52 290.158 172.52C285.998 172.52 282.105 172.573 278.478 172.68C274.851 172.68 271.918 172.787 269.678 173V169.8C273.305 169.587 276.025 169.16 277.838 168.52C279.758 167.88 281.038 166.6 281.678 164.68C282.318 162.76 282.638 159.88 282.638 156.04V68.04L283.278 68.52L244.078 173.8H241.518L201.198 69.96V154.44C201.198 158.28 201.518 161.32 202.158 163.56C202.905 165.693 204.291 167.24 206.318 168.2C208.451 169.053 211.598 169.587 215.758 169.8V173C213.838 172.787 211.331 172.68 208.238 172.68C205.145 172.573 202.211 172.52 199.438 172.52C196.771 172.52 194.051 172.573 191.278 172.68C188.611 172.68 186.371 172.787 184.558 173V169.8C188.185 169.587 190.905 169.053 192.718 168.2C194.638 167.24 195.918 165.693 196.558 163.56C197.198 161.32 197.518 158.28 197.518 154.44V76.68C197.518 72.7333 197.198 69.8533 196.558 68.04C195.918 66.12 194.638 64.84 192.718 64.2C190.905 63.4533 188.185 63.0267 184.558 62.92V59.72C186.371 59.8267 188.611 59.9333 191.278 60.04C194.051 60.1467 196.771 60.2 199.438 60.2C201.785 60.2 204.185 60.1467 206.638 60.04C209.198 59.9333 211.331 59.8267 213.038 59.72L249.358 155.4L246.638 156.68L282.638 60.2C283.918 60.2 285.145 60.2 286.318 60.2C287.598 60.2 288.878 60.2 290.158 60.2C293.891 60.2 297.571 60.1467 301.198 60.04C304.931 59.9333 308.025 59.8267 310.478 59.72Z" fill="white"/>
<path d="M105.824 225.324C105.566 227.781 105.372 230.174 105.242 232.502C105.178 234.765 105.145 236.511 105.145 237.74C105.145 239.292 105.178 240.747 105.242 242.105C105.307 243.463 105.372 244.659 105.436 245.694H103.205C102.753 241.167 102.138 237.611 101.362 235.024C100.586 232.373 99.2284 230.465 97.2884 229.301C95.3484 228.137 92.3414 227.555 88.2674 227.555H83.0294V282.748C83.0294 285.335 83.2557 287.275 83.7084 288.568C84.2257 289.861 85.1957 290.734 86.6184 291.187C88.0411 291.64 90.1104 291.931 92.8264 292.06V294C91.1451 293.871 89.0111 293.806 86.4244 293.806C83.8377 293.741 81.2187 293.709 78.5674 293.709C75.6574 293.709 72.9091 293.741 70.3224 293.806C67.8004 293.806 65.7634 293.871 64.2114 294V292.06C66.9274 291.931 68.9967 291.64 70.4194 291.187C71.8421 290.734 72.7797 289.861 73.2324 288.568C73.7497 287.275 74.0084 285.335 74.0084 282.748V227.555H68.7704C64.7611 227.555 61.7541 228.137 59.7494 229.301C57.8094 230.465 56.4514 232.373 55.6754 235.024C54.8994 237.611 54.2851 241.167 53.8324 245.694H51.6014C51.7307 244.659 51.7954 243.463 51.7954 242.105C51.8601 240.747 51.8924 239.292 51.8924 237.74C51.8924 236.511 51.8277 234.765 51.6984 232.502C51.6337 230.174 51.4721 227.781 51.2134 225.324C53.9294 225.389 56.8717 225.453 60.0404 225.518C63.2737 225.583 66.5071 225.615 69.7404 225.615C72.9737 225.615 75.9161 225.615 78.5674 225.615C81.2187 225.615 84.1287 225.615 87.2974 225.615C90.5307 225.615 93.7641 225.583 96.9974 225.518C100.231 225.453 103.173 225.389 105.824 225.324ZM153.266 294V292.06C155.465 291.931 157.114 291.672 158.213 291.284C159.377 290.896 160.153 290.12 160.541 288.956C160.929 287.792 161.123 286.046 161.123 283.718V235.606C161.123 233.213 160.929 231.467 160.541 230.368C160.153 229.204 159.377 228.428 158.213 228.04C157.114 227.587 155.465 227.329 153.266 227.264V225.324C154.754 225.389 156.629 225.453 158.892 225.518C161.156 225.583 163.387 225.615 165.585 225.615C168.107 225.615 170.468 225.583 172.666 225.518C174.865 225.453 176.643 225.389 178.001 225.324V227.264C175.803 227.329 174.121 227.587 172.957 228.04C171.858 228.428 171.114 229.204 170.726 230.368C170.338 231.467 170.144 233.213 170.144 235.606V283.718C170.144 286.046 170.338 287.792 170.726 288.956C171.114 290.12 171.858 290.896 172.957 291.284C174.121 291.672 175.803 291.931 178.001 292.06V294C176.643 293.871 174.865 293.806 172.666 293.806C170.468 293.741 168.107 293.709 165.585 293.709C163.387 293.709 161.156 293.741 158.892 293.806C156.629 293.806 154.754 293.871 153.266 294ZM112.72 294V292.06C114.919 291.931 116.568 291.672 117.667 291.284C118.831 290.896 119.607 290.12 119.995 288.956C120.383 287.792 120.577 286.046 120.577 283.718V235.606C120.577 233.213 120.383 231.467 119.995 230.368C119.607 229.204 118.831 228.428 117.667 228.04C116.568 227.587 114.919 227.329 112.72 227.264V225.324C114.078 225.389 115.857 225.453 118.055 225.518C120.254 225.583 122.614 225.615 125.136 225.615C127.4 225.615 129.631 225.583 131.829 225.518C134.093 225.453 135.968 225.389 137.455 225.324V227.264C135.257 227.329 133.575 227.587 132.411 228.04C131.312 228.428 130.568 229.204 130.18 230.368C129.792 231.467 129.598 233.213 129.598 235.606V283.718C129.598 286.046 129.792 287.792 130.18 288.956C130.568 290.12 131.312 290.896 132.411 291.284C133.575 291.672 135.257 291.931 137.455 292.06V294C135.968 293.871 134.093 293.806 131.829 293.806C129.631 293.741 127.4 293.709 125.136 293.709C122.614 293.709 120.254 293.741 118.055 293.806C115.857 293.806 114.078 293.871 112.72 294ZM126.203 260.438V258.498H164.518V260.438H126.203ZM234.537 225.324C234.278 227.587 234.084 229.786 233.955 231.92C233.89 234.054 233.858 235.671 233.858 236.77C233.858 237.934 233.89 239.066 233.955 240.165C234.019 241.2 234.084 242.073 234.149 242.784H231.918C231.53 238.969 230.98 235.962 230.269 233.763C229.557 231.5 228.329 229.915 226.583 229.01C224.901 228.04 222.347 227.555 218.92 227.555H210.869C208.67 227.555 206.989 227.749 205.825 228.137C204.725 228.46 203.982 229.204 203.594 230.368C203.206 231.467 203.012 233.213 203.012 235.606V283.718C203.012 286.046 203.206 287.792 203.594 288.956C203.982 290.12 204.725 290.896 205.825 291.284C206.989 291.607 208.67 291.769 210.869 291.769H217.95C222.024 291.769 225.095 291.219 227.165 290.12C229.299 289.021 230.818 287.242 231.724 284.785C232.694 282.263 233.405 278.868 233.858 274.6H236.089C235.895 276.346 235.798 278.674 235.798 281.584C235.798 282.813 235.83 284.591 235.895 286.919C236.024 289.182 236.218 291.543 236.477 294C233.179 293.871 229.46 293.806 225.322 293.806C221.183 293.741 217.497 293.709 214.264 293.709C212.841 293.709 210.998 293.709 208.735 293.709C206.536 293.709 204.143 293.741 201.557 293.806C198.97 293.806 196.351 293.838 193.7 293.903C191.048 293.903 188.526 293.935 186.134 294V292.06C188.332 291.931 189.981 291.672 191.081 291.284C192.245 290.896 193.021 290.12 193.409 288.956C193.797 287.792 193.991 286.046 193.991 283.718V235.606C193.991 233.213 193.797 231.467 193.409 230.368C193.021 229.204 192.245 228.428 191.081 228.04C189.981 227.587 188.332 227.329 186.134 227.264V225.324C188.526 225.389 191.048 225.453 193.7 225.518C196.351 225.518 198.97 225.55 201.557 225.615C204.143 225.615 206.536 225.615 208.735 225.615C210.998 225.615 212.841 225.615 214.264 225.615C217.238 225.615 220.601 225.615 224.352 225.615C228.167 225.55 231.562 225.453 234.537 225.324ZM217.853 258.498C217.853 258.498 217.853 258.821 217.853 259.468C217.853 260.115 217.853 260.438 217.853 260.438H200.102C200.102 260.438 200.102 260.115 200.102 259.468C200.102 258.821 200.102 258.498 200.102 258.498H217.853ZM220.666 245.694C220.407 249.38 220.278 252.193 220.278 254.133C220.342 256.073 220.375 257.851 220.375 259.468C220.375 261.085 220.407 262.863 220.472 264.803C220.536 266.743 220.698 269.556 220.957 273.242H218.726C218.467 271.173 218.144 269.168 217.756 267.228C217.432 265.223 216.656 263.607 215.428 262.378C214.264 261.085 212.259 260.438 209.414 260.438V258.498C211.548 258.498 213.164 258.078 214.264 257.237C215.428 256.332 216.268 255.2 216.786 253.842C217.303 252.484 217.659 251.094 217.853 249.671C218.047 248.184 218.241 246.858 218.435 245.694H220.666Z" fill="white"/>
<path d="M193.92 347.36C199.2 347.36 203.52 348.16 206.88 349.76C210.32 351.28 213.36 353.08 216 355.16C217.6 356.36 218.8 356.52 219.6 355.64C220.48 354.68 221.08 352.48 221.4 349.04H224.16C224 352 223.88 355.6 223.8 359.84C223.72 364.08 223.68 369.68 223.68 376.64H220.92C220.36 373.2 219.84 370.48 219.36 368.48C218.88 366.4 218.28 364.64 217.56 363.2C216.92 361.76 216.04 360.32 214.92 358.88C212.44 355.6 209.32 353.24 205.56 351.8C201.8 350.28 197.84 349.52 193.68 349.52C189.76 349.52 186.2 350.52 183 352.52C179.88 354.44 177.16 357.24 174.84 360.92C172.6 364.6 170.84 369.04 169.56 374.24C168.36 379.44 167.76 385.28 167.76 391.76C167.76 398.48 168.44 404.44 169.8 409.64C171.16 414.76 173.04 419.08 175.44 422.6C177.92 426.12 180.8 428.8 184.08 430.64C187.44 432.4 191.04 433.28 194.88 433.28C198.48 433.28 202.24 432.56 206.16 431.12C210.08 429.68 213.16 427.36 215.4 424.16C217.16 421.84 218.36 419.32 219 416.6C219.72 413.88 220.36 410.08 220.92 405.2H223.68C223.68 412.48 223.72 418.36 223.8 422.84C223.88 427.24 224 430.96 224.16 434H221.4C221.08 430.56 220.52 428.4 219.72 427.52C219 426.64 217.76 426.76 216 427.88C213.04 429.96 209.88 431.8 206.52 433.4C203.24 434.92 199 435.68 193.8 435.68C186.2 435.68 179.52 433.96 173.76 430.52C168.08 427.08 163.64 422.12 160.44 415.64C157.32 409.16 155.76 401.36 155.76 392.24C155.76 383.28 157.4 375.44 160.68 368.72C163.96 362 168.44 356.76 174.12 353C179.88 349.24 186.48 347.36 193.92 347.36ZM287.218 434V431.6C289.938 431.44 291.978 431.12 293.338 430.64C294.778 430.16 295.738 429.2 296.218 427.76C296.698 426.32 296.938 424.16 296.938 421.28V361.76C296.938 358.8 296.698 356.64 296.218 355.28C295.738 353.84 294.778 352.88 293.338 352.4C291.978 351.84 289.938 351.52 287.218 351.44V349.04C289.058 349.12 291.378 349.2 294.178 349.28C296.978 349.36 299.738 349.4 302.458 349.4C305.578 349.4 308.498 349.36 311.218 349.28C313.938 349.2 316.138 349.12 317.818 349.04V351.44C315.098 351.52 313.018 351.84 311.578 352.4C310.218 352.88 309.298 353.84 308.818 355.28C308.338 356.64 308.098 358.8 308.098 361.76V421.28C308.098 424.16 308.338 426.32 308.818 427.76C309.298 429.2 310.218 430.16 311.578 430.64C313.018 431.12 315.098 431.44 317.818 431.6V434C316.138 433.84 313.938 433.76 311.218 433.76C308.498 433.68 305.578 433.64 302.458 433.64C299.738 433.64 296.978 433.68 294.178 433.76C291.378 433.76 289.058 433.84 287.218 434ZM237.058 434V431.6C239.778 431.44 241.818 431.12 243.178 430.64C244.618 430.16 245.578 429.2 246.058 427.76C246.538 426.32 246.778 424.16 246.778 421.28V361.76C246.778 358.8 246.538 356.64 246.058 355.28C245.578 353.84 244.618 352.88 243.178 352.4C241.818 351.84 239.778 351.52 237.058 351.44V349.04C238.738 349.12 240.938 349.2 243.658 349.28C246.378 349.36 249.298 349.4 252.418 349.4C255.218 349.4 257.978 349.36 260.698 349.28C263.498 349.2 265.818 349.12 267.658 349.04V351.44C264.938 351.52 262.858 351.84 261.418 352.4C260.058 352.88 259.138 353.84 258.658 355.28C258.178 356.64 257.938 358.8 257.938 361.76V421.28C257.938 424.16 258.178 426.32 258.658 427.76C259.138 429.2 260.058 430.16 261.418 430.64C262.858 431.12 264.938 431.44 267.658 431.6V434C265.818 433.84 263.498 433.76 260.698 433.76C257.978 433.68 255.218 433.64 252.418 433.64C249.298 433.64 246.378 433.68 243.658 433.76C240.938 433.76 238.738 433.84 237.058 434ZM253.738 392.48V390.08H301.138V392.48H253.738ZM361.598 348.44L390.878 423.92C392.078 426.96 393.438 429 394.958 430.04C396.478 431 397.878 431.52 399.158 431.6V434C397.558 433.84 395.598 433.76 393.278 433.76C390.958 433.68 388.638 433.64 386.318 433.64C383.198 433.64 380.278 433.68 377.558 433.76C374.838 433.76 372.638 433.84 370.958 434V431.6C375.038 431.44 377.638 430.76 378.758 429.56C379.878 428.28 379.638 425.6 378.038 421.52L355.718 361.88L357.638 360.32L336.758 414.56C335.478 417.76 334.718 420.48 334.478 422.72C334.238 424.88 334.438 426.6 335.078 427.88C335.798 429.16 336.958 430.08 338.558 430.64C340.238 431.2 342.318 431.52 344.798 431.6V434C342.558 433.84 340.198 433.76 337.718 433.76C335.318 433.68 333.078 433.64 330.998 433.64C328.998 433.64 327.278 433.68 325.838 433.76C324.478 433.76 323.198 433.84 321.998 434V431.6C323.598 431.2 325.238 430.28 326.918 428.84C328.598 427.32 330.118 424.76 331.478 421.16L359.678 348.44C359.998 348.44 360.318 348.44 360.638 348.44C360.958 348.44 361.278 348.44 361.598 348.44ZM376.238 399.44V401.84H340.478L341.678 399.44H376.238ZM441.772 347.36C449.372 347.36 456.012 349.08 461.692 352.52C467.452 355.96 471.892 360.92 475.012 367.4C478.212 373.8 479.812 381.6 479.812 390.8C479.812 399.76 478.172 407.6 474.892 414.32C471.692 421.04 467.212 426.28 461.452 430.04C455.692 433.8 449.092 435.68 441.652 435.68C434.052 435.68 427.372 433.96 421.612 430.52C415.932 427.08 411.492 422.12 408.292 415.64C405.172 409.16 403.612 401.36 403.612 392.24C403.612 383.28 405.252 375.44 408.532 368.72C411.812 362 416.292 356.76 421.972 353C427.732 349.24 434.332 347.36 441.772 347.36ZM441.292 349.52C436.092 349.52 431.572 351.32 427.732 354.92C423.892 358.52 420.892 363.48 418.732 369.8C416.652 376.12 415.612 383.44 415.612 391.76C415.612 400.24 416.772 407.64 419.092 413.96C421.492 420.2 424.692 425.04 428.692 428.48C432.772 431.84 437.252 433.52 442.132 433.52C447.332 433.52 451.852 431.72 455.692 428.12C459.532 424.52 462.492 419.56 464.572 413.24C466.732 406.84 467.812 399.52 467.812 391.28C467.812 382.72 466.612 375.32 464.212 369.08C461.892 362.84 458.732 358.04 454.732 354.68C450.732 351.24 446.252 349.52 441.292 349.52ZM516.917 347.72C520.917 347.72 523.957 348.2 526.037 349.16C528.117 350.04 529.957 351.04 531.557 352.16C532.517 352.72 533.277 353.16 533.837 353.48C534.477 353.72 535.077 353.84 535.637 353.84C536.437 353.84 536.997 353.4 537.317 352.52C537.717 351.64 538.037 350.32 538.277 348.56H541.037C540.957 349.92 540.837 351.56 540.677 353.48C540.597 355.32 540.517 357.8 540.437 360.92C540.437 363.96 540.437 368 540.437 373.04H537.677C537.437 369.2 536.597 365.52 535.157 362C533.717 358.48 531.597 355.6 528.797 353.36C526.077 351.12 522.477 350 517.997 350C513.757 350 510.237 351.28 507.437 353.84C504.717 356.4 503.357 359.76 503.357 363.92C503.357 367.52 504.277 370.56 506.117 373.04C507.957 375.44 510.397 377.64 513.437 379.64C516.557 381.56 519.917 383.64 523.517 385.88C527.677 388.44 531.357 391 534.557 393.56C537.837 396.04 540.397 398.8 542.237 401.84C544.157 404.88 545.117 408.56 545.117 412.88C545.117 418 543.957 422.24 541.637 425.6C539.317 428.96 536.237 431.48 532.397 433.16C528.557 434.84 524.317 435.68 519.677 435.68C515.437 435.68 512.077 435.2 509.597 434.24C507.117 433.28 504.997 432.28 503.237 431.24C501.477 430.12 500.117 429.56 499.157 429.56C498.357 429.56 497.757 430 497.357 430.88C497.037 431.76 496.757 433.08 496.517 434.84H493.757C493.917 433.16 493.997 431.2 493.997 428.96C494.077 426.64 494.117 423.64 494.117 419.96C494.197 416.28 494.237 411.64 494.237 406.04H496.997C497.317 410.84 498.197 415.32 499.637 419.48C501.157 423.64 503.437 427 506.477 429.56C509.597 432.04 513.717 433.28 518.837 433.28C521.477 433.28 523.957 432.76 526.277 431.72C528.677 430.6 530.637 428.88 532.157 426.56C533.677 424.16 534.437 421.08 534.437 417.32C534.437 414.04 533.637 411.2 532.037 408.8C530.517 406.32 528.357 404.04 525.557 401.96C522.757 399.8 519.477 397.6 515.717 395.36C511.957 393.04 508.437 390.68 505.157 388.28C501.877 385.88 499.237 383.12 497.237 380C495.317 376.8 494.357 372.96 494.357 368.48C494.357 363.76 495.397 359.88 497.477 356.84C499.637 353.72 502.437 351.44 505.877 350C509.317 348.48 512.997 347.72 516.917 347.72Z" fill="white"/>
</g>
<defs>
<filter id="filter0_d_144_1255" x="0.00019455" y="46.7219" width="591.317" height="449.158" filterUnits="userSpaceOnUse" color-interpolation-filters="sRGB">
<feFlood flood-opacity="0" result="BackgroundImageFix"/>
<feColorMatrix in="SourceAlpha" type="matrix" values="0 0 0 0 0 0 0 0 0 0 0 0 0 0 0 0 0 0 127 0" result="hardAlpha"/>
<feOffset dx="10" dy="24"/>
<feGaussianBlur stdDeviation="18.1"/>
<feComposite in2="hardAlpha" operator="out"/>
<feColorMatrix type="matrix" values="0 0 0 0 0 0 0 0 0 0 0 0 0 0 0 0 0 0 0.38 0"/>
<feBlend mode="normal" in2="BackgroundImageFix" result="effect1_dropShadow_144_1255"/>
<feBlend mode="normal" in="SourceGraphic" in2="effect1_dropShadow_144_1255" result="shape"/>
</filter>
</defs>
</svg>
