<svg width="144" height="144" viewBox="0 0 144 144" fill="none" xmlns="http://www.w3.org/2000/svg">
<g filter="url(#filter0_dii_1782_617)">
<path fill-rule="evenodd" clip-rule="evenodd" d="M97.8232 42.8375C87.0393 49.0635 80.1934 59.8729 79.1679 72.3031C79.0067 74.2396 76.5259 74.7942 75.5555 73.1107C69.3344 62.3005 58.5371 55.4355 46.1286 54.3944C44.1956 54.2312 43.6399 51.7453 45.3193 50.7745C56.1038 44.5512 62.9497 33.7419 63.9746 21.3089C64.1358 19.3724 66.6166 18.8178 67.587 20.5013C73.8088 31.3142 84.606 38.1792 97.0139 39.2176C98.9469 39.3808 99.5026 41.8667 97.8232 42.8375Z" fill="url(#paint0_linear_1782_617)"/>
<path fill-rule="evenodd" clip-rule="evenodd" d="M97.8232 42.8375C87.0393 49.0635 80.1934 59.8729 79.1679 72.3031C79.0067 74.2396 76.5259 74.7942 75.5555 73.1107C69.3344 62.3005 58.5371 55.4355 46.1286 54.3944C44.1956 54.2312 43.6399 51.7453 45.3193 50.7745C56.1038 44.5512 62.9497 33.7419 63.9746 21.3089C64.1358 19.3724 66.6166 18.8178 67.587 20.5013C73.8088 31.3142 84.606 38.1792 97.0139 39.2176C98.9469 39.3808 99.5026 41.8667 97.8232 42.8375Z" fill="url(#paint1_radial_1782_617)" style="mix-blend-mode:overlay"/>
</g>
<defs>
<filter id="filter0_dii_1782_617" x="-7.62939e-05" y="-0.00139618" width="143.143" height="143.256" filterUnits="userSpaceOnUse" color-interpolation-filters="sRGB">
<feFlood flood-opacity="0" result="BackgroundImageFix"/>
<feColorMatrix in="SourceAlpha" type="matrix" values="0 0 0 0 0 0 0 0 0 0 0 0 0 0 0 0 0 0 127 0" result="hardAlpha"/>
<feOffset dy="24.82"/>
<feGaussianBlur stdDeviation="22.1607"/>
<feColorMatrix type="matrix" values="0 0 0 0 0 0 0 0 0 0 0 0 0 0 0 0 0 0 1 0"/>
<feBlend mode="normal" in2="BackgroundImageFix" result="effect1_dropShadow_1782_617"/>
<feBlend mode="normal" in="SourceGraphic" in2="effect1_dropShadow_1782_617" result="shape"/>
<feColorMatrix in="SourceAlpha" type="matrix" values="0 0 0 0 0 0 0 0 0 0 0 0 0 0 0 0 0 0 127 0" result="hardAlpha"/>
<feOffset dy="-1.10406"/>
<feGaussianBlur stdDeviation="0.276015"/>
<feComposite in2="hardAlpha" operator="arithmetic" k2="-1" k3="1"/>
<feColorMatrix type="matrix" values="0 0 0 0 0 0 0 0 0 0 0 0 0 0 0 0 0 0 0.5 0"/>
<feBlend mode="normal" in2="shape" result="effect2_innerShadow_1782_617"/>
<feColorMatrix in="SourceAlpha" type="matrix" values="0 0 0 0 0 0 0 0 0 0 0 0 0 0 0 0 0 0 127 0" result="hardAlpha"/>
<feOffset dy="1.10406"/>
<feGaussianBlur stdDeviation="0.276015"/>
<feComposite in2="hardAlpha" operator="arithmetic" k2="-1" k3="1"/>
<feColorMatrix type="matrix" values="0 0 0 0 1 0 0 0 0 1 0 0 0 0 1 0 0 0 0.4 0"/>
<feBlend mode="normal" in2="effect2_innerShadow_1782_617" result="effect3_innerShadow_1782_617"/>
</filter>
<linearGradient id="paint0_linear_1782_617" x1="46.9395" y1="64.3838" x2="100.177" y2="26.822" gradientUnits="userSpaceOnUse">
<stop offset="0.0677083" stop-color="#4D5455"/>
<stop offset="0.21875" stop-color="#9EA1A1"/>
<stop offset="0.453125" stop-color="#848B8A"/>
<stop offset="0.524381" stop-color="#535D5E"/>
<stop offset="0.796875" stop-color="#4B5355"/>
<stop offset="0.895833" stop-color="#757A7B"/>
<stop offset="1" stop-color="#4D5455"/>
</linearGradient>
<radialGradient id="paint1_radial_1782_617" cx="0" cy="0" r="1" gradientTransform="matrix(34.7005 38.0558 -36.6843 40.4107 37.2203 20.9093)" gradientUnits="userSpaceOnUse">
<stop stop-color="white"/>
<stop offset="1" stop-color="white" stop-opacity="0"/>
</radialGradient>
</defs>
</svg>
