<?xml version="1.0" encoding="UTF-8" standalone="no"?>
<svg
   width="16"
   height="16"
   fill="currentColor"
   class="bi bi-list"
   viewBox="0 0 16 16"
   version="1.1"
   id="svg1"
   sodipodi:docname="list_icon.svg"
   inkscape:version="1.4 (86a8ad7, 2024-10-11)"
   xmlns:inkscape="http://www.inkscape.org/namespaces/inkscape"
   xmlns:sodipodi="http://sodipodi.sourceforge.net/DTD/sodipodi-0.dtd"
   xmlns="http://www.w3.org/2000/svg"
   xmlns:svg="http://www.w3.org/2000/svg">
  <defs
     id="defs1" />
  <sodipodi:namedview
     id="namedview1"
     pagecolor="#ffffff"
     bordercolor="#000000"
     borderopacity="0.25"
     inkscape:showpageshadow="2"
     inkscape:pageopacity="0.0"
     inkscape:pagecheckerboard="0"
     inkscape:deskcolor="#d1d1d1"
     inkscape:zoom="17.169437"
     inkscape:cx="-2.5626933"
     inkscape:cy="8.0666596"
     inkscape:window-width="1920"
     inkscape:window-height="991"
     inkscape:window-x="-9"
     inkscape:window-y="-9"
     inkscape:window-maximized="1"
     inkscape:current-layer="svg1" />
  <path
     fill-rule="evenodd"
     d="m -1.518769,14.922741 a 0.86534264,0.86534264 0 0 1 0.8653426,-0.865343 H 16.653426 a 0.865343,0.865343 0 0 1 0,1.730686 H -0.6534264 A 0.86534264,0.86534264 0 0 1 -1.518769,14.922741 M -1.518769,8 A 0.86534264,0.86534264 0 0 1 -0.6534264,7.1346574 H 16.653426 a 0.86534264,0.86534264 0 0 1 0,1.7306852 H -0.6534264 A 0.86534264,0.86534264 0 0 1 -1.518769,8 m 0,-6.9227411 A 0.86534264,0.86534264 0 0 1 -0.6534264,0.21191624 H 16.653426 a 0.86534264,0.86534264 0 0 1 0,1.73068526 H -0.6534264 A 0.86534264,0.86534264 0 0 1 -1.518769,1.0772589"
     id="path1"
     style="fill:#f5f6ee;fill-opacity:1;stroke-width:1.73069" />
</svg>
