<svg xmlns="http://www.w3.org/2000/svg" width="600" height="400" viewBox="0 0 600 400">
    <title>91app with padding</title>
    <svg xmlns="http://www.w3.org/2000/svg" xmlns:svg="http://www.w3.org/2000/svg" version="1.1" id="svg1" viewBox="0 0 923.71074 267.26084" x="50" y="127.75974025974025" width="500" height="144.4805194805195">
  <defs id="defs1"/>
  <g id="layer-MC0" transform="translate(-54.599465,-31.6068)">
    <path id="path1" d="m 0,0 c -2.821,-4.05 -6.647,-7.039 -11.563,-8.952 -4.899,-1.893 -14.602,-2.849 -29.175,-2.849 h -13.002 -0.079 l -0.148,51.821 h 0.227 10.602 c 13.329,0 22.197,-0.384 26.578,-1.217 5.96,-1.07 10.942,-3.79 14.849,-8.125 C 2.192,26.373 4.153,20.893 4.153,14.211 4.153,8.853 2.73,4.099 0,0 m 31.563,50.335 c -7.077,9.188 -15.831,15.152 -26.32,17.87 -6.794,1.854 -21.445,2.77 -43.854,2.77 h -15.129 -7.203 -27.376 v -190.283 h 2.827 c 6.859,0.303 24.435,3.13 31.412,22.907 0.129,0.978 0.473,4.06 0.473,5.941 l -0.133,25.381 v 0.134 l -0.114,22.09 h 0.114 16.842 c 16.743,0 29.485,0.874 38.289,2.604 6.485,1.408 12.855,4.312 19.142,8.679 6.26,4.344 11.437,10.345 15.538,17.997 4.05,7.662 6.093,17.096 6.093,28.326 0,14.545 -3.511,26.379 -10.601,35.584" style="fill:#e52612;fill-opacity:1;fill-rule:nonzero;stroke:none" transform="matrix(1.3333333,0,0,-1.3333333,730.17253,138.75)"/>
    <path id="path2" d="m 0,0 c -2.807,-4.05 -6.633,-7.039 -11.547,-8.952 -4.922,-1.893 -14.603,-2.849 -29.175,-2.849 h -13.003 -0.096 l -0.146,51.821 h 0.242 10.605 c 13.33,0 22.179,-0.384 26.571,-1.217 5.965,-1.07 10.947,-3.79 14.838,-8.125 3.919,-4.305 5.86,-9.785 5.86,-16.467 C 4.149,8.853 2.746,4.099 0,0 m 31.577,50.335 c -7.089,9.188 -15.845,15.152 -26.336,17.87 -6.778,1.854 -21.427,2.77 -43.851,2.77 h -15.115 -7.202 -27.391 v -190.283 h 2.842 c 6.86,0.303 24.419,3.13 31.408,22.907 0.113,0.978 0.473,4.06 0.473,5.941 l -0.13,25.381 v 0.134 l -0.129,22.09 h 0.129 16.825 c 16.759,0 29.503,0.874 38.307,2.604 6.488,1.408 12.837,4.312 19.146,8.679 6.253,4.344 11.429,10.345 15.53,17.997 4.052,7.662 6.095,17.096 6.095,28.326 0,14.545 -3.532,26.379 -10.601,35.584" style="fill:#e52612;fill-opacity:1;fill-rule:nonzero;stroke:none" transform="matrix(1.3333333,0,0,-1.3333333,922.07293,138.75)"/>
    <path id="path3" d="m 0,0 c -19.651,0 -35.58,15.934 -35.58,35.585 0,19.644 15.929,35.578 35.58,35.578 19.663,0 35.591,-15.934 35.591,-35.578 C 35.591,15.934 19.663,0 0,0 m 0,103.978 c -37.996,0 -68.819,-30.807 -68.819,-68.825 0,-36.981 29.173,-67.143 65.761,-68.745 l -17.606,-26.927 c -9.377,-25.571 15.76,-34.093 15.76,-34.093 L 49.72,-12.404 C 61.545,-0.057 68.832,16.695 68.832,35.153 68.832,73.171 38.01,103.978 0,103.978" style="fill:#e52612;fill-opacity:1;fill-rule:nonzero;stroke:none" transform="matrix(1.3333333,0,0,-1.3333333,146.35813,170.24413)"/>
    <path id="path4" d="m 0,0 h -30.53 v -24.306 -2.182 c 0,0 0.26,-1.421 1.977,-2.016 h 3.756 17.479 v -129.475 c 0,0 -5.634,-37.806 32.214,-33.79 v 33.79 6.422 L 24.896,0 Z" style="fill:#e52612;fill-opacity:1;fill-rule:nonzero;stroke:none" transform="matrix(1.3333333,0,0,-1.3333333,291.32093,42.777333)"/>
    <path id="path5" d="M 0,0 8.04,22.264 22.593,62.862 37.44,22.264 48.317,-6.798 C 39.729,-9.783 17.039,-15.348 0,0 m 117.48,-82.147 -16.875,42.691 c 0.033,-0.02 0.081,-0.036 0.114,-0.052 L 46.164,98.775 h -0.195 c -0.347,0.791 -0.673,1.559 -1.017,2.376 0,0 -3.166,7.335 -17.136,7.62 h -0.127 c -0.231,0.008 -0.428,0.026 -0.671,0.026 h -2.306 v -0.026 h -5.894 c -14.685,0 -17.934,-7.644 -17.934,-7.644 -0.817,-1.895 -1.62,-3.69 -2.449,-5.506 h 0.342 L -23.242,38.19 -59.166,40.655 c 0,0 0.233,-29.893 16.568,-52.816 l -26.84,-69.986 h 39.905 l 15.387,42.97 h 0.018 l 1.714,4.829 c 16.481,-5.346 38.728,-5.051 68.916,5.646 L 63.07,-46.27 76.333,-82.147 Z" style="fill:#e52612;fill-opacity:1;fill-rule:nonzero;stroke:none" transform="matrix(1.3333333,0,0,-1.3333333,439.028,187.83987)"/>
  </g>
</svg>
</svg>