<svg xmlns="http://www.w3.org/2000/svg" width="600" height="400" viewBox="0 0 600 400">
    <title>臺北市政府資訊局 with padding</title>
    <svg xmlns="http://www.w3.org/2000/svg" xmlns:xlink="http://www.w3.org/1999/xlink" id="_圖層_2" data-name="圖層 2" viewBox="0 0 265.88 163.76" x="56" y="50" width="488" height="300">
  <defs>
    <style>
      .cls-1 {
        fill: #231815;
      }

      .cls-2 {
        fill: url(#linear-gradient-2);
      }

      .cls-3 {
        fill: url(#linear-gradient);
      }
    </style>
    <linearGradient id="linear-gradient" x1="99.99" y1="51.85" x2="207.62" y2="51.85" gradientUnits="userSpaceOnUse">
      <stop offset="0" stop-color="#e4007f"/>
      <stop offset=".71" stop-color="#ffad00"/>
    </linearGradient>
    <linearGradient id="linear-gradient-2" x1="58.69" y1="34.39" x2="163.57" y2="34.39" gradientUnits="userSpaceOnUse">
      <stop offset="0" stop-color="#00a7ff"/>
      <stop offset="1" stop-color="#13ae67"/>
    </linearGradient>
  </defs>
  <g id="_圖層_1-2" data-name="圖層 1">
    <g>
      <g>
        <path class="cls-1" d="M3.82,108.77c-.03-.13-.03-.23.07-.3l.7.1c.44.17.84.44,1.14.84.23.27.37.67.43,1.21,3.28-1.04,6.5-1.81,9.68-2.38,2.85-.47,5.66-.77,8.44-.84.33,0,.6-.07.77-.2l.6-.17c.27,0,.6.13.97.37l.74.64.54.47.7.74.27.77c.1.3.1.54.03.7-.1.17-.23.3-.4.4l-.84.13h-.87l-1.24.37c-.5.13-.97.2-1.44.2l-1.61.13c-.23.03-.4.03-.47-.07s.03-.23.34-.4c.67-.5,1.41-1.24,2.11-2.14.17-.23.27-.43.23-.54-.04-.1-.17-.13-.37-.1-3.88.37-7.03.77-9.54,1.24-3.28.67-5.76,1.37-7.4,2.18l-.77.4-.33-.1h-.13v1.07c-.03.3-.13.7-.37,1.21l-.3.6-.5.44-.5.27c-.17.03-.3-.07-.37-.23-.1-.27-.27-.57-.57-.84-.2-.27-.3-.64-.33-1.07-.03-.54.17-1.98.6-4.25v-.84ZM15.07,112.75c-.47.64-1.14,1.34-1.97,2.11l-.1.2h.2l3.52-1.17,1.71-.54-.17-.4-.2-.64c.03-.1.1-.13.2-.1h.57c.7-.03,1.34.13,1.84.47.57.4.87.9.94,1.51.07.44,0,.9-.13,1.31-.2.44-.47.7-.8.74-.33.03-.6-.07-.9-.37l-.8-1.04c-.94.17-1.91.4-2.91.77l.13.07.7.57.07.57-.07.44,1.27-.47.43-.07.6.2.6.5.33.44c.03.1-.07.27-.3.57l-.27.44c0,.1-.2.17-.6.27l-2.08.54v1.34c1.84-.1,3.21-.1,4.15,0,.5.03.84,0,1.14-.13l.37-.23.57.3,1,.57c.23.1.37.23.44.44l.17.54c.03.23.03.4-.07.57l-.3.47-.5.37c-.1.1-.2.13-.34.1l-.3-.1c-1.47-.27-2.95-.33-4.42-.3-2.08.1-4.08.33-6.03.64l-2.54.5-.64.17-.3-.13-.37-.5-.5-.7-.27-.54-.13-.47v-.4l.23-.13.44.1h.6c1.44-.4,2.98-.7,4.65-.87l.07-.3v-.7l-1.41.17h-.57l-.5-.27-.57-.57-.4-.44-.2-.4c-.1-.23,0-.3.34-.27.6.1,1.41.07,2.51-.17l.8-.2v-.54l-.2-.94-.07-.17-1.37.54-.7.33c-.3.17-.7.03-1.21-.4-.34-.33-.54-.7-.64-1.17-.1-.47,0-.7.27-.77l1.07-.27c.23-.03.63-.5,1.17-1.37l.2-.3h-.8c-.27-.03-.47-.1-.6-.23l-.44-.5-.2-.33c-.07-.1-.07-.2,0-.23l.64-.23c.7-.03,1.94-.27,3.75-.67,1.41-.33,2.61-.74,3.65-1.21l.3-.03.7.2.57.23.17.37-.27.77c-.07.13-.27.23-.63.27l-4.12.87-.17.47ZM16.91,94.98l1.27-.44.37-.1,1.2.6c.17.13.27.33.27.57,0,.3-.07.5-.2.67-.2.23-.47.4-.8.47l-1.84.44-.27.9-.27.74,1-.27h.74l.63.1c.27,0,.44.1.54.27l.07.33v.23l-.07.23-.17.3-.23.27-.5.27c-1.57.64-2.98,1.07-4.19,1.34l-2.58.44h-.37c-.17.03-.44-.23-.77-.87l-.33-.84.1-.13.44-.1,2.75-.8.07-.67v-.74l-1.74.54-.63.1c-.34,0-.64-.13-.94-.37l-.74-.77c-.23-.37-.37-.6-.34-.74.03-.17,0-.33-.13-.5v-.27l.1-.2h.17l.2.1h.3l1.81-.17,1.81-.27-.2-1.11c-.1-.5-.07-.74.1-.64.1.07.23.03.4-.07.1-.1.43,0,1,.23l1.94.87.03.03ZM19.45,101.81c1,.67,1.54,1.11,1.57,1.41,0,.23-.2.57-.57.97l-.94,1.17h.07l.27.1.13.37-.13.37-.1.3-.23.13-.47.07c-1.91.13-4.18.64-6.73,1.51h-.4l-.2-.13c-.13.03-.2.03-.23-.07l-.13-.13-.17-.2-.13-.27-.07-.1-.2-.5-.57-1.71-.64-1.1c-.17-.23-.17-.37-.07-.37l.2-.13.6-.07,1,.07,7.1-1.61c.4-.23.77-.23,1.04-.07ZM12.15,104.99l.1.47.07.97,1.34-.37,2.24-.54,1-.17,1.04-1.44.17-.47c-.1-.13-.47-.1-1.14.07l-4.82,1.47Z"/>
        <path class="cls-1" d="M45.03,121.79l-.5.37-.57.07c-.2.03-.33-.07-.37-.23l-.27-.77-.17-1.11-.07-.94-2.38,1.84-.9.47-.67-.17c-.54-.23-1.07-.64-1.71-1.24-.43-.44-.5-.74-.17-.97l.74-.44c1-.5,2.11-1.17,3.35-2.08l1.57-1.07v-1.17l-.1-2.71-.6.4-1,.4c-.47.1-1.01,0-1.51-.23-.54-.27-1.04-.6-1.41-.97-.5-.44-.77-.8-.8-1.04-.03-.3-.1-.54-.27-.74l-.17-.4.07-.3.23-.1h.87l1.44-.4,3.11-1.17-.07-3.75c-.07-1.41-.2-2.54-.5-3.42l-.23-.9v-.3c.1-.3.23-.44.47-.47.13-.03.37.07.74.27l2.81,1.94c.77.6,1.07,1.31.9,2.14-.3.44-.54,1.24-.64,2.31l-.13,1.27,1,.3c.3.17.5.4.6.8.1.44.07.8-.07,1.07-.23.44-.57.77-1.04,1l-.74.37-.13,3.75,1.17-.77c.4-.27.64-.33.74-.23l-.17.74c-.43,1.31-1.04,2.44-1.81,3.38-.1,2.14-.2,3.48-.34,4.02-.07.5-.17.9-.33,1.17ZM51.02,98.16c-.17-.3-.23-.5-.13-.64.1-.23.13-.5.03-.8-.03-.17,0-.33.2-.47.17-.1.47-.07.94.1.64.23,1.41.6,2.24,1.1.7.4,1.04.84,1.11,1.31.1.7.07,1.31-.13,1.94-.17.54-.27,1.34-.34,2.38l-.13,3.75,1.27-.97.67-.33c.5-.07.87-.07,1.11,0l1.24.47c.37.2.6.37.7.54.1.2.03.57-.17,1.14-.17.37-.23.6-.2.77.03.17-.23.4-.8.77l-2.21.97-.9.3-.77-.07v3.08c-.03,3.18.07,4.96.3,5.26.1.2.37.27.77.23.74-.1,1.24-.23,1.44-.4.2-.17.54-.23.97-.2.44,0,1.04.13,1.74.43.84.34,1.27.6,1.3.84s-.1.44-.33.64c-.34.3-.64.64-.87,1.07-.13.27-.44.4-.9.4-2.38-.03-3.92.03-4.59.23-.64.13-1.21-.03-1.81-.47-.6-.47-1.04-1.17-1.21-2.14-.23-1.34-.27-5.09-.17-11.32.1-6.06,0-9.38-.37-9.91Z"/>
        <path class="cls-1" d="M74.88,107.43v-.27h.63c.4.07.74.23,1.04.54l.17.2c1.34-.7,2.88-1.24,4.65-1.67h.04v-.87l-.17-.97c-.17-.74-.23-1.14-.13-1.24l.1-.2c-1.44.2-2.85.47-4.25.8l-3.85.97-.77.27-.44-.13-.5-.6-.67-.87-.37-.67-.23-.57c-.07-.23-.07-.4.04-.54.1-.17.17-.23.23-.2l.57.07h.8c2.65-.84,5.49-1.47,8.57-1.88.77-1.88,1.11-2.98.94-3.38-.44-.67-.64-1.11-.6-1.24.27-1.14.57-1.57.9-1.27.2.37.67.67,1.34,1,1.07.54,1.74.94,2.08,1.24.3.23.47.64.54,1.14.1.44-.03.8-.37,1.17l-.7.84c2.24-.23,3.98-.33,5.22-.27.74.03,1.3-.07,1.71-.3.17-.2.34-.3.47-.3l.77.33c.34.23.77.47,1.27.64.3.1.5.27.6.5l.27.7c.07.27.07.5-.04.74l-.4.57-.57.57c-.1.1-.23.13-.4.1l-.4-.1c-2.24-.27-4.52-.27-6.86,0l-3.32.4.67.3c.6.3.97.57,1.2.87.3.3.4.64.34.94l-.27.77,2.85-.23c.87-.03,1.41.07,1.71.37l.97.77c.27.13.47.33.6.57.1.23.1.5,0,.8-.17.4-.23,1.47-.2,3.15.03,1.74-.07,2.98-.33,3.68-.23.5-.54.94-1.04,1.27l-1.17.87c-.37.27-.7.34-.97.23-.37-.13-.67-.4-.97-.8-.5-.5-1.11-.97-1.81-1.34v5.02l-.17,2.64-.3,1.17-.54.84-.6.4-.7.3c-.1.07-.2-.1-.3-.43l-.17-1.07-.2-5.06v-9.51l-1.27.4c-1.04.37-1.74.77-2.11,1.17l-.27.13.17,1.27.17,1.74c.03.5-.07,1.17-.3,1.91l-.2.57-.33.43-.4.27c-.13.03-.23,0-.33-.13l-.54-.6c-.44-.37-.7-.9-.87-1.54-.2-.9-.23-3.11-.1-6.66l-.1-.74ZM87.71,108.4c0-.27-.03-.47-.13-.6-.1-.1-.23-.13-.4-.07l-2.71.6-.07,3.11v2.38h2.18c.23,0,.47-.1.63-.37.13-.23.23-.9.3-2.01l.2-3.05Z"/>
        <path class="cls-1" d="M102.93,111.25c-.1-.27-.13-.37-.03-.33.1.03.17,0,.2-.1h.63l1.17.17.34.3.17.4.24,2.78.1,2.01,2.11-1.07-.07-1.27-.07-3.95v-5.52h-.33c-.47,0-1-.3-1.67-.87-.8-.8-1.41-1.54-1.78-2.24-.23-.47-.13-.74.3-.8l1.21-.27,2.24-.8,3.15-1.17c.3-.1.57-.17.8-.13l.5.07.5.47.6.74c.17.23.13.54-.03.9l-.64.87c-.17.27-.47.54-.94.8l-1.64,1.07-.1,1.1v3.58l.74-.7.2-.23.37-.17.67-.23c.23-.17.4-.17.57-.03l.24.2.13.23.07.23v.4l-.07.33-.37.5-.2.27.1.07h.57c.27-.03.71.07,1.27.3l.57.4c.84-1.47,1.47-3.15,1.84-4.96.5-2.21.7-4.32.6-6.29-.07-.77-.2-1.27-.43-1.41l-.37-.3-.2-.27c-.03-.13.04-.23.2-.27.1-.03.17-.17.17-.33.03-.17.07-.3.17-.37l.6-.23c.74-.13,1.47-.17,2.14-.07.44.03.74.17.97.33.2.17.37.3.43.54.1.37.1.7,0,1.07-.1.23-.13.54-.1.9.07,1.14-.07,2.54-.4,4.22l-.57,2.14,1.27-.74c1.27-.77,2.28-1.24,2.91-1.47l.63-.3.24-.33c.1-.1.37-.07.8.1l.6.07.33.07.47.44c.13.17.2.3.17.47l-.07.43-.2.37-.3.3h-.27c-.87.23-1.67.5-2.51.94l-1.91,1.04.9.4.5.44.13.37-.13.47-.23.5-.57,3.25c-.17,1.34-.57,2.85-1.27,4.45l-.07.13,2.98,2.31c1.94,1.37,3.35,2.18,4.22,2.44l1.81.74c.4.3.74.57.97.87.1.13-.04.3-.37.57-.43.37-.97.64-1.64.8l-1.57.54c-.4.17-.8.23-1.1.17-.37-.07-.84-.27-1.37-.6-1.07-.64-2.31-1.61-3.78-3.01l-1.91-1.98-1.2.97c-.67.5-1.61.87-2.71,1.1l-.37.07h-.3c-.17.03-.33.03-.47-.07l-.57-.1c-.2.03-.34-.07-.43-.23-.13-.23-.13-.37.03-.37l1.07-.17c.44-.1.8-.33,1.2-.6.87-.7,1.64-1.51,2.31-2.51-.54-.8-1.31-1.81-2.31-3.01l-2.71-3.25c-.24-.3-.6-.5-1.07-.67-.17-.03-.23-.1-.27-.23l-.44.4-.8.7-.33.27h-.2v3.65l2.14-.9.8-.27.74-.1c.13-.03.23,0,.3.1v1.14c.03.3-.13.54-.44.77-.7.7-1.41,1.34-2.17,1.84-1.01.74-2.85,1.77-5.46,3.18-.54.3-.9.44-1.21.4-.37-.07-.77-.37-1.27-.9-.2-.17-.4-.57-.63-1.24-.13-.37-.17-.57-.07-.67l.47-.07c.2.07.5,0,.9-.23l.27-.17v-.03l-.13-.9-.5-3.05c-.17-.74-.4-1.41-.71-2.08ZM120.71,106.93l-.07-.5-1.27.87-.37.27h-.43c-.3.6-.64,1.04-1.04,1.37l-1.01.87c-.33.27-.63.4-.94.44l2.14,2.11,1.68,1.64.1-.2c.74-1.91,1.14-4.22,1.21-6.86Z"/>
        <path class="cls-1" d="M141.43,101.4l-.07-.54.1-.4c.04-.13.1-.17.2-.1l.44.2.47.13.74.3.13.1c.77-.4,1.81-.8,3.18-1.24l1.81-.5c.1-1.54.1-2.44-.13-2.71-.63-.57-.94-.94-.94-1.04-.07-1.24.1-1.74.54-1.51.33.27.84.47,1.57.57,1.17.2,1.94.4,2.38.64.37.17.64.44.87.94.17.4.17.77-.03,1.21l-.4.94,1.57-.37.5-.1.37-.13.44-.23c.2-.1.34-.13.5-.07l1.71.9.3.47c.04.23-.03.5-.2.8-.17.27-.34.4-.5.4h-.77c-.8-.13-1.74-.1-2.68.07-.74.07-1.41.2-2.08.44l-.3.37c-.3.27-.6.47-.97.54-.33.1-.6.07-.77-.1l-.24-.13c-1.41.47-2.81,1.07-4.22,1.74l-.7.27c-.24.74-.47,2.14-.77,4.22l-.84,4.32,1.84-2.81c1.07-1.84,1.57-3.08,1.61-3.68-.03-.4,0-.67.1-.8.1-.17.23-.2.47-.17l.87.17.97.33.7.5c.17.17.27.37.27.54-.04.3-.17.5-.33.64-.57.44-1.01,1.04-1.41,1.71l-.74,1.17c.1.1.17.23.2.47l.13,1.74v3.88l-.1,5.76-.17.87-.34.47c-.17.23-.4.4-.7.44-.2.03-.34-.07-.5-.3l-.7-.94c-.17-.23-.23-.5-.13-.74l.13-.6c.2-3.31.27-5.69.2-7.23v-1.67l-.7.6-1.94,1.34-.2.07c-.4,1.37-.77,2.44-1.21,3.21l-1.37,2.24c-.2.3-.8.8-1.81,1.61l-.57.27-.64.17-.3-.1c-.07-.1-.04-.17.07-.27l.63-.84c.67-1.07,1.31-2.44,1.84-4.05.63-1.67,1.27-3.88,1.87-6.66.5-2.24.77-4.55.8-6.96l-.07-.74ZM150.87,114.63c.6.37,1.07.74,1.37,1.21.13.23.17.44.13.64-.03.27-.17.54-.4.77-.23.23-.6.33-1,.37-.2,0-.43-.23-.74-.67l-1.71-2.21c-.24-.23-.3-.43-.24-.54.04-.1.17-.13.34-.07h.44c.77.1,1.34.27,1.81.5ZM154.52,107.87l.07-2.95c.04-.7,0-1.14-.17-1.41l-.4-.97c-.1-.3-.1-.47.07-.57l.23-.4c.07-.17.17-.23.34-.23h.5l.6.3.67.4,1.37,1.04c.27.3.4.57.37.84l-.2.6-.23.64-.07,1.1.8-.47c.27-.17.5-.27.7-.23l1.04.17,1.11.64c.37.23.6.44.63.6.1.2-.03.57-.34,1.11l-.3.7c0,.17-.27.37-.91.6l-2.88,1.21.13,4.29c.3,3.95.37,6.23.2,6.93l-.5,1.24-.8,1.11-.77.74c-.2.1-.37.1-.54,0l-.43-.37-.7-.57-1.14-.7-.97-.6c-.27-.23-.3-.4-.1-.44l1.04-.07,1.17-.07c.4-.03.6-.3.57-.8l-.2-7.94v-1.71l-1.67.5-.9.13c-.23.03-.54-.07-.9-.27-.5-.27-.87-.54-1.07-.8-.17-.27-.4-.47-.71-.64l-.5-.57c-.2-.37-.04-.5.54-.47.74,0,1.84-.27,3.18-.77l2.08-.87Z"/>
        <path class="cls-1" d="M171.25,105.09v-.37c-.04-.17.03-.2.17-.1l.5.23c.13.07.44-.17,1.01-.74.84-.87,1.94-2.08,3.25-3.68.24-.37.4-.54.47-.47.1.07,0,.37-.23.87l-.74,1.84-.3.7-.27.74-.33.94-.4.94c-.17.33-.23.64-.2.84l.1,1c0,.47-.23.84-.7,1.14-.23.1-.67-.07-1.27-.54-.33-.27-.67-1.04-1-2.24-.1-.37-.13-.77-.07-1.11h.04ZM174.77,95.61c.84-.03,1.54.03,2.08.33.23.13.44.33.54.57.1.27.13.57.04.94-.1.37-.34.67-.77.94-.17.07-.5.03-1.07-.17-1.17-.54-2.17-.94-3.08-1.21-.33-.07-.5-.2-.5-.33,0-.1.1-.23.23-.33l.47-.2c.77-.37,1.44-.54,2.08-.54ZM180.36,119.02c.17.2.2.37.07.6l-.57.87c-.54.84-1.1,1.67-1.81,2.41-.57.7-1.44,1.27-2.54,1.67l-.6.07-.54-.07h-.27c-.07-.07,0-.17.17-.3l.27-.27c.67-.67,1.37-1.57,2.04-2.65.5-.77.84-1.44,1.04-2.01h-.2c-.34,0-.57-.13-.74-.3l-.47-.67-.27-.37c-.1-.1-.1-.2,0-.27l.77-.3h.54l-.17-.6-.3-2.95v-3.28c.04-1.14,0-2.11-.1-2.81v-.9c.17-.57.33-.9.47-.97.13-.03.37.03.67.27l.63.43,2.58-.9c.1-.07.17-.1.27-.03h-.64c-.1,0-.2-.07-.23-.17l.1-.2.07-.3c0-.1.07-.13.23-.1.2,0,.47-.13.8-.4.3-.27.7-.8,1.21-1.64.43-.7.77-1.47,1.04-2.24.27-.8.37-1.41.3-1.91l-.13-.07h-.3l-.37.57-.94,1.04c-.47.47-.84.67-1,.6-.2-.03-.4-.03-.64.07-.5.17-.84.2-.94.13-.13-.07-.07-.37.17-.9l.5-.87.47-.97.57-1.34.4-1.31.13-.7v-.64c-.04-.2,0-.37.1-.44.13-.1.33-.07.57.07l.67.23.94.3.67.44c.27.2.4.4.4.6.03.27,0,.5-.17.67l-.17.23,1.1-.44,2.68-.67c.27-.03.5-.1.64-.23l.47-.2c.27-.03.54,0,.87.17l.74.47.47.33.7.47.4.57.13.54c-.03.17-.1.33-.23.44l-.64.27-.7.17-1.04.64-1.24.6-1.41.54c-.2.1-.33.1-.4.03-.07-.07-.04-.2.2-.33.57-.7,1.07-1.61,1.51-2.71l.13-.47h-.34l-2.41.77c-.67.23-1.24.5-1.61.77h.13l.77.44.43.7c.1.17.07.3-.03.4l-.07.1.4.1c.37.17,1.1.6,2.17,1.34l2.18,1.57,1.3.9,1.47.77.9.33,1.27.47,1.27.44.43.27c.1.03.13.1.1.2,0,.1-.1.27-.33.43l-.6.4c-.33.17-.67.23-.97.23l-.7.1-1.07.33c-.24.1-.47.1-.7,0l-.74-.3-.94-.47-1.1-.64c-.6-.44-1.61-1.34-2.88-2.71l-1.98-2.08h-.07l-.77,1.47c-.4.67-.77,1.11-1.07,1.37l-.8.67-.74.37-.1.03,2.28-.33c.33-.03.67-.13,1-.3.2-.13.37-.17.5-.07l.57.3c.84.3,1.31.54,1.47.7l.47.5c.13.17.24.37.27.64.04.33-.03.64-.2.9-.2.37-.3,1.17-.27,2.51.04,1.88.13,3.65.34,5.36.13.94.1,1.77-.07,2.38l-.4,1.17-.54.17-.43.13-.24.17c.77.37,1.58.9,2.38,1.61.7.64,1.04,1.11,1.07,1.44v.8l-.2.67-.3.47-.37.3-.33.1-.37-.1-.67-.7-2.51-2.95-1.11-1.44-.47-.67c.04-.1.13-.17.3-.13l.6.07.87.2-.13-.67-.13-.9c-2.58.4-4.45.77-5.59,1.07l.23.2ZM185.41,111.11l-.07-3.78-.13-.5-.33-.1c-.67,0-1.64.1-2.88.4-.87.2-1.47.4-1.81.6l-.8.5-.17.13-.27,1.54v.07c0-.1.1-.13.3-.1.24.03.6-.03,1.04-.2l2.01-.84.33-.1.5.13.5.33.27.3-.17.47-.17.37-.44.27-2.28.64h-.4l-.43-.13-.5-.4-.3-.34-.2-.27-.1-.1v3.28l-.17,3.88,2.04-.43c1.57-.33,2.91-.8,3.98-1.31.17-.1.3-.13.4-.07l.33.17v-.2l-.1-4.22ZM180.32,113.36l2.07-.97.34-.07.5.07.5.3.3.3-.17.54-.17.3-.4.3c-.8.3-1.57.57-2.41.74l-.4.07-.44-.13-.5-.4-.37-.34-.2-.27c-.1-.13,0-.23.24-.2l1.1-.23Z"/>
        <path class="cls-1" d="M207.13,97.59c-.13-.43-.17-1.04-.1-1.84l.1-.74c.1-.03.23-.03.4.07.3.17.6.2.91.07.27-.17.67-.1,1.1.13l1.14.7c.8.64,1.24,1.1,1.24,1.54,0,.47-.13.9-.44,1.34l-.3.64h.37l.74.23c.17.07.27.2.33.4.04.13-.07.5-.3,1.07-.03.13-.3.27-.74.37l-1.78.6-.07.1c-.37.4-.7.67-.94.77-.3.1-.44.07-.5-.1l-.3-.2c-1.27.4-2.08.7-2.34.9-.3.17-.7.27-1.21.27-.33,0-.6-.07-.77-.23l-.6-.6-.27-.37c-.1-.1-.13-.17-.04-.23l.74-.4c.64-.1,1.81-.47,3.48-1.07l.37-.13c.3-1.14.4-1.88.27-2.14l-.5-1.14ZM210.79,112.49c1.34.33,1.97.77,2.01,1.31l-.13,1.17-.5,1.81c.24-.03.44,0,.5.13l.2.27v.44l-.1.33-.1.23-.4.37c-.97.7-1.81,1.24-2.58,1.61l-1.61.74h-.07l.3.94c.03.23,0,.33-.1.4l-.4.37-.23.37c-.07.17-.24.13-.47-.1-.44-.47-1.04-1.51-1.71-3.11-.77-1.74-1.21-2.98-1.41-3.75l-.33-1-.1-.4c.03-.17.1-.2.27-.17l.94.07c.27-.1.54,0,.84.27h.07c1.94-.57,3.35-1.17,4.22-1.88.34-.33.64-.47.91-.4ZM207.13,109.67l2.74-1.47.37-.1.54.07.54.27.33.3c.03.1,0,.3-.17.57l-.13.34-.4.33c-1.14.54-2.31,1-3.45,1.34l-.44.1-.47-.13-.54-.37-.37-.3-.24-.27c-.1-.17-.03-.27.24-.27l1.44-.4ZM207.24,105.62c.77-.27,1.67-.74,2.68-1.34l.33-.13.54.07.54.33.33.3c.03.1,0,.27-.17.54l-.13.33-.44.33c-1.07.5-2.18.87-3.28,1.21l-.47.1-.44-.13-.54-.4-.37-.3-.24-.27c-.1-.17-.03-.27.24-.27.37,0,.84-.13,1.41-.37ZM206.8,116.54l-.13.03.13.37.57,2.14c.6-.44,1.3-.87,2.21-1.27l.54-2.11c.07-.33.07-.54,0-.6-.1-.1-.3-.1-.6.03l-2.71,1.41ZM215.54,108.6v-1.51c-.07-1.2-.13-1.91-.24-2.14l-.2-.54v-.44l.07-.44c.04-.1.17-.13.3-.07l.5.23.34.2.84.47c.3.13.5.33.63.57.1.23.13.44.04.67l-.2.9-.1,1.07v.2l.54-.1h.97c.43-.07.67.03.84.27l.23.44v.74l-.2.54-.24.44-.74.54-1.41.77v3.92c-.03,1.17,0,2.85.17,5.19l-.07.84-.37.4-.57.57c-.2.23-.54.03-.97-.5l-.13-1.07c-.1-1.44-.1-3.65,0-6.6v-1.91l-.67.17-.57.17c-.27.1-.74-.27-1.37-1.1-.54-.67-.8-1.07-.77-1.17.03-.1.07-.17.17-.17l.6-.27c.71-.4,1.58-.84,2.61-1.27h-.03ZM222.57,96.31c.33-.23.74-.3,1.17-.17.4.17.87.4,1.34.74.47.33.74.67.77.97.03.37-.13.67-.5.97-.43.4-.97,1.27-1.54,2.61-.44,1.11-.67,2.48-.77,4.15-.1,2.14.3,4.59,1.24,7.4.9,2.64,2.01,4.92,3.35,6.73l1.11,1.34c.17-.03.44-.47.77-1.44.4-.9.64-1.67.74-2.31.17-.57.3-.8.44-.77.1,0,.2.27.37.84.23.97.37,2.04.37,3.25s-.3,2.21-.84,3.08l-.67,1.07c-.17.2-.3.3-.44.3s-.44-.13-.87-.5c-.8-.57-1.58-1.21-2.24-2.01-1.47-1.88-2.68-4.12-3.58-6.63-.84-2.31-1.37-4.92-1.61-7.77-.17-2.65-.24-4.79-.13-6.46l-.07-.3-.27.17c-1.07.84-2.01,1.27-2.78,1.37-.47.03-.9-.17-1.3-.6-.47-.5-.84-1-1.11-1.51-.2-.54-.2-.8,0-.8l.87-.23,6.2-3.48Z"/>
        <path class="cls-1" d="M255.84,95.21c1.51.97,2.34,1.67,2.41,2.08.04.37-.17.9-.63,1.57l-1.51,2.34.17.33v.33l-.1.37-.2.47-.23.4-.77.44c-1.84.9-3.45,1.61-4.92,2.01l-3.05.77-.57.1c-.17.03-.3-.1-.54-.33l-1.41,3.68c-.77,1.84-1.71,3.65-2.81,5.42-.67,1.04-1.44,2.01-2.41,2.91-.37.23-.91.4-1.58.5-.8.07-1.24.03-1.27-.07-.07-.23.07-.64.5-1.24.8-.87,1.51-1.91,2.14-3.05,1-1.74,1.91-3.72,2.81-5.96.8-2.01,1.44-3.75,1.84-5.22.57-1.91,1-3.88,1.17-5.93v-.5c-.04-.3,0-.47.1-.57.13-.17.3-.2.5-.13l.5.13,1.07.54.27.13,6.96-1.34c.64-.37,1.17-.44,1.54-.2ZM250.95,112.35c.24-.2.74-.17,1.44.1l1.64.84c.24.17.37.37.34.6-.03.37-.13.87-.37,1.47l-.87,1.88.23.07.44.33c.1.17.1.33,0,.44l-.37.77c-.1.3-.17.47-.23.43l-.17.07-.37.07c-1.64.03-3.42.27-5.26.77h-.5l-.3.27-.33.4c-.1.2-.27.13-.54-.13-.37-.44-.77-1.31-1.21-2.65-.5-1.47-.84-2.51-.94-3.15l-.2-.84-.03-.5c0-.2.13-.27.3-.2.44.17.87.23,1.21.2.3-.07.57.03.84.27,1.51-.47,2.81-.84,3.92-1.04.6-.1,1.04-.27,1.34-.47ZM247,118.04l1.27-.37c.5-.17,1-.27,1.54-.3l.44-.9c.17-.57.3-1.1.33-1.64v-.4c-.04-.1-.17-.1-.37-.03l-2.24.67c-.57.13-1.04.34-1.37.57v.17l.4,2.24ZM248.74,99.4l-.6.2c-.3.6-.74,1.78-1.3,3.55,1.54-.64,3.45-1.31,5.72-1.98l1.17-2.18.17-.67c-.1-.1-.44-.1-.97,0l-4.19,1.07ZM250.25,108.27c.97-.27,1.91-.54,2.84-.7l2.71-.23,1.74-.07c1.07-.3,1.77-.3,2.17.07.74.7,1.44,1.47,2.04,2.38.63.9.67,1.61.17,2.24-.37,1.94-.54,3.68-.63,5.19-.13,1.57-.57,2.98-1.27,4.25-.67,1.14-1.37,1.98-2.18,2.44-.13.2-.33.33-.6.4l-1,.17c-.27.03-.5-.07-.74-.37l-.77-.6-1.44-1.21-.9-.87c-.17-.17-.2-.33-.1-.47.04-.1.13-.07.3.03l1.27.27,1.04.17c.44.03.77-.1.94-.44.27-.27.6-1.1,1.04-2.48.67-2.38,1.14-4.92,1.41-7.6.07-.67,0-1.04-.2-1.1-.27-.13-.64-.17-1.07-.1h-.84c-.87,0-1.71.07-2.58.23l-2.68.64-1.58.47-.43.13c-.17.03-.37-.03-.54-.13-.17-.1-.34-.3-.47-.6l-.44-.64c-.2-.17-.3-.37-.27-.54,0-.23.33-.37.94-.4l2.11-.54Z"/>
      </g>
      <g>
        <path class="cls-3" d="M207.37,18.2c-14.03,10.23-58.13,47.2-81.22,41.67-2.35-.56-4.26-2.83-4.58-5.59-.77-6.61,7.92-9.87,7.47-16.37-.15-2.26-1.44-3.62-3.27-4.34-4.33-1.7-11.7.26-14.35,2.68,1.89-1.72,8.81-1.51,9.53,1.41,1.01,4.12-6.73,8.99-9.66,11.07-4.26,3.04-7.63,7-9.54,11.78-2.08,5.22-2.75,11.4.46,16.34,16.93,26.09,99.28-13.9,99.28-13.9l6.14-44.95c-.09.06-.17.13-.25.18Z"/>
        <path class="cls-2" d="M142.99,23.4c11.7.64-.29,17.17-2.57,22.06-1.23,2.63-3.09,6.19-.08,8.13.04.03.09.06.13.08,3.24,1.95,7.18.16,9.73-1.98-1.79,1.5-3.99-1.45-3.83-2.92.3-2.79,3.67-4.98,5.36-6.82,6.95-7.6,15.46-20.4,10.22-31.66-15.58-33.51-97.11,25.45-97.11,25.45l-6.14,33.03c11.24-8.27,20.73-15.67,32.59-23,9.27-5.72,18.75-11.22,28.66-15.78,6.96-3.21,15.18-7.04,23.05-6.61ZM138.44,13.86c.67-3.46,4.01-6.26,7.47-6.26s5.71,2.8,5.05,6.26c-.67,3.46-4.01,6.26-7.47,6.26s-5.71-2.8-5.05-6.26Z"/>
      </g>
      <g>
        <path class="cls-1" d="M0,143.4v-10.59h3.21c3.74,0,5.61,1.72,5.61,5.16,0,1.66-.53,2.97-1.6,3.96-1.06.98-2.43,1.47-4.09,1.47H0ZM1.64,134.22v7.77h1.44c1.25,0,2.23-.35,2.94-1.05.71-.7,1.07-1.68,1.07-2.94s-.34-2.18-1.02-2.82c-.68-.64-1.66-.97-2.95-.97h-1.48Z"/>
        <path class="cls-1" d="M16.93,140.05h-5.2c.07,1.53.85,2.29,2.33,2.29.84,0,1.6-.25,2.29-.75v1.33c-.68.44-1.56.66-2.66.66s-2-.34-2.63-1.03c-.63-.68-.95-1.64-.95-2.87,0-1.17.34-2.13,1.02-2.89.68-.76,1.54-1.13,2.56-1.13s1.82.32,2.38.97c.57.64.85,1.53.85,2.66v.76ZM15.38,138.88c0-.65-.15-1.14-.45-1.49-.29-.35-.71-.52-1.24-.52-.49,0-.91.18-1.27.55-.36.37-.58.85-.67,1.46h3.63Z"/>
        <path class="cls-1" d="M20.22,142.38v4.5h-1.61v-11.04h1.61v1.26h.03c.58-.96,1.43-1.44,2.54-1.44.96,0,1.72.34,2.27,1.01.55.67.83,1.58.83,2.73,0,1.26-.31,2.27-.94,3.04-.62.76-1.46,1.14-2.51,1.14-.96,0-1.69-.4-2.2-1.2h-.03ZM20.2,140.22c0,.59.18,1.08.55,1.48.36.4.82.6,1.38.6.67,0,1.19-.26,1.56-.77.37-.51.55-1.22.55-2.13,0-.78-.17-1.38-.51-1.81-.34-.43-.82-.64-1.43-.64s-1.12.22-1.51.67c-.39.45-.58,1.01-.58,1.7v.9Z"/>
        <path class="cls-1" d="M27.65,136.35c.77-.45,1.66-.68,2.67-.68,1.91,0,2.87.99,2.87,2.96v4.78h-1.56v-1.15h-.03c-.52.88-1.28,1.33-2.3,1.33-.74,0-1.33-.2-1.75-.6-.43-.4-.64-.94-.64-1.62,0-1.42.85-2.25,2.54-2.49l2.2-.3c0-1.13-.5-1.69-1.48-1.69-.91,0-1.74.29-2.5.88v-1.42ZM29.97,139.89c-.55.07-.93.21-1.16.42-.23.21-.34.51-.34.9,0,.33.12.6.36.82.24.21.55.32.93.32.54,0,.98-.19,1.34-.57.36-.38.54-.86.54-1.44v-.67l-1.67.23Z"/>
        <path class="cls-1" d="M39.61,137.37c-.24-.16-.55-.23-.94-.23-.52,0-.94.23-1.26.68-.32.46-.48,1.06-.48,1.81v3.77h-1.61v-7.56h1.61v1.5h.03c.37-1.09,1.04-1.63,1.98-1.63.28,0,.51.03.67.1v1.56Z"/>
        <path class="cls-1" d="M45.16,143.32c-.29.17-.72.25-1.28.25-1.44,0-2.15-.78-2.15-2.34v-4.12h-1.28v-1.27h1.28v-1.77l1.6-.49v2.26h1.83v1.27h-1.83v3.84c0,.47.08.81.25,1.02.17.21.43.31.8.31.29,0,.55-.08.78-.25v1.28Z"/>
        <path class="cls-1" d="M57.86,143.4h-1.61v-4.33c0-.75-.12-1.29-.36-1.62-.24-.33-.63-.5-1.15-.5-.46,0-.85.21-1.18.63-.33.42-.49.93-.49,1.54v4.29h-1.6v-4.44c0-1.34-.51-2.01-1.54-2.01-.47,0-.87.2-1.18.61-.31.41-.47.93-.47,1.57v4.27h-1.61v-7.56h1.61v1.19h.03c.54-.91,1.34-1.37,2.38-1.37s1.78.5,2.15,1.51c.56-1.01,1.41-1.51,2.53-1.51,1.65,0,2.48,1.02,2.48,3.07v4.67Z"/>
        <path class="cls-1" d="M66.32,140.05h-5.2c.07,1.53.85,2.29,2.33,2.29.84,0,1.6-.25,2.29-.75v1.33c-.67.44-1.56.66-2.66.66s-2-.34-2.63-1.03c-.63-.68-.95-1.64-.95-2.87,0-1.17.34-2.13,1.02-2.89.68-.76,1.54-1.13,2.56-1.13s1.81.32,2.38.97c.57.64.85,1.53.85,2.66v.76ZM64.76,138.88c0-.65-.15-1.14-.45-1.49-.29-.35-.7-.52-1.24-.52-.49,0-.91.18-1.27.55-.36.37-.58.85-.67,1.46h3.63Z"/>
        <path class="cls-1" d="M74.63,143.4h-1.6v-4.27c0-1.45-.53-2.18-1.58-2.18-.53,0-.97.2-1.32.61-.35.4-.52.92-.52,1.54v4.31h-1.61v-7.56h1.61v1.24h.04c.56-.94,1.38-1.42,2.46-1.42,1.69,0,2.54,1.04,2.54,3.12v4.62Z"/>
        <path class="cls-1" d="M80.64,143.32c-.29.17-.72.25-1.28.25-1.44,0-2.15-.78-2.15-2.34v-4.12h-1.28v-1.27h1.28v-1.77l1.6-.49v2.26h1.83v1.27h-1.83v3.84c0,.47.08.81.25,1.02.17.21.43.31.8.31.29,0,.55-.08.78-.25v1.28Z"/>
        <path class="cls-1" d="M85.17,139.69c0-1.24.35-2.23,1.06-2.95.71-.72,1.67-1.08,2.9-1.08,1.15,0,2.06.35,2.73,1.05.67.7,1,1.65,1,2.86s-.35,2.19-1.06,2.92-1.65,1.09-2.83,1.09-2.08-.35-2.77-1.06c-.69-.71-1.04-1.65-1.04-2.83ZM86.8,139.66c0,.83.2,1.48.61,1.94.4.46.95.7,1.64.7,1.45,0,2.18-.89,2.18-2.69,0-.87-.19-1.53-.56-1.98-.37-.45-.91-.68-1.62-.68s-1.26.24-1.65.73c-.4.48-.6,1.14-.6,1.98Z"/>
        <path class="cls-1" d="M98.54,133.52c-.27-.13-.54-.19-.83-.19-.81,0-1.22.49-1.22,1.47v1.04h1.75v1.27h-1.75v6.29h-1.6v-6.29h-1.29v-1.27h1.29v-1.12c0-.82.25-1.48.74-1.96.5-.48,1.13-.72,1.91-.72.4,0,.73.05.99.14v1.35Z"/>
        <path class="cls-1" d="M104.81,134.15h0v7.9h0v1.35h-1.64v-1.34h0v-7.9h0v-1.35h1.64v1.34Z"/>
        <path class="cls-1" d="M113.91,143.4h-1.6v-4.27c0-1.45-.53-2.18-1.59-2.18-.53,0-.97.2-1.32.61-.35.4-.52.92-.52,1.54v4.31h-1.61v-7.56h1.61v1.24h.04c.56-.94,1.38-1.42,2.46-1.42,1.69,0,2.54,1.04,2.54,3.12v4.62Z"/>
        <path class="cls-1" d="M120.21,133.52c-.27-.13-.55-.19-.83-.19-.81,0-1.22.49-1.22,1.47v1.04h1.75v1.27h-1.75v6.29h-1.6v-6.29h-1.29v-1.27h1.29v-1.12c0-.82.25-1.48.74-1.96.5-.48,1.13-.72,1.91-.72.4,0,.73.05.99.14v1.35Z"/>
        <path class="cls-1" d="M120.66,139.69c0-1.24.35-2.23,1.06-2.95.71-.72,1.67-1.08,2.9-1.08,1.15,0,2.06.35,2.73,1.05.67.7,1.01,1.65,1.01,2.86s-.35,2.19-1.06,2.92-1.65,1.09-2.83,1.09-2.08-.35-2.77-1.06c-.69-.71-1.03-1.65-1.03-2.83ZM122.3,139.66c0,.83.2,1.48.61,1.94.4.46.95.7,1.64.7,1.45,0,2.18-.89,2.18-2.69,0-.87-.19-1.53-.56-1.98-.37-.45-.91-.68-1.62-.68s-1.26.24-1.66.73c-.4.48-.59,1.14-.59,1.98Z"/>
        <path class="cls-1" d="M134.44,137.37c-.23-.16-.55-.23-.94-.23-.52,0-.94.23-1.26.68-.32.46-.48,1.06-.48,1.81v3.77h-1.61v-7.56h1.61v1.5h.04c.37-1.09,1.03-1.63,1.98-1.63.28,0,.51.03.67.1v1.56Z"/>
        <path class="cls-1" d="M146.83,143.4h-1.61v-4.33c0-.75-.12-1.29-.36-1.62-.24-.33-.63-.5-1.15-.5-.46,0-.85.21-1.18.63-.33.42-.49.93-.49,1.54v4.29h-1.6v-4.44c0-1.34-.51-2.01-1.54-2.01-.47,0-.87.2-1.18.61-.31.41-.47.93-.47,1.57v4.27h-1.61v-7.56h1.61v1.19h.04c.54-.91,1.34-1.37,2.38-1.37s1.78.5,2.15,1.51c.57-1.01,1.41-1.51,2.53-1.51,1.65,0,2.48,1.02,2.48,3.07v4.67Z"/>
        <path class="cls-1" d="M149.14,136.35c.77-.45,1.66-.68,2.67-.68,1.91,0,2.86.99,2.86,2.96v4.78h-1.56v-1.15h-.04c-.51.88-1.28,1.33-2.3,1.33-.74,0-1.33-.2-1.75-.6-.43-.4-.64-.94-.64-1.62,0-1.42.85-2.25,2.54-2.49l2.2-.3c0-1.13-.49-1.69-1.48-1.69-.91,0-1.74.29-2.5.88v-1.42ZM151.46,139.89c-.55.07-.93.21-1.16.42-.23.21-.34.51-.34.9,0,.33.12.6.36.82.24.21.55.32.93.32.54,0,.98-.19,1.34-.57.36-.38.53-.86.53-1.44v-.67l-1.67.23Z"/>
        <path class="cls-1" d="M160.69,143.32c-.3.17-.72.25-1.28.25-1.44,0-2.15-.78-2.15-2.34v-4.12h-1.28v-1.27h1.28v-1.77l1.6-.49v2.26h1.83v1.27h-1.83v3.84c0,.47.08.81.25,1.02.17.21.43.31.8.31.29,0,.55-.08.78-.25v1.28Z"/>
        <path class="cls-1" d="M162.03,133.24c0-.27.09-.49.28-.67.18-.18.42-.26.7-.26s.51.09.7.26c.19.17.29.4.29.67s-.1.49-.29.67c-.19.17-.43.26-.7.26s-.51-.09-.7-.27c-.19-.18-.28-.4-.28-.66ZM162.18,143.4v-7.56h1.61v7.56h-1.61Z"/>
        <path class="cls-1" d="M165.57,139.69c0-1.24.36-2.23,1.06-2.95.71-.72,1.67-1.08,2.89-1.08,1.15,0,2.07.35,2.73,1.05.67.7,1.01,1.65,1.01,2.86s-.35,2.19-1.06,2.92c-.71.73-1.65,1.09-2.83,1.09s-2.08-.35-2.77-1.06c-.69-.71-1.04-1.65-1.04-2.83ZM167.2,139.66c0,.83.2,1.48.61,1.94.4.46.95.7,1.64.7,1.45,0,2.18-.89,2.18-2.69,0-.87-.19-1.53-.56-1.98-.37-.45-.91-.68-1.62-.68s-1.26.24-1.65.73c-.4.48-.6,1.14-.6,1.98Z"/>
        <path class="cls-1" d="M181.69,143.4h-1.6v-4.27c0-1.45-.53-2.18-1.58-2.18-.53,0-.98.2-1.33.61-.35.4-.52.92-.52,1.54v4.31h-1.61v-7.56h1.61v1.24h.03c.56-.94,1.38-1.42,2.46-1.42,1.69,0,2.54,1.04,2.54,3.12v4.62Z"/>
        <path class="cls-1" d="M194.18,134.22h-3.04v9.18h-1.65v-9.18h-3.04v-1.41h7.72v1.41Z"/>
        <path class="cls-1" d="M200.34,140.05h-5.2c.07,1.53.85,2.29,2.33,2.29.84,0,1.6-.25,2.29-.75v1.33c-.68.44-1.56.66-2.66.66s-2-.34-2.63-1.03c-.63-.68-.95-1.64-.95-2.87,0-1.17.34-2.13,1.02-2.89.68-.76,1.54-1.13,2.56-1.13s1.82.32,2.38.97c.57.64.85,1.53.85,2.66v.76ZM198.78,138.88c0-.65-.15-1.14-.45-1.49-.29-.35-.71-.52-1.24-.52-.49,0-.91.18-1.27.55-.36.37-.58.85-.67,1.46h3.63Z"/>
        <path class="cls-1" d="M207.37,143.08c-.56.33-1.27.5-2.14.5-1.1,0-2-.35-2.68-1.05-.68-.7-1.03-1.61-1.03-2.73,0-1.26.37-2.27,1.1-3.02.73-.75,1.71-1.12,2.93-1.12.75,0,1.36.12,1.83.36v1.5c-.54-.39-1.12-.58-1.74-.58-.74,0-1.34.25-1.79.74-.46.5-.69,1.16-.69,1.99s.22,1.46.65,1.92c.44.46,1.02.69,1.75.69.64,0,1.24-.21,1.81-.61v1.4Z"/>
        <path class="cls-1" d="M215.72,143.4h-1.61v-4.33c0-1.41-.52-2.12-1.56-2.12-.53,0-.97.2-1.32.61-.35.41-.53.92-.53,1.55v4.29h-1.61v-11.19h1.61v4.84h.04c.57-.92,1.38-1.39,2.43-1.39,1.7,0,2.56,1.03,2.56,3.09v4.65Z"/>
        <path class="cls-1" d="M224.49,143.4h-1.6v-4.27c0-1.45-.53-2.18-1.59-2.18-.53,0-.97.2-1.32.61-.35.4-.52.92-.52,1.54v4.31h-1.61v-7.56h1.61v1.24h.04c.56-.94,1.38-1.42,2.46-1.42,1.69,0,2.54,1.04,2.54,3.12v4.62Z"/>
        <path class="cls-1" d="M226.13,139.69c0-1.24.35-2.23,1.06-2.95.71-.72,1.67-1.08,2.89-1.08,1.15,0,2.06.35,2.73,1.05.67.7,1.01,1.65,1.01,2.86s-.35,2.19-1.06,2.92c-.71.73-1.65,1.09-2.83,1.09s-2.08-.35-2.77-1.06c-.69-.71-1.04-1.65-1.04-2.83ZM227.76,139.66c0,.83.2,1.48.61,1.94.4.46.95.7,1.64.7,1.45,0,2.18-.89,2.18-2.69,0-.87-.19-1.53-.56-1.98-.37-.45-.91-.68-1.62-.68s-1.26.24-1.65.73c-.4.48-.6,1.14-.6,1.98Z"/>
        <path class="cls-1" d="M235.6,143.4v-11.19h1.61v11.19h-1.61Z"/>
        <path class="cls-1" d="M238.98,139.69c0-1.24.35-2.23,1.06-2.95.71-.72,1.67-1.08,2.89-1.08,1.15,0,2.06.35,2.73,1.05.67.7,1.01,1.65,1.01,2.86s-.35,2.19-1.06,2.92c-.71.73-1.65,1.09-2.83,1.09s-2.08-.35-2.77-1.06c-.69-.71-1.04-1.65-1.04-2.83ZM240.62,139.66c0,.83.2,1.48.61,1.94.4.46.95.7,1.64.7,1.45,0,2.18-.89,2.18-2.69,0-.87-.19-1.53-.56-1.98-.37-.45-.91-.68-1.62-.68s-1.26.24-1.66.73c-.39.48-.59,1.14-.59,1.98Z"/>
        <path class="cls-1" d="M255.26,142.7c0,2.83-1.42,4.25-4.25,4.25-.96,0-1.78-.16-2.45-.49v-1.48c.83.46,1.63.7,2.41.7,1.79,0,2.68-.91,2.68-2.74v-.75h-.03c-.56.92-1.39,1.39-2.51,1.39-.95,0-1.71-.34-2.28-1.01-.57-.68-.86-1.58-.86-2.71,0-1.28.31-2.29.94-3.05.62-.76,1.46-1.14,2.5-1.14s1.72.39,2.2,1.17h.03v-.99h1.61v6.87ZM253.67,138.97c0-.56-.18-1.04-.55-1.43-.37-.39-.83-.59-1.37-.59-.66,0-1.18.25-1.56.75-.38.5-.57,1.19-.57,2.07,0,.77.18,1.38.55,1.84.36.46.85.69,1.44.69s1.1-.23,1.48-.68c.39-.45.58-1.02.58-1.71v-.94Z"/>
        <path class="cls-1" d="M263.96,135.84l-3.33,8.56c-.66,1.71-1.62,2.56-2.87,2.56-.41,0-.74-.04-1-.13v-1.35c.27.12.54.18.82.18.6,0,1.05-.33,1.33-1.01l.53-1.26-3-7.55h1.79l1.82,5.39c.04.11.1.36.18.73h.03c.02-.15.08-.38.19-.71l1.89-5.41h1.62Z"/>
        <path class="cls-1" d="M265.88,141.66l-1.15,3.66h-1.2l.83-3.66h1.52Z"/>
        <path class="cls-1" d="M62.11,151.02h-3.04v9.18h-1.65v-9.18h-3.04v-1.41h7.72v1.41Z"/>
        <path class="cls-1" d="M62.08,153.15c.77-.46,1.66-.68,2.67-.68,1.91,0,2.87.99,2.87,2.96v4.78h-1.56v-1.15h-.04c-.51.88-1.28,1.33-2.3,1.33-.74,0-1.33-.2-1.75-.6-.43-.4-.64-.94-.64-1.62,0-1.42.85-2.25,2.54-2.49l2.2-.3c0-1.13-.5-1.69-1.48-1.69-.91,0-1.74.29-2.5.88v-1.42ZM64.4,156.69c-.55.07-.93.21-1.16.42-.22.21-.34.51-.34.9,0,.33.12.6.36.82.24.21.55.32.93.32.54,0,.98-.19,1.34-.57.36-.38.54-.86.54-1.44v-.67l-1.67.23Z"/>
        <path class="cls-1" d="M69.57,150.04c0-.27.09-.49.28-.67.19-.18.42-.26.7-.26s.51.09.7.26c.19.17.29.4.29.67s-.1.49-.29.67c-.19.17-.43.26-.7.26s-.51-.09-.7-.27c-.19-.18-.28-.4-.28-.66ZM69.73,160.2v-7.56h1.61v7.56h-1.61Z"/>
        <path class="cls-1" d="M75.21,159.19v4.5h-1.61v-11.04h1.61v1.26h.04c.58-.96,1.43-1.44,2.54-1.44.96,0,1.72.34,2.27,1.01.55.67.83,1.58.83,2.73,0,1.26-.31,2.27-.94,3.04-.62.76-1.46,1.14-2.51,1.14-.96,0-1.69-.4-2.2-1.2h-.04ZM75.2,157.02c0,.59.18,1.08.54,1.48.37.4.83.6,1.38.6.67,0,1.19-.26,1.56-.77.37-.51.55-1.22.55-2.13,0-.78-.17-1.38-.51-1.81-.34-.43-.82-.64-1.44-.64s-1.12.22-1.51.67c-.39.45-.58,1.01-.58,1.7v.9Z"/>
        <path class="cls-1" d="M88.99,156.85h-5.2c.07,1.53.84,2.29,2.33,2.29.84,0,1.6-.25,2.29-.75v1.33c-.67.44-1.56.66-2.66.66s-2-.34-2.63-1.03c-.63-.68-.95-1.64-.95-2.87,0-1.17.34-2.13,1.02-2.89.68-.76,1.54-1.13,2.56-1.13s1.82.32,2.38.97c.57.64.85,1.53.85,2.66v.76ZM87.43,155.68c0-.65-.15-1.14-.44-1.49-.29-.35-.71-.52-1.25-.52-.49,0-.91.18-1.27.55-.36.37-.58.85-.67,1.46h3.63Z"/>
        <path class="cls-1" d="M90.49,150.04c0-.27.09-.49.28-.67.19-.18.42-.26.7-.26s.51.09.7.26c.19.17.29.4.29.67s-.1.49-.29.67c-.19.17-.43.26-.7.26s-.51-.09-.7-.27c-.19-.18-.28-.4-.28-.66ZM90.65,160.2v-7.56h1.61v7.56h-1.61Z"/>
        <path class="cls-1" d="M105.56,159.79c-.78.4-1.77.59-2.96.59-1.53,0-2.76-.48-3.68-1.45-.92-.96-1.38-2.24-1.38-3.82s.51-3.01,1.54-4.08c1.02-1.07,2.34-1.6,3.96-1.6,1.02,0,1.86.14,2.54.42v1.66c-.75-.42-1.57-.63-2.48-.63-1.15,0-2.08.38-2.78,1.14-.7.76-1.05,1.75-1.05,2.98s.33,2.12.98,2.84,1.53,1.09,2.63,1.09c1.02,0,1.92-.23,2.69-.7v1.55Z"/>
        <path class="cls-1" d="M107.24,150.04c0-.27.09-.49.28-.67.18-.18.42-.26.7-.26s.51.09.71.26c.19.17.29.4.29.67s-.1.49-.29.67c-.19.17-.43.26-.71.26s-.51-.09-.7-.27c-.19-.18-.28-.4-.28-.66ZM107.39,160.2v-7.56h1.61v7.56h-1.61Z"/>
        <path class="cls-1" d="M115.15,160.12c-.3.17-.72.25-1.28.25-1.44,0-2.15-.78-2.15-2.34v-4.12h-1.28v-1.27h1.28v-1.77l1.6-.49v2.26h1.83v1.27h-1.83v3.84c0,.47.08.81.25,1.02.17.21.44.31.8.31.29,0,.55-.08.78-.25v1.28Z"/>
        <path class="cls-1" d="M123.09,152.64l-3.33,8.56c-.66,1.71-1.62,2.56-2.87,2.56-.41,0-.74-.04-1-.13v-1.35c.26.12.54.18.82.18.6,0,1.04-.34,1.33-1.01l.53-1.26-2.99-7.55h1.78l1.82,5.39c.04.11.1.36.18.73h.04c.02-.15.08-.38.19-.71l1.89-5.41h1.62Z"/>
        <path class="cls-1" d="M136.14,159.49c-1.06.6-2.28.9-3.66.9-1.58,0-2.85-.48-3.79-1.44-.95-.96-1.42-2.26-1.42-3.88s.53-2.99,1.57-4.04c1.05-1.05,2.4-1.58,4.06-1.58,1.14,0,2.12.17,2.93.53v1.68c-.83-.51-1.84-.77-3.03-.77-1.12,0-2.03.38-2.74,1.13-.71.75-1.07,1.74-1.07,2.96s.33,2.24.98,2.94,1.54,1.06,2.66,1.06c.74,0,1.36-.14,1.87-.41v-2.65h-2.25v-1.39h3.9v4.98Z"/>
        <path class="cls-1" d="M137.79,156.49c0-1.24.35-2.23,1.06-2.95.71-.72,1.67-1.08,2.9-1.08,1.15,0,2.06.35,2.73,1.05.67.7,1.01,1.65,1.01,2.86s-.35,2.19-1.06,2.92c-.71.73-1.65,1.09-2.83,1.09s-2.08-.35-2.77-1.06c-.69-.71-1.03-1.65-1.03-2.83ZM139.42,156.46c0,.83.2,1.48.61,1.94.4.46.95.7,1.64.7,1.45,0,2.18-.89,2.18-2.69,0-.87-.19-1.53-.56-1.98-.37-.45-.91-.68-1.62-.68s-1.26.24-1.66.73c-.4.48-.59,1.14-.59,1.98Z"/>
        <path class="cls-1" d="M153.66,152.64l-2.95,7.56h-1.7l-2.8-7.56h1.74l1.7,5.2c.15.45.23.83.27,1.16h.03c.04-.38.12-.75.25-1.12l1.77-5.24h1.69Z"/>
        <path class="cls-1" d="M161.08,156.85h-5.2c.07,1.53.85,2.29,2.33,2.29.84,0,1.6-.25,2.29-.75v1.33c-.67.44-1.56.66-2.66.66s-2-.34-2.63-1.03c-.63-.68-.95-1.64-.95-2.87,0-1.17.34-2.13,1.02-2.89.68-.76,1.54-1.13,2.56-1.13s1.81.32,2.38.97.85,1.53.85,2.66v.76ZM159.53,155.68c0-.65-.15-1.14-.45-1.49-.29-.35-.71-.52-1.24-.52-.49,0-.91.18-1.27.55-.36.37-.58.85-.67,1.46h3.63Z"/>
        <path class="cls-1" d="M167.05,154.17c-.24-.16-.55-.23-.95-.23-.52,0-.94.23-1.26.68-.32.46-.48,1.06-.48,1.81v3.77h-1.61v-7.56h1.61v1.5h.03c.37-1.09,1.04-1.63,1.98-1.63.28,0,.51.03.67.1v1.56Z"/>
        <path class="cls-1" d="M174.9,160.2h-1.6v-4.27c0-1.45-.53-2.18-1.59-2.18-.53,0-.97.2-1.32.61-.35.4-.52.92-.52,1.54v4.31h-1.61v-7.56h1.61v1.24h.03c.56-.94,1.38-1.42,2.46-1.42,1.69,0,2.54,1.04,2.54,3.12v4.62Z"/>
        <path class="cls-1" d="M188.21,160.2h-1.61v-4.33c0-.75-.12-1.29-.36-1.62-.24-.33-.63-.5-1.16-.5-.46,0-.85.21-1.17.63-.33.42-.49.93-.49,1.54v4.29h-1.6v-4.44c0-1.34-.51-2.01-1.54-2.01-.47,0-.87.2-1.18.61-.31.41-.47.93-.47,1.57v4.27h-1.61v-7.56h1.61v1.19h.03c.54-.91,1.34-1.37,2.38-1.37s1.78.5,2.15,1.51c.57-1.01,1.41-1.51,2.53-1.51,1.65,0,2.48,1.02,2.48,3.07v4.67Z"/>
        <path class="cls-1" d="M196.66,156.85h-5.2c.07,1.53.84,2.29,2.33,2.29.84,0,1.6-.25,2.29-.75v1.33c-.67.44-1.56.66-2.66.66s-2-.34-2.63-1.03c-.63-.68-.95-1.64-.95-2.87,0-1.17.34-2.13,1.02-2.89.68-.76,1.54-1.13,2.56-1.13s1.82.32,2.38.97c.57.64.85,1.53.85,2.66v.76ZM195.11,155.68c0-.65-.15-1.14-.44-1.49-.29-.35-.71-.52-1.25-.52-.49,0-.91.18-1.27.55-.36.37-.58.85-.67,1.46h3.63Z"/>
        <path class="cls-1" d="M204.98,160.2h-1.6v-4.27c0-1.45-.53-2.18-1.59-2.18-.53,0-.97.2-1.32.61-.35.4-.52.92-.52,1.54v4.31h-1.61v-7.56h1.61v1.24h.03c.56-.94,1.38-1.42,2.46-1.42,1.69,0,2.54,1.04,2.54,3.12v4.62Z"/>
        <path class="cls-1" d="M210.99,160.12c-.3.17-.72.25-1.28.25-1.44,0-2.15-.78-2.15-2.34v-4.12h-1.28v-1.27h1.28v-1.77l1.6-.49v2.26h1.83v1.27h-1.83v3.84c0,.47.08.81.25,1.02.17.21.43.31.8.31.29,0,.55-.08.78-.25v1.28Z"/>
      </g>
    </g>
  </g>
</svg>
</svg>