<svg xmlns="http://www.w3.org/2000/svg" width="600" height="400" viewBox="0 0 600 400">
    <title>micare with padding</title>
    <svg xmlns="http://www.w3.org/2000/svg" xmlns:svg="http://www.w3.org/2000/svg" version="1.1" id="svg1" viewBox="0 0 361.26269 193.98173" x="49.99999999999997" y="65.65096952908587" width="500.00000000000006" height="268.69806094182826">
  <defs id="defs1"/>
  <g id="layer-MC0" transform="translate(-1720.7762,-105.38813)">
    <path id="path101" d="m 44.747,95.132 h 5.36 V 79.041 h -5.36 z m -14.2,0 h 5.699 l 4.317,-7.154 3.395,5.82 v -8.1 L 40.09,79.041 Z M 30.535,79.041 V 93.64 l 5.008,-8.403 v -6.196 z" style="fill:#4f4c4d;fill-opacity:1;fill-rule:nonzero;stroke:none" transform="matrix(1.3333333,0,0,-1.3333333,1699.0293,404.75733)"/>
    <path id="path102" d="M 52.798,91.919 H 58.17 V 79.042 h -5.372 z m 0,4.91 H 58.17 V 93.41 h -5.372 z" style="fill:#4f4c4d;fill-opacity:1;fill-rule:nonzero;stroke:none" transform="matrix(1.3333333,0,0,-1.3333333,1699.0293,404.75733)"/>
    <path id="path103" d="M 0,0 V 3.007 H 2.377 V 4.62 H 7.736 V 3.213 L 4.523,0 Z m 0,9.664 v 3.214 H 4.523 L 7.736,9.664 V 7.736 H 2.377 V 9.664 Z M -0.849,0 h -2.146 l -3.213,3.213 v 6.451 l 3.213,3.214 h 2.146 z" style="fill:#4f4c4d;fill-opacity:1;fill-rule:nonzero;stroke:none" transform="matrix(1.3333333,0,0,-1.3333333,1788.1003,299.3692)"/>
    <path id="path104" d="m 0,0 v 9.664 h -7.627 v 1.601 l 1.613,1.613 H 2.025 L 5.238,9.664 V 0 Z M -0.849,7.494 V 5.263 H -3.613 V 3.007 h 2.764 V 1.588 L -2.449,0 h -4.099 l -2.158,2.122 v 3.225 l 2.158,2.147 z" style="fill:#4f4c4d;fill-opacity:1;fill-rule:nonzero;stroke:none" transform="matrix(1.3333333,0,0,-1.3333333,1812.6751,299.3692)"/>
    <path id="path105" d="m 0,0 h -2.28 v 1.407 l 1.795,1.806 h 3.25 L 5.372,0.206 V -3.128 H 0 Z m -8.5,3.213 h 5.36 V -9.664 H -8.5 Z" style="fill:#4f4c4d;fill-opacity:1;fill-rule:nonzero;stroke:none" transform="matrix(1.3333333,0,0,-1.3333333,1834.2103,286.4836)"/>
    <path id="path106" d="M 0,0 V 3.007 H 7.203 V 1.613 L 5.602,0 Z M 0,5.166 V 7.409 H 2.825 V 9.664 H 0 v 3.214 H 4.547 L 7.76,9.664 V 5.166 Z M -0.849,0 h -2.146 l -3.213,3.213 v 6.451 l 3.213,3.214 h 2.146 z" style="fill:#4f4c4d;fill-opacity:1;fill-rule:nonzero;stroke:none" transform="matrix(1.3333333,0,0,-1.3333333,1851.7036,299.3692)"/>
    <path id="path107" d="M 0,0 V 3.213 H 6.014 L 9.228,0 V -5.517 L 6.014,-8.743 H 0 v 3.226 H 3.892 V 0 Z m -6.111,3.213 h 5.263 v -16.091 h -5.263 z" style="fill:#4f4c4d;fill-opacity:1;fill-rule:nonzero;stroke:none" transform="matrix(1.3333333,0,0,-1.3333333,1873.4168,282.1992)"/>
    <path id="path108" d="m 0,0 h -2.28 v 1.407 l 1.795,1.806 h 3.25 L 5.372,0.206 V -3.128 H 0 Z m -8.5,3.213 h 5.36 V -9.664 H -8.5 Z" style="fill:#4f4c4d;fill-opacity:1;fill-rule:nonzero;stroke:none" transform="matrix(1.3333333,0,0,-1.3333333,1899.9963,286.4836)"/>
    <path id="path109" d="m 0,0 -3.213,-3.213 h -3.59 v 3.007 h 1.334 v 6.657 h -1.334 v 3.213 h 3.59 L 0,6.451 Z m -9.046,-0.206 h 1.395 v -3.007 h -3.602 L -14.466,0 v 6.451 l 3.213,3.213 h 3.602 V 6.451 h -1.395 z" style="fill:#4f4c4d;fill-opacity:1;fill-rule:nonzero;stroke:none" transform="matrix(1.3333333,0,0,-1.3333333,1928.4997,295.0848)"/>
    <path id="path110" d="m 188.557,79.041 h -5.36 v 17.788 h 5.36 z m -8.791,3.007 h 2.583 v -1.734 l -1.273,-1.273 h -3.771 l -2.898,2.898 v 7.082 l 2.898,2.898 h 5.044 v -3.214 h -2.583 z" style="fill:#4f4c4d;fill-opacity:1;fill-rule:nonzero;stroke:none" transform="matrix(1.3333333,0,0,-1.3333333,1699.0293,404.75733)"/>
    <path id="path111" d="m 204.927,79.041 h -5.36 v 12.878 h 5.36 z m -8.597,3.213 h 2.389 v -1.6 l -1.552,-1.613 h -2.971 l -3.226,3.213 v 9.665 h 5.36 z" style="fill:#4f4c4d;fill-opacity:1;fill-rule:nonzero;stroke:none" transform="matrix(1.3333333,0,0,-1.3333333,1699.0293,404.75733)"/>
    <path id="path112" d="M 0,0 V 3.007 H 2.377 V 4.62 H 7.736 V 3.213 L 4.523,0 Z m 0,9.664 v 3.214 H 4.523 L 7.736,9.664 V 7.736 H 2.377 V 9.664 Z M -0.849,0 h -2.144 l -3.213,3.213 v 6.451 l 3.213,3.214 h 2.144 z" style="fill:#4f4c4d;fill-opacity:1;fill-rule:nonzero;stroke:none" transform="matrix(1.3333333,0,0,-1.3333333,1983.7579,299.3692)"/>
    <path id="path113" d="m 229.843,91.919 h 2.886 v -3.213 h -2.886 z m -0.848,-9.665 h 3.54 v -3.213 h -5.675 l -3.225,3.213 v 6.451 h -1.067 v 3.214 h 1.067 v 1.394 l 5.36,1.819 z" style="fill:#4f4c4d;fill-opacity:1;fill-rule:nonzero;stroke:none" transform="matrix(1.3333333,0,0,-1.3333333,1699.0293,404.75733)"/>
    <path id="path114" d="m 234.597,91.919 h 5.372 V 79.042 h -5.372 z m 0,4.91 h 5.372 V 93.41 h -5.372 z" style="fill:#4f4c4d;fill-opacity:1;fill-rule:nonzero;stroke:none" transform="matrix(1.3333333,0,0,-1.3333333,1699.0293,404.75733)"/>
    <path id="path115" d="m 0,0 -3.213,-3.213 h -3.59 v 3.007 h 1.334 v 6.657 h -1.334 v 3.213 h 3.59 L 0,6.451 Z m -9.046,-0.206 h 1.395 v -3.007 h -3.602 L -14.466,0 v 6.451 l 3.213,3.213 h 3.602 V 6.451 h -1.395 z" style="fill:#4f4c4d;fill-opacity:1;fill-rule:nonzero;stroke:none" transform="matrix(1.3333333,0,0,-1.3333333,2041.5085,295.0848)"/>
    <path id="path116" d="m 0,0 h -2.304 v 1.407 l 1.795,1.806 H 2.474 L 5.372,0.315 V -9.664 H 0 Z m -8.585,3.213 h 5.408 V -9.664 h -5.408 z" style="fill:#4f4c4d;fill-opacity:1;fill-rule:nonzero;stroke:none" transform="matrix(1.3333333,0,0,-1.3333333,2056.1727,286.4836)"/>
    <path id="path117" d="m 0,0 h -51.065 l -16.556,-28.678 h -0.23 L -84.407,0 h -51.065 l -67.739,-117.324 h 33.87 l 50.802,87.993 h 24.866 l 25.937,-44.924 25.937,44.924 h 24.865 l 50.803,-87.993 h 33.867 z" style="fill:#4f4c4d;fill-opacity:1;fill-rule:nonzero;stroke:none" transform="matrix(1.3333333,0,0,-1.3333333,1991.7243,105.38813)"/>
    <path id="path118" d="m 0,0 v 0 c -2.516,0 -4.573,2.057 -4.573,4.572 v 11.199 c 0,2.516 2.057,4.574 4.573,4.574 2.514,0 4.571,-2.058 4.571,-4.574 V 4.572 C 4.571,2.057 2.514,0 0,0" style="fill:#4f4c4d;fill-opacity:1;fill-rule:nonzero;stroke:none" transform="matrix(1.3333333,0,0,-1.3333333,1849.8024,250.12853)"/>
    <path id="path119" d="m 0,0 c 0,-0.915 -0.742,-1.656 -1.656,-1.656 -0.915,0 -1.657,0.741 -1.657,1.656 0,0.915 0.742,1.656 1.657,1.656 C -0.742,1.656 0,0.915 0,0" style="fill:#ffffff;fill-opacity:1;fill-rule:nonzero;stroke:none" transform="matrix(1.3333333,0,0,-1.3333333,1850.336,228.19667)"/>
    <path id="path120" d="m 0,0 v 0 c -2.514,0 -4.573,2.057 -4.573,4.572 v 11.199 c 0,2.516 2.059,4.574 4.573,4.574 2.516,0 4.573,-2.058 4.573,-4.574 V 4.572 C 4.573,2.057 2.516,0 0,0" style="fill:#4f4c4d;fill-opacity:1;fill-rule:nonzero;stroke:none" transform="matrix(1.3333333,0,0,-1.3333333,1953.0163,250.12853)"/>
    <path id="path121" d="m 0,0 c 0,-0.915 -0.742,-1.656 -1.656,-1.656 -0.915,0 -1.657,0.741 -1.657,1.656 0,0.915 0.742,1.656 1.657,1.656 C -0.742,1.656 0,0.915 0,0" style="fill:#ffffff;fill-opacity:1;fill-rule:nonzero;stroke:none" transform="matrix(1.3333333,0,0,-1.3333333,1953.5512,228.19667)"/>
    <path id="path122" d="M 0,0 2.072,3.589 -24.07,16.972 -26.142,13.383 Z" style="fill:#ffffff;fill-opacity:1;fill-rule:nonzero;stroke:none" transform="matrix(1.3333333,0,0,-1.3333333,1787.4937,224.59853)"/>
    <path id="path123" d="M 0,0 2.072,3.589 -24.07,16.972 -26.142,13.383 Z" style="fill:#ffffff;fill-opacity:1;fill-rule:nonzero;stroke:none" transform="matrix(1.3333333,0,0,-1.3333333,1777.0285,242.72507)"/>
    <path id="path124" d="M 0,0 26.141,13.382 24.069,16.971 -2.072,3.589 Z" style="fill:#ffffff;fill-opacity:1;fill-rule:nonzero;stroke:none" transform="matrix(1.3333333,0,0,-1.3333333,2015.8793,225.35227)"/>
    <path id="path125" d="M 0,0 26.141,13.382 24.069,16.971 -2.072,3.589 Z" style="fill:#ffffff;fill-opacity:1;fill-rule:nonzero;stroke:none" transform="matrix(1.3333333,0,0,-1.3333333,2026.3447,243.4788)"/>
  </g>
</svg>
</svg>