<svg xmlns="http://www.w3.org/2000/svg" width="600" height="400" viewBox="0 0 600 400">
    <title>path1 with padding</title>
    <svg xmlns="http://www.w3.org/2000/svg" xmlns:svg="http://www.w3.org/2000/svg" version="1.1" id="svg1" viewBox="0 0 362.20163 314.87814" x="127.61904761904762" y="50" width="344.76190476190476" height="300">
  <defs id="defs1"/>
  <g id="layer-MC0" transform="translate(-213.45585,-410.546)">
    <path id="path1" d="m 184.542,380.699 h 6.449 v 6.667 h -6.449 z m -1.855,6.667 h -6.291 v -6.667 h 6.291 z m -6.291,0.583 h 6.291 v 1.704 c 0,1.338 -0.091,2.352 -0.271,3.021 l 2.376,-0.323 c 0.407,-0.043 0.633,-0.173 0.633,-0.432 0,-0.259 -0.136,-0.432 -0.385,-0.475 l -0.498,-0.194 v -3.301 h 6.269 l 1.063,1.014 1.448,-1.014 c 0.272,-0.173 0.407,-0.303 0.407,-0.41 0,-0.173 -0.09,-0.303 -0.271,-0.389 l -0.611,-0.28 v -5.243 l 0.09,-2.007 c 0,-0.193 -0.112,-0.345 -0.316,-0.453 -0.204,-0.172 -0.453,-0.237 -0.747,-0.237 -0.588,0 -0.882,0.13 -0.882,0.431 v 0.756 h -6.45 v -7.25 c 0,-0.151 -0.09,-0.259 -0.271,-0.323 -0.249,-0.108 -0.611,-0.173 -1.063,-0.173 -0.408,0 -0.612,0.151 -0.612,0.41 l 0.091,3.797 v 3.539 h -6.291 v -0.41 c 0,-0.259 -0.136,-0.453 -0.407,-0.54 -0.272,-0.172 -0.589,-0.237 -0.906,-0.237 -0.407,0 -0.61,0.194 -0.633,0.604 l 0.091,2.179 v 5.653 c 0,0.821 -0.068,1.338 -0.182,1.597 z" style="fill:#241916;fill-opacity:1;fill-rule:nonzero;stroke:none" transform="matrix(1.3333333,0,0,-1.3333333,0,1122.52)"/>
    <path id="path2" d="M 0,0 C 0,-1.338 -0.136,-2.546 -0.362,-3.625 H 4.594 V 2.352 H 0 Z m -2.104,-3.625 c 0.226,1.079 0.339,2.287 0.339,3.625 V 2.352 H -6.54 V -3.625 Z M -6.54,2.956 h 4.775 v 1.187 c 0,0.431 -0.068,1.359 -0.181,2.761 L 0.226,6.646 C 0.656,6.581 0.882,6.451 0.882,6.235 0.882,6.02 0.588,5.782 0,5.566 V 2.956 H 4.571 L 5.476,3.97 6.97,2.892 C 7.15,2.74 7.241,2.589 7.241,2.438 7.241,2.309 7.15,2.223 6.97,2.157 L 6.358,1.855 v -5.48 h 0.453 l 1.313,1.445 1.742,-1.229 c 0.181,-0.173 0.294,-0.323 0.294,-0.475 0,-0.216 -0.113,-0.323 -0.339,-0.323 H 0.113 c 0.701,-1.101 1.426,-2.007 2.195,-2.719 0.928,-0.928 2.059,-1.726 3.394,-2.395 1.29,-0.668 2.671,-1.187 4.119,-1.553 L 9.64,-11.457 c -0.408,0 -0.724,-0.022 -0.951,-0.107 -0.316,-0.043 -0.701,-0.389 -1.176,-1.08 -1.313,0.561 -2.422,1.208 -3.327,1.964 -1.176,0.907 -2.149,1.899 -2.896,2.999 -0.657,0.884 -1.222,2.05 -1.72,3.474 h -0.045 c -0.046,-0.216 -0.091,-0.389 -0.136,-0.562 -0.362,-1.293 -0.905,-2.394 -1.652,-3.343 -0.815,-1.015 -1.833,-1.9 -3.1,-2.633 -1.335,-0.798 -3.236,-1.531 -5.68,-2.222 l -0.181,0.582 c 1.946,0.648 3.462,1.36 4.503,2.136 1.267,0.777 2.285,1.684 3.033,2.719 0.633,0.82 1.108,1.921 1.47,3.28 v 0.043 h -6.087 c -0.837,0 -1.674,-0.065 -2.489,-0.173 l -0.43,1.014 c 0.951,-0.172 1.923,-0.259 2.919,-0.259 h 0.091 v 6.063 c 0,0.497 -0.068,0.95 -0.182,1.359 z" style="fill:#241916;fill-opacity:1;fill-rule:nonzero;stroke:none" transform="matrix(1.3333333,0,0,-1.3333333,278.87627,608.50573)"/>
    <path id="path3" d="m 238.818,390.322 h -3.53 v -7.768 h 3.53 z m -4.955,0.582 h 7.173 l 1.131,1.188 1.517,-1.036 c 0.158,-0.129 0.249,-0.281 0.249,-0.41 0,-0.216 -0.114,-0.324 -0.34,-0.324 h -3.01 v -7.767 h 0.702 l 1.154,1.186 1.516,-1.035 c 0.159,-0.13 0.249,-0.259 0.249,-0.389 0,-0.237 -0.113,-0.344 -0.339,-0.344 h -3.282 v -8.674 c 0,-0.216 -0.09,-0.367 -0.249,-0.475 -0.293,-0.087 -0.588,-0.13 -0.904,-0.13 -0.453,0 -0.702,0.13 -0.702,0.346 l 0.09,3.625 v 5.308 h -3.552 c -0.091,-1.641 -0.294,-2.956 -0.657,-3.927 -0.497,-1.252 -1.131,-2.244 -1.9,-2.956 -0.747,-0.756 -2.037,-1.575 -3.893,-2.482 l -0.248,0.432 c 1.176,0.69 2.014,1.338 2.557,1.898 0.565,0.561 1.018,1.166 1.38,1.813 0.272,0.475 0.52,1.165 0.724,2.071 0.181,0.82 0.294,1.856 0.34,3.151 h -0.136 c -0.837,0 -1.675,-0.066 -2.489,-0.173 l -0.43,1.013 c 0.95,-0.171 1.923,-0.258 2.919,-0.258 h 0.136 c 0,0.194 0.022,0.388 0.022,0.604 v 7.163 c -0.769,-0.021 -1.493,-0.087 -2.195,-0.173 l -0.452,1.015 c 0.973,-0.173 1.946,-0.26 2.919,-0.26 m -5.476,-6.644 h -1.765 v -7.336 h 1.765 z m -2.648,6.644 h 2.285 l 1.155,1.188 1.516,-1.036 c 0.158,-0.129 0.249,-0.281 0.249,-0.41 0,-0.216 -0.113,-0.324 -0.34,-0.324 h -3.077 c -0.407,-1.898 -0.815,-3.387 -1.199,-4.51 -0.091,-0.237 -0.159,-0.453 -0.249,-0.668 l 0.543,-0.302 h 1.584 l 0.973,0.928 1.312,-0.971 c 0.226,-0.152 0.362,-0.28 0.362,-0.389 0,-0.15 -0.09,-0.259 -0.226,-0.323 l -0.566,-0.259 v -6.235 l 0.091,-1.856 c 0,-0.173 -0.113,-0.302 -0.295,-0.41 -0.181,-0.13 -0.407,-0.173 -0.678,-0.173 -0.543,0 -0.792,0.13 -0.792,0.41 v 0.755 h -1.765 v -1.251 c 0,-0.302 -0.159,-0.497 -0.476,-0.626 -0.226,-0.086 -0.498,-0.13 -0.769,-0.13 -0.339,0 -0.521,0.173 -0.521,0.497 0,0.41 0.023,1.143 0.091,2.201 v 5.588 c -0.113,-0.195 -0.204,-0.367 -0.294,-0.518 -0.521,-0.906 -1.041,-1.683 -1.562,-2.309 l -0.271,0.432 c 0.271,0.475 0.588,1.187 0.928,2.136 0.407,1.252 0.792,2.567 1.108,3.992 0.272,1.208 0.521,2.546 0.748,3.991 -0.792,-0.021 -1.584,-0.087 -2.354,-0.173 l -0.43,1.015 c 0.951,-0.173 1.923,-0.26 2.919,-0.26" style="fill:#241916;fill-opacity:1;fill-rule:nonzero;stroke:none" transform="matrix(1.3333333,0,0,-1.3333333,0,1122.52)"/>
    <path id="path4" d="m 0,0 c 0.294,-0.064 0.452,-0.173 0.452,-0.346 0,-0.15 -0.113,-0.28 -0.316,-0.366 L -0.34,-1.015 v -1.013 c 0,-0.41 0.204,-0.669 0.611,-0.755 0.43,-0.13 1.268,-0.173 2.535,-0.173 1.176,0 1.946,0.043 2.308,0.13 0.271,0.043 0.475,0.15 0.566,0.323 l 0.611,1.575 h 0.43 v -1.014 c 0,-0.259 0.135,-0.475 0.429,-0.625 0.182,-0.173 0.272,-0.432 0.272,-0.735 0,-0.28 -0.136,-0.474 -0.362,-0.603 C 6.833,-4.1 6.449,-4.229 5.883,-4.315 5.205,-4.423 4.209,-4.467 2.896,-4.467 c -1.606,0 -2.715,0.066 -3.304,0.238 -0.543,0.043 -0.972,0.259 -1.244,0.604 -0.272,0.323 -0.385,0.776 -0.385,1.338 v 0.928 c 0,0.863 -0.045,1.402 -0.09,1.618 z m -3.553,-4.207 c 0.362,-0.065 0.543,-0.173 0.543,-0.346 0,-0.237 -0.339,-0.453 -0.973,-0.669 -0.045,-0.69 -0.113,-1.295 -0.204,-1.855 h 3.666 l 0.973,1.079 1.562,-1.122 c 0.181,-0.151 0.294,-0.302 0.294,-0.475 0,-0.151 -0.091,-0.259 -0.271,-0.324 L 1.425,-8.264 v -4.207 c 0,-0.453 0.023,-0.756 0.091,-0.906 0.09,-0.13 0.226,-0.194 0.407,-0.194 h 2.602 c 0.317,0 0.566,0.064 0.747,0.216 0.136,0.085 0.408,1.122 0.837,3.149 l 0.521,-0.086 v -2.179 c 0,-0.431 0.113,-0.69 0.362,-0.82 0.272,-0.302 0.43,-0.539 0.43,-0.798 0,-0.346 -0.249,-0.583 -0.701,-0.756 -0.724,-0.15 -1.449,-0.237 -2.196,-0.237 H 1.471 c -0.679,0 -1.155,0.194 -1.471,0.561 -0.294,0.367 -0.43,1.014 -0.43,1.963 v 4.876 h -3.847 c -0.136,-0.797 -0.294,-1.509 -0.475,-2.157 -0.34,-0.992 -0.883,-1.898 -1.629,-2.719 -0.86,-0.884 -1.879,-1.552 -3.01,-2.049 -0.86,-0.388 -2.082,-0.777 -3.689,-1.165 l -0.271,0.518 c 1.538,0.518 2.715,1.014 3.575,1.51 0.951,0.561 1.697,1.186 2.24,1.898 0.634,0.756 1.087,1.684 1.381,2.806 0.113,0.431 0.203,0.884 0.249,1.358 h -3.1 c -0.838,0 -1.675,-0.064 -2.49,-0.15 l -0.43,0.992 c 0.951,-0.173 1.924,-0.237 2.92,-0.237 h 3.168 c 0.045,0.496 0.09,0.992 0.09,1.511 0,0.323 -0.068,0.862 -0.158,1.596 z m -0.973,3.754 c 0.181,-0.087 0.294,-0.259 0.294,-0.475 0,-0.216 -0.294,-0.345 -0.882,-0.431 -0.634,-0.712 -1.199,-1.274 -1.698,-1.662 -0.497,-0.431 -1.063,-0.82 -1.674,-1.122 -0.588,-0.324 -1.29,-0.604 -2.104,-0.863 -0.544,-0.173 -1.381,-0.389 -2.49,-0.647 l -0.271,0.517 c 1.086,0.367 1.901,0.692 2.466,0.993 0.724,0.367 1.358,0.798 1.901,1.273 0.498,0.432 0.951,0.906 1.358,1.468 0.317,0.474 0.633,1.078 0.996,1.812 z m 2.489,4.228 c 0.408,-0.064 0.634,-0.194 0.634,-0.41 0,-0.259 -0.294,-0.496 -0.883,-0.668 V 1.338 h 6.45 L 5.317,2.352 6.856,1.251 C 7.06,1.165 7.173,0.992 7.173,0.755 7.173,0.582 7.015,0.475 6.721,0.41 L 6.109,0.259 C 5.431,-0.367 4.548,-1.036 3.462,-1.77 l -0.543,0.173 c 0.588,0.842 1.041,1.618 1.358,2.352 h -15.252 c -0.136,-0.992 -0.339,-1.704 -0.611,-2.136 -0.317,-0.561 -0.679,-0.82 -1.041,-0.82 -0.588,0 -0.883,0.28 -0.883,0.842 0,0.258 0.091,0.517 0.295,0.776 0.294,0.324 0.565,0.669 0.792,1.015 0.317,0.474 0.656,1.272 1.018,2.351 l 0.543,-0.086 C -10.885,2.179 -10.907,1.726 -10.93,1.338 h 6.879 v 1.445 c 0,0.195 -0.045,0.605 -0.09,1.251 z" style="fill:#241916;fill-opacity:1;fill-rule:nonzero;stroke:none" transform="matrix(1.3333333,0,0,-1.3333333,348.64973,604.56427)"/>
    <path id="path5" d="M 0,0 H 3.621 L 4.865,1.338 6.54,0.194 c 0.181,-0.173 0.271,-0.323 0.271,-0.453 0,-0.237 -0.136,-0.345 -0.362,-0.345 H 0 c -0.837,0 -1.652,-0.065 -2.467,-0.151 L -2.919,0.259 C -1.946,0.086 -0.973,0 0,0 M 2.738,6.387 C 3.146,6.322 3.372,6.192 3.372,5.977 3.372,5.718 3.055,5.48 2.466,5.308 V 3.538 H 6.358 L 7.513,4.553 9.074,3.452 C 9.255,3.345 9.368,3.172 9.368,2.956 9.368,2.783 9.21,2.676 8.938,2.589 L 8.305,2.438 C 7.807,1.964 7.128,1.467 6.268,0.928 L 5.748,1.101 C 6.064,1.77 6.313,2.396 6.494,2.956 H -3.01 C -3.123,1.92 -3.304,1.187 -3.576,0.755 -3.87,0.237 -4.187,0 -4.503,0 c -0.589,0 -0.883,0.28 -0.883,0.842 0,0.237 0.091,0.474 0.294,0.733 0.272,0.302 0.498,0.605 0.724,0.949 0.272,0.454 0.566,1.187 0.929,2.202 l 0.52,-0.087 C -2.942,4.229 -2.964,3.862 -2.964,3.538 h 3.665 v 1.857 c 0,0.193 -0.045,0.603 -0.09,1.251 z M -1.245,-3.711 h 6.721 l 1.335,1.424 1.743,-1.208 c 0.181,-0.173 0.294,-0.324 0.294,-0.475 0,-0.216 -0.136,-0.324 -0.362,-0.324 H 3.982 v -6.084 c 0,-0.389 0.317,-0.583 0.974,-0.583 h 1.719 c 0.566,0 0.906,0.194 0.996,0.583 l 0.724,2.546 0.453,-0.086 v -2.611 c 0,-0.259 0.113,-0.453 0.339,-0.539 0.181,-0.108 0.271,-0.302 0.271,-0.561 0,-0.303 -0.158,-0.54 -0.429,-0.669 -0.611,-0.173 -1.652,-0.259 -3.1,-0.259 -1.698,0 -2.761,0.151 -3.191,0.41 -0.362,0.237 -0.521,0.626 -0.521,1.186 v 6.667 H 0.453 C 0.407,-5.566 0.271,-6.667 0,-7.595 c -0.227,-0.842 -0.566,-1.553 -1.019,-2.157 -0.407,-0.519 -1.018,-1.015 -1.832,-1.532 -0.905,-0.605 -2.195,-1.144 -3.87,-1.618 l -0.181,0.517 c 1.041,0.389 1.946,0.885 2.761,1.447 0.702,0.474 1.29,1.056 1.765,1.704 0.317,0.474 0.565,1.079 0.747,1.791 0.181,0.69 0.294,1.725 0.317,3.149 -0.815,0 -1.607,-0.064 -2.399,-0.172 l -0.43,1.014 c 0.95,-0.173 1.923,-0.259 2.896,-0.259 m -8.214,-8.933 c 0,-0.172 -0.136,-0.323 -0.407,-0.41 -0.272,-0.064 -0.543,-0.107 -0.838,-0.107 -0.361,0 -0.52,0.173 -0.52,0.517 l 0.091,3.367 V 5.222 c 0,0.539 -0.068,0.992 -0.181,1.359 l 1.855,-0.863 h 2.467 l 0.905,0.928 1.539,-1.08 c 0.203,-0.15 0.317,-0.301 0.317,-0.431 0,-0.151 -0.114,-0.259 -0.317,-0.323 L -5.205,4.639 c -0.633,-1.403 -1.448,-3.085 -2.489,-5.071 0.86,-0.517 1.584,-1.229 2.127,-2.114 0.453,-0.863 0.702,-1.683 0.702,-2.438 0,-1.187 -0.34,-2.136 -1.019,-2.848 -0.52,-0.518 -1.086,-0.776 -1.72,-0.776 -0.067,0.733 -0.248,1.122 -0.52,1.186 l -1.154,0.345 0.09,0.583 1.494,-0.173 c 0.34,0 0.611,0.173 0.792,0.518 0.226,0.388 0.362,1.014 0.362,1.855 0,0.648 -0.158,1.295 -0.475,1.985 -0.294,0.626 -0.747,1.23 -1.381,1.791 0.612,2.05 1.064,3.927 1.381,5.653 h -2.444 z" style="fill:#241916;fill-opacity:1;fill-rule:nonzero;stroke:none" transform="matrix(1.3333333,0,0,-1.3333333,379.47853,608.16067)"/>
    <path id="path6" d="m 0,0 c 1.199,-0.389 1.81,-0.819 1.81,-1.338 0,-0.603 -0.362,-0.928 -1.041,-0.928 -0.248,0 -0.543,0.13 -0.905,0.368 -1.403,0.863 -3.214,1.704 -5.476,2.588 L -5.25,1.122 C -3.056,0.799 -1.312,0.432 0,0 m -6.427,17.218 c 0.362,-0.086 0.566,-0.216 0.566,-0.432 0,-0.173 -0.136,-0.28 -0.408,-0.28 L -7.016,16.29 c -0.271,-0.346 -0.52,-0.647 -0.769,-0.928 h 7.739 l 1.154,1.014 1.562,-1.122 c 0.181,-0.086 0.294,-0.259 0.294,-0.496 0,-0.151 -0.158,-0.259 -0.43,-0.345 L 1.9,14.262 C 1.357,13.766 0.61,13.227 -0.295,12.665 l -0.543,0.173 c 0.407,0.69 0.702,1.338 0.905,1.92 h -8.395 c -0.203,-0.195 -0.385,-0.366 -0.543,-0.518 -0.543,-0.496 -1.267,-1.079 -2.218,-1.748 l -0.361,0.41 c 0.701,0.821 1.289,1.597 1.764,2.373 0.476,0.756 0.861,1.533 1.155,2.353 z m 2.625,-3.258 c 0.385,-0.087 0.588,-0.237 0.588,-0.453 0,-0.152 -0.136,-0.259 -0.385,-0.324 l -0.498,-0.108 -0.022,-0.021 c 0.475,-0.41 0.905,-0.712 1.267,-0.907 0.43,-0.258 0.883,-0.474 1.358,-0.647 0.589,-0.216 1.29,-0.367 2.082,-0.475 0.905,-0.107 1.765,-0.172 2.557,-0.215 l -0.09,-0.605 c -0.272,0 -0.521,-0.064 -0.747,-0.15 C 2.127,10.012 1.9,9.645 1.651,8.954 c -0.95,0.173 -1.764,0.389 -2.398,0.669 -0.634,0.216 -1.154,0.453 -1.584,0.755 -0.453,0.259 -0.883,0.647 -1.29,1.122 -0.317,0.302 -0.588,0.647 -0.837,1.036 C -4.82,12.062 -5.16,11.673 -5.477,11.414 -5.929,10.982 -6.473,10.637 -7.083,10.378 -7.672,10.076 -8.373,9.817 -9.143,9.602 -9.979,9.364 -10.953,9.148 -12.062,8.954 L -12.333,9.3 c 1.063,0.28 1.969,0.582 2.692,0.905 0.634,0.26 1.177,0.562 1.608,0.906 0.543,0.41 0.995,0.842 1.335,1.317 0.385,0.517 0.723,1.186 0.995,2.007 z M -2.24,3.819 H -12.853 V 2.373 H -2.24 Z m 0,2.006 H -12.853 V 4.401 H -2.24 Z m 0,2.029 H -12.853 V 6.43 H -2.24 Z m -10.614,0.583 h 10.41 L -1.358,9.45 -0.046,8.437 C 0.181,8.264 0.316,8.134 0.316,8.026 0.316,7.875 0.226,7.768 0.067,7.703 L -0.476,7.443 V 3.646 l 0.091,-1.855 c 0,-0.194 -0.113,-0.346 -0.295,-0.453 -0.18,-0.151 -0.407,-0.216 -0.678,-0.216 -0.588,0 -0.882,0.13 -0.882,0.41 V 1.791 H -12.854 V 1.705 c 0,-0.26 -0.135,-0.453 -0.384,-0.54 -0.272,-0.15 -0.543,-0.216 -0.861,-0.216 -0.407,0 -0.61,0.195 -0.61,0.583 l 0.091,2.114 V 7.94 c 0,0.734 -0.069,1.208 -0.182,1.424 z M -8.916,0.28 c 0.181,-0.15 0.294,-0.301 0.294,-0.431 0,-0.194 -0.362,-0.302 -1.041,-0.345 -1.267,-0.475 -2.557,-0.863 -3.915,-1.208 -0.815,-0.173 -2.081,-0.41 -3.779,-0.712 l -0.271,0.409 c 1.584,0.54 2.851,1.015 3.802,1.446 1.176,0.561 2.285,1.165 3.28,1.834 z m -3.146,11.544 c -1.29,-0.777 -2.76,-1.511 -4.413,-2.201 L -16.678,8.89 c -0.045,-0.195 -0.158,-0.281 -0.339,-0.281 -0.181,0 -0.295,0.108 -0.34,0.367 l -0.792,2.006 c 2.037,0.324 4.05,0.734 5.997,1.251 z m -3.349,3.538 h 1.064 l 1.222,1.251 1.606,-1.078 c 0.159,-0.151 0.249,-0.303 0.249,-0.431 0,-0.238 -0.113,-0.346 -0.339,-0.346 h -3.802 c -0.837,0 -1.674,-0.065 -2.489,-0.151 l -0.43,0.993 c 0.951,-0.173 1.924,-0.238 2.919,-0.238" style="fill:#241916;fill-opacity:1;fill-rule:nonzero;stroke:none" transform="matrix(1.3333333,0,0,-1.3333333,421.1992,622.57333)"/>
    <path id="path7" d="m 0,0 h 5.318 l 0.769,0.928 1.561,-1.209 c 0.136,-0.086 0.205,-0.216 0.205,-0.388 0,-0.194 -0.272,-0.389 -0.792,-0.604 0,-4.273 0.09,-7.272 0.271,-8.998 0.136,-1.748 0.452,-3.387 0.973,-4.897 l 1.245,3.106 0.429,-0.085 -0.791,-3.863 c 0,-0.345 0.044,-0.69 0.158,-1.036 0.068,-0.28 0.113,-0.517 0.113,-0.733 0,-0.453 -0.227,-0.691 -0.634,-0.691 -0.361,0 -0.723,0.195 -1.063,0.583 -0.408,0.388 -0.815,1.079 -1.177,2.115 -0.475,1.316 -0.814,2.869 -0.995,4.681 -0.204,2.223 -0.295,5.718 -0.295,10.487 h -3.62 v -6.3 h 0.452 l 1.132,1.165 1.516,-1.036 c 0.159,-0.129 0.248,-0.259 0.248,-0.389 0,-0.237 -0.112,-0.345 -0.338,-0.345 h -3.01 v -10.27 c 0,-0.216 -0.091,-0.388 -0.249,-0.475 -0.294,-0.086 -0.588,-0.129 -0.905,-0.129 -0.408,0 -0.611,0.129 -0.611,0.345 L 0,-14.586 v 7.056 c -0.724,0 -1.426,-0.065 -2.127,-0.152 l -0.452,1.015 C -1.72,-6.818 -0.859,-6.904 0,-6.904 v 6.3 c -0.837,0 -1.674,-0.065 -2.489,-0.152 l -0.43,1.015 C -1.969,0.086 -0.995,0 0,0 m -5.566,-12.385 h -3.372 v -3.798 h 3.372 z M -7.784,0 h 1.154 l 1.154,1.187 1.494,-1.037 c 0.18,-0.15 0.271,-0.28 0.271,-0.41 0,-0.237 -0.136,-0.344 -0.362,-0.344 h -3.711 c -0.837,0 -1.652,-0.065 -2.467,-0.152 l -0.452,1.015 C -9.73,0.086 -8.757,0 -7.784,0 m -1.154,-11.803 h 3.191 l 0.973,0.928 1.312,-0.971 c 0.227,-0.151 0.362,-0.28 0.362,-0.388 0,-0.151 -0.09,-0.259 -0.249,-0.324 l -0.543,-0.258 v -2.611 l 0.09,-1.856 c 0,-0.151 -0.112,-0.28 -0.294,-0.388 -0.18,-0.13 -0.407,-0.194 -0.678,-0.194 -0.543,0 -0.792,0.151 -0.792,0.41 v 0.669 h -3.372 v -0.842 c 0,-0.216 -0.136,-0.389 -0.385,-0.475 -0.272,-0.129 -0.543,-0.194 -0.837,-0.194 -0.339,0 -0.521,0.173 -0.543,0.518 l 0.091,2.007 v 3.473 c 0,0.669 -0.069,1.122 -0.182,1.338 z m 1.063,3.194 h 1.517 l 1.131,1.186 1.516,-1.035 c 0.158,-0.13 0.249,-0.259 0.249,-0.389 0,-0.237 -0.113,-0.344 -0.34,-0.344 h -4.073 c -0.837,0 -1.651,-0.066 -2.466,-0.173 l -0.453,1.013 c 0.974,-0.171 1.946,-0.258 2.919,-0.258 m 0,2.956 h 1.517 l 1.131,1.186 1.516,-1.035 c 0.158,-0.13 0.249,-0.281 0.249,-0.41 0,-0.216 -0.113,-0.324 -0.34,-0.324 h -4.073 c -0.837,0 -1.651,-0.065 -2.466,-0.172 l -0.453,1.013 c 0.974,-0.172 1.946,-0.258 2.919,-0.258 m -0.61,2.956 h 2.556 l 1.245,1.251 1.584,-1.078 c 0.181,-0.152 0.272,-0.303 0.272,-0.432 0,-0.237 -0.136,-0.346 -0.362,-0.346 h -5.295 c -0.838,0 -1.675,-0.064 -2.49,-0.15 l -0.429,1.014 c 0.95,-0.173 1.923,-0.259 2.919,-0.259" style="fill:#241916;fill-opacity:1;fill-rule:nonzero;stroke:none" transform="matrix(1.3333333,0,0,-1.3333333,445.02733,600.96787)"/>
    <path id="path8" d="m 0,0 c 0.453,-0.971 0.996,-1.877 1.652,-2.696 0.203,-0.259 0.43,-0.519 0.702,-0.734 0.452,0.647 0.836,1.337 1.154,2.115 0.452,0.949 0.837,2.071 1.131,3.409 H -0.634 C -0.452,1.295 -0.249,0.604 0,0 m -2.036,10.443 h 5.929 l 0.859,0.755 1.584,-0.97 C 6.518,10.055 6.607,9.903 6.607,9.774 6.607,9.58 6.54,9.473 6.427,9.429 L 5.815,9.17 C 5.68,8.264 5.454,7.357 5.137,6.43 4.843,5.523 4.48,4.898 4.073,4.574 3.644,4.272 2.987,4.121 2.104,4.121 2.037,4.855 1.833,5.265 1.517,5.395 l -1.449,0.41 0.09,0.603 2.309,-0.345 c 0.271,0 0.498,0.065 0.656,0.195 C 3.281,6.43 3.462,6.991 3.666,7.897 3.802,8.545 3.893,9.213 3.938,9.86 H -2.036 V 2.697 H 4.616 L 5.566,3.539 7.174,2.503 C 7.332,2.374 7.422,2.244 7.422,2.094 7.422,1.899 7.15,1.684 6.607,1.425 5.974,-0.259 5.408,-1.467 4.865,-2.2 4.413,-2.978 3.893,-3.668 3.35,-4.25 3.575,-4.444 3.824,-4.617 4.073,-4.746 4.798,-5.178 5.793,-5.609 7.061,-5.998 L 6.97,-6.494 C 6.54,-6.494 6.2,-6.559 5.951,-6.71 5.635,-6.817 5.341,-7.163 5.114,-7.767 4.118,-7.228 3.35,-6.71 2.761,-6.191 2.489,-5.933 2.218,-5.695 1.991,-5.437 1.72,-5.652 1.448,-5.847 1.154,-6.041 0.227,-6.602 -0.611,-7.076 -1.335,-7.508 l -0.452,0.345 c 1.38,1.036 2.421,1.855 3.099,2.546 -0.18,0.216 -0.339,0.453 -0.475,0.712 -0.588,0.971 -1.064,2.028 -1.402,3.193 -0.227,0.733 -0.43,1.684 -0.566,2.806 h -0.905 v -9.516 c 0,-0.173 -0.159,-0.323 -0.431,-0.41 -0.271,-0.064 -0.543,-0.107 -0.814,-0.107 -0.363,0 -0.543,0.172 -0.543,0.517 l 0.091,3.366 V 9.947 c 0,0.518 -0.069,0.971 -0.159,1.337 z m -5.408,-0.431 h -3.078 V 5.718 h 3.078 z m 0,-9.602 v 4.726 h -3.078 v -1.36 c 0,-1.252 -0.045,-2.374 -0.136,-3.366 z m -3.214,10.206 h 3.19 l 0.816,0.928 1.424,-0.972 c 0.182,-0.129 0.272,-0.259 0.272,-0.387 0,-0.152 -0.09,-0.259 -0.248,-0.325 L -5.748,9.516 V -5.652 c 0,-0.648 -0.339,-1.187 -1.018,-1.619 -0.588,-0.324 -1.109,-0.496 -1.561,-0.496 0,0.518 -0.069,0.841 -0.182,1.014 -0.136,0.173 -0.792,0.367 -1.945,0.583 v 0.431 h 2.489 c 0.339,0 0.521,0.13 0.521,0.431 v 5.136 h -3.282 c -0.135,-1.295 -0.362,-2.417 -0.633,-3.366 -0.476,-1.726 -1.132,-3.172 -1.992,-4.401 l -0.362,0.344 c 0.385,1.015 0.701,2.244 0.973,3.734 0.271,1.725 0.43,4.271 0.43,7.637 v 6.236 c 0,0.647 -0.023,1.186 -0.068,1.618 z" style="fill:#241916;fill-opacity:1;fill-rule:nonzero;stroke:none" transform="matrix(1.3333333,0,0,-1.3333333,481.16667,615.1228)"/>
    <path id="path9" d="m 0,0 c 0.543,-0.669 1.199,-1.294 1.991,-1.855 0.181,0.237 0.34,0.474 0.476,0.69 0.497,0.669 0.882,1.468 1.153,2.417 H -0.43 C -0.498,1.165 -0.543,1.101 -0.589,1.058 -0.407,0.647 -0.227,0.303 0,0 M 1.357,3.862 C 1.629,3.755 1.787,3.582 1.787,3.366 1.787,3.172 1.448,3.021 0.814,2.935 0.543,2.524 0.294,2.158 0.045,1.834 H 5.068 L 6.291,3.193 7.965,2.028 C 8.146,1.877 8.236,1.727 8.236,1.597 8.236,1.359 8.124,1.252 7.897,1.252 H 5.725 C 5.295,0.13 4.797,-0.798 4.231,-1.553 3.96,-1.941 3.643,-2.309 3.326,-2.632 3.802,-2.869 4.322,-3.085 4.91,-3.279 5.771,-3.581 6.97,-3.884 8.508,-4.143 l -0.09,-0.496 c -0.431,0 -0.77,-0.086 -1.019,-0.237 C 7.083,-4.983 6.788,-5.329 6.562,-5.911 5.317,-5.523 4.345,-5.135 3.62,-4.746 3.032,-4.444 2.489,-4.1 2.036,-3.732 1.991,-3.775 1.946,-3.797 1.946,-3.797 1.131,-4.38 0.227,-4.876 -0.747,-5.286 -1.946,-5.739 -3.214,-6.084 -4.571,-6.321 l -0.181,0.41 c 1.041,0.259 2.014,0.625 2.919,1.057 0.883,0.474 1.72,1.014 2.512,1.639 0.135,0.109 0.249,0.216 0.362,0.324 -0.679,0.691 -1.223,1.424 -1.606,2.201 -0.182,0.345 -0.34,0.755 -0.476,1.23 C -1.154,0.41 -1.245,0.324 -1.335,0.237 -1.833,-0.28 -2.603,-0.906 -3.599,-1.618 l -0.452,0.259 c 0.815,0.971 1.426,1.855 1.856,2.675 0.498,0.907 0.973,1.986 1.425,3.215 z m -3.009,-11.37 h 1.131 c 0.136,0.691 0.227,1.403 0.272,2.179 L 1.923,-5.631 C 2.24,-5.695 2.398,-5.825 2.398,-5.998 2.398,-6.214 2.104,-6.408 1.516,-6.58 1.426,-6.926 1.357,-7.228 1.29,-7.508 h 3.507 l 0.974,0.928 1.651,-1.231 c 0.136,-0.107 0.204,-0.237 0.204,-0.366 0,-0.13 -0.294,-0.302 -0.883,-0.518 0,-0.734 -0.136,-1.553 -0.362,-2.502 -0.203,-1.079 -0.498,-1.986 -0.882,-2.741 -0.204,-0.431 -0.498,-0.733 -0.905,-0.949 -0.407,-0.173 -1.087,-0.302 -2.015,-0.388 -0.112,0.797 -0.361,1.251 -0.724,1.359 l -1.923,0.496 0.09,0.518 2.829,-0.259 c 0.295,0 0.544,0.043 0.724,0.173 0.181,0.086 0.34,0.259 0.476,0.517 0.271,0.539 0.497,1.274 0.678,2.18 0.136,0.776 0.25,1.488 0.317,2.179 H 1.131 c -0.317,-1.014 -0.724,-1.877 -1.199,-2.589 -0.588,-0.906 -1.426,-1.77 -2.466,-2.589 -0.747,-0.54 -1.902,-1.231 -3.463,-2.05 l -0.339,0.409 c 1.538,1.015 2.602,1.77 3.168,2.331 0.928,0.906 1.606,1.92 2.014,3.085 0.18,0.432 0.362,0.907 0.498,1.403 h -0.996 c -0.837,0 -1.674,-0.065 -2.49,-0.152 l -0.429,1.015 c 0.95,-0.173 1.924,-0.259 2.919,-0.259 M -9.617,3.28 h 3.802 l 0.881,0.841 1.449,-1.316 c 0.204,-0.172 0.317,-0.324 0.317,-0.453 0,-0.172 -0.136,-0.259 -0.407,-0.259 H -4.3 C -5.386,1.058 -6.404,0.216 -7.377,-0.41 c 0.565,-0.345 0.859,-0.69 0.859,-1.035 0,-0.691 -0.294,-1.014 -0.881,-1.014 -0.272,0 -0.498,0.15 -0.703,0.475 -0.678,0.862 -1.606,1.747 -2.738,2.653 l 0.431,0.324 c 0.95,-0.389 1.72,-0.734 2.353,-1.036 0.702,0.82 1.335,1.727 1.923,2.719 h -3.484 c -0.815,0 -1.653,-0.065 -2.467,-0.152 l -0.452,1.015 c 0.973,-0.173 1.945,-0.259 2.919,-0.259 m -0.34,-5.999 h 5.001 l 0.905,0.864 1.335,-0.993 c 0.182,-0.086 0.272,-0.237 0.272,-0.453 0,-0.13 -0.136,-0.237 -0.385,-0.28 l -0.497,-0.13 c -0.567,-0.733 -1.313,-1.531 -2.218,-2.373 l -0.453,0.173 c 0.453,0.949 0.792,1.811 1.018,2.61 H -6.97 v -9.86 c 0,-0.648 -0.362,-1.187 -1.041,-1.618 -0.589,-0.324 -1.132,-0.496 -1.606,-0.496 0,0.56 -0.069,0.949 -0.204,1.122 -0.158,0.194 -0.882,0.41 -2.172,0.647 v 0.431 l 2.738,-0.172 c 0.407,0 0.61,0.129 0.61,0.432 v 6.127 c -0.656,-1.101 -1.379,-2.029 -2.171,-2.784 -0.68,-0.69 -1.359,-1.272 -2.06,-1.747 l -0.271,0.409 c 0.429,0.368 0.882,0.907 1.379,1.619 0.634,0.927 1.201,1.92 1.675,2.977 0.385,0.906 0.747,1.877 1.064,2.913 h -0.928 c -0.837,0 -1.675,-0.064 -2.489,-0.173 l -0.43,1.015 c 0.95,-0.173 1.924,-0.26 2.919,-0.26" style="fill:#241916;fill-opacity:1;fill-rule:nonzero;stroke:none" transform="matrix(1.3333333,0,0,-1.3333333,513.59373,605.3416)"/>
    <path id="path10" d="m 0,0 h 2.037 l 0.792,0.842 1.335,-0.906 c 0.158,-0.108 0.249,-0.238 0.249,-0.368 0,-0.129 -0.091,-0.215 -0.226,-0.28 L 3.621,-1.014 v -2.61 c 0,-0.173 0.091,-0.26 0.272,-0.26 h 0.769 c 0.158,0 0.272,0.023 0.339,0.066 0.091,0.043 0.317,0.712 0.656,1.963 l 0.431,-0.086 v -1.511 c 0,-0.259 0.136,-0.475 0.43,-0.625 0.135,-0.13 0.203,-0.281 0.203,-0.475 0,-0.26 -0.136,-0.453 -0.408,-0.561 C 5.906,-5.242 5.521,-5.308 5.114,-5.308 H 3.463 c -0.498,0 -0.883,0.109 -1.109,0.346 -0.226,0.237 -0.317,0.648 -0.317,1.251 v 3.129 H 0.182 v -0.863 c 0,-1.035 -0.272,-1.834 -0.792,-2.439 -0.476,-0.603 -1.223,-1.165 -2.218,-1.682 l -0.453,0.345 c 0.656,0.409 1.132,0.863 1.403,1.337 0.362,0.648 0.543,1.446 0.543,2.439 0,1.079 -0.067,1.812 -0.158,2.201 z m -6.97,-2.978 c 0.204,-0.366 0.453,-0.69 0.725,-0.992 0.136,0.238 0.294,0.496 0.43,0.777 0.384,0.69 0.769,1.51 1.131,2.438 h -2.602 c -0.136,-0.237 -0.249,-0.453 -0.362,-0.647 0.158,-0.539 0.384,-1.057 0.678,-1.576 M 0.611,6.732 2.422,5.696 C 2.625,5.589 2.738,5.459 2.738,5.308 2.738,5.092 2.603,4.984 2.376,4.963 L -3.62,4.445 V 3.884 c 0,-0.432 0.271,-0.669 0.814,-0.755 0.543,-0.13 1.607,-0.173 3.213,-0.173 1.562,0 2.558,0.022 3.01,0.108 0.362,0.043 0.611,0.151 0.747,0.324 l 0.792,1.575 h 0.34 V 3.884 C 5.296,3.625 5.408,3.431 5.657,3.28 5.839,3.129 5.929,2.913 5.929,2.611 5.929,2.374 5.771,2.201 5.499,2.093 5.228,1.921 4.775,1.812 4.096,1.727 3.281,1.64 2.082,1.597 0.498,1.597 c -1.855,0 -3.123,0.065 -3.847,0.215 -0.633,0.043 -1.108,0.238 -1.425,0.562 -0.317,0.302 -0.453,0.712 -0.453,1.251 v 0.669 l -2.987,-0.259 -1.244,-0.41 -0.453,0.928 1.403,0.021 3.281,0.302 v 0.26 c 0,0.862 -0.022,1.381 -0.068,1.596 L -3.19,6.495 C -2.896,6.43 -2.737,6.322 -2.737,6.149 -2.737,5.998 -2.873,5.869 -3.1,5.782 L -3.62,5.48 V 5.027 l 3.349,0.325 z M -6.154,1.77 c 0.316,-0.086 0.497,-0.216 0.497,-0.432 0,-0.216 -0.294,-0.366 -0.882,-0.496 -0.136,-0.346 -0.295,-0.691 -0.453,-1.014 h 2.127 l 1.063,1.014 1.675,-1.144 c 0.182,-0.13 0.272,-0.237 0.272,-0.367 0,-0.172 -0.362,-0.366 -1.064,-0.603 -0.52,-1.101 -1.019,-2.029 -1.516,-2.805 -0.249,-0.346 -0.498,-0.648 -0.769,-0.928 0.181,-0.173 0.385,-0.303 0.588,-0.41 0.543,-0.346 1.154,-0.583 1.879,-0.69 0.859,-0.216 4.185,-0.303 9.978,-0.303 V -6.99 C 6.744,-7.055 6.473,-7.12 6.404,-7.206 6.178,-7.292 5.997,-7.681 5.839,-8.35 c -4.934,0 -7.92,0.195 -8.961,0.583 -0.951,0.302 -1.766,0.755 -2.422,1.359 -0.203,0.173 -0.385,0.346 -0.52,0.54 l -0.045,-0.043 c -0.679,-0.583 -1.449,-1.036 -2.263,-1.425 -0.838,-0.453 -1.969,-0.884 -3.395,-1.272 l -0.249,0.431 c 1.607,0.691 2.806,1.317 3.576,1.92 0.588,0.432 1.086,0.928 1.539,1.467 -0.249,0.367 -0.453,0.756 -0.634,1.144 -0.227,0.518 -0.407,1.057 -0.543,1.596 -0.068,-0.107 -0.136,-0.216 -0.204,-0.302 -0.588,-0.754 -1.335,-1.466 -2.24,-2.114 l -0.362,0.41 c 0.566,0.647 1.086,1.489 1.538,2.503 0.453,0.971 0.861,2.222 1.223,3.733 z m 3.145,9.321 c 0.362,-0.066 0.543,-0.195 0.543,-0.389 0,-0.173 -0.113,-0.28 -0.317,-0.367 L -3.19,10.119 V 9.516 h 4.164 l 1.244,1.272 1.584,-1.1 C 3.983,9.537 4.073,9.407 4.073,9.278 4.073,9.041 3.938,8.933 3.712,8.933 H -3.19 V 7.573 H 3.893 L 5.047,8.588 6.585,7.487 C 6.789,7.4 6.902,7.229 6.902,6.991 6.902,6.818 6.744,6.71 6.449,6.646 L 5.839,6.495 C 5.318,5.998 4.64,5.459 3.802,4.876 L 3.259,5.049 c 0.34,0.712 0.589,1.359 0.769,1.942 H -10.341 V 1.597 c 0,-2.589 -0.362,-4.682 -1.041,-6.322 -0.634,-1.467 -1.493,-2.718 -2.58,-3.797 l -0.361,0.431 c 0.588,0.863 1.086,1.92 1.47,3.172 0.43,1.467 0.657,3.625 0.657,6.516 v 5.307 c 0,0.734 -0.069,1.317 -0.182,1.77 l 1.924,-1.101 h 5.499 v 2.633 c 0,0.345 -0.046,0.733 -0.091,1.165 z" style="fill:#241916;fill-opacity:1;fill-rule:nonzero;stroke:none" transform="matrix(1.3333333,0,0,-1.3333333,548.1028,614.23093)"/>
    <path id="path11" d="M 0,0 -2.036,-5.21 H 2.023 Z M -1.483,4.023 H 1.446 L 7.283,-11.151 H 4.281 l -1.187,3.126 h -6.192 l -1.235,-3.126 h -3.001 z" style="fill:#241916;fill-opacity:1;fill-rule:nonzero;stroke:none" transform="matrix(1.3333333,0,0,-1.3333333,273.83013,645.01867)"/>
    <path id="path12" d="m 0,0 -2.02,-1.926 c -1.374,1.452 -2.92,2.179 -4.638,2.179 -1.45,0 -2.671,-0.496 -3.664,-1.487 -0.993,-0.992 -1.49,-2.213 -1.49,-3.666 0,-1.012 0.221,-1.911 0.66,-2.695 0.44,-0.785 1.062,-1.401 1.866,-1.848 0.804,-0.448 1.697,-0.671 2.68,-0.671 0.838,0 1.604,0.156 2.298,0.469 0.694,0.313 1.456,0.883 2.288,1.709 l 1.958,-2.043 c -1.121,-1.094 -2.18,-1.853 -3.177,-2.276 -0.997,-0.423 -2.136,-0.635 -3.414,-0.635 -2.359,0 -4.29,0.748 -5.793,2.244 -1.502,1.496 -2.254,3.413 -2.254,5.751 0,1.513 0.342,2.858 1.027,4.034 0.684,1.175 1.664,2.121 2.94,2.837 1.275,0.714 2.649,1.072 4.121,1.072 1.251,0 2.457,-0.264 3.615,-0.793 C -1.838,1.727 -0.839,0.975 0,0" style="fill:#241916;fill-opacity:1;fill-rule:nonzero;stroke:none" transform="matrix(1.3333333,0,0,-1.3333333,305.11387,643.21013)"/>
    <path id="path13" d="M 0,0 -2.036,-5.21 H 2.023 Z M -1.483,4.023 H 1.446 L 7.283,-11.151 H 4.281 l -1.187,3.126 h -6.192 l -1.235,-3.126 h -3.001 z" style="fill:#241916;fill-opacity:1;fill-rule:nonzero;stroke:none" transform="matrix(1.3333333,0,0,-1.3333333,316.63347,645.01867)"/>
    <path id="path14" d="m 0,0 v -9.572 h 1.341 c 1.32,0 2.278,0.151 2.873,0.454 0.595,0.303 1.081,0.812 1.459,1.528 0.378,0.716 0.568,1.598 0.568,2.644 0,1.611 -0.451,2.86 -1.352,3.749 C 4.078,-0.399 2.775,0 0.98,0 Z M -2.868,2.786 H 0.554 C 2.76,2.786 4.398,2.513 5.47,1.966 6.542,1.419 7.425,0.53 8.119,-0.701 8.813,-1.933 9.16,-3.369 9.16,-5.013 9.16,-6.183 8.966,-7.257 8.578,-8.236 8.189,-9.217 7.653,-10.03 6.97,-10.677 6.286,-11.323 5.546,-11.77 4.749,-12.018 3.952,-12.265 2.571,-12.389 0.605,-12.389 h -3.473 z" style="fill:#241916;fill-opacity:1;fill-rule:nonzero;stroke:none" transform="matrix(1.3333333,0,0,-1.3333333,333.1588,643.36893)"/>
    <path id="path15" d="M 0,0 H 8.284 V -2.827 H 2.868 V -5.571 H 8.284 V -8.346 H 2.868 v -3.992 h 5.416 v -2.837 H 0 Z" style="fill:#241916;fill-opacity:1;fill-rule:nonzero;stroke:none" transform="matrix(1.3333333,0,0,-1.3333333,349.058,639.65413)"/>
    <path id="path16" d="M 0,0 H 2.814 L 6.332,-10.584 9.881,0 h 2.813 l 2.545,-15.175 h -2.793 l -1.627,9.583 -3.224,-9.583 H 5.05 l -3.195,9.583 -1.666,-9.583 h -2.816 z" style="fill:#241916;fill-opacity:1;fill-rule:nonzero;stroke:none" transform="matrix(1.3333333,0,0,-1.3333333,365.6556,639.65413)"/>
    <path id="path17" d="m 291.575,362.149 h 2.868 v -15.175 h -2.868 z" style="fill:#241916;fill-opacity:1;fill-rule:nonzero;stroke:none" transform="matrix(1.3333333,0,0,-1.3333333,0,1122.52)"/>
    <path id="path18" d="M 0,0 -2.035,-5.21 H 2.023 Z M -1.482,4.023 H 1.447 L 7.283,-11.151 H 4.281 l -1.187,3.126 h -6.192 l -1.234,-3.126 h -3.002 z" style="fill:#241916;fill-opacity:1;fill-rule:nonzero;stroke:none" transform="matrix(1.3333333,0,0,-1.3333333,405.07293,645.01867)"/>
    <path id="path19" d="m 0,0 -2.139,-1.888 c -0.751,1.045 -1.515,1.568 -2.294,1.568 -0.379,0 -0.689,-0.102 -0.93,-0.304 -0.241,-0.203 -0.362,-0.432 -0.362,-0.687 0,-0.253 0.086,-0.495 0.258,-0.721 0.235,-0.303 0.941,-0.953 2.119,-1.95 1.102,-0.921 1.77,-1.502 2.004,-1.744 0.586,-0.59 1.001,-1.157 1.245,-1.696 0.245,-0.54 0.368,-1.13 0.368,-1.769 0,-1.246 -0.431,-2.274 -1.291,-3.084 -0.861,-0.812 -1.983,-1.218 -3.367,-1.218 -1.081,0 -2.022,0.264 -2.824,0.795 -0.803,0.529 -1.489,1.361 -2.06,2.496 l 2.427,1.465 c 0.731,-1.341 1.571,-2.012 2.522,-2.012 0.495,0 0.912,0.145 1.25,0.434 0.337,0.288 0.506,0.622 0.506,1 0,0.343 -0.127,0.687 -0.382,1.032 -0.255,0.344 -0.817,0.869 -1.685,1.578 -1.653,1.348 -2.721,2.388 -3.203,3.12 -0.482,0.732 -0.724,1.463 -0.724,2.192 0,1.052 0.402,1.955 1.204,2.708 0.801,0.753 1.792,1.129 2.969,1.129 0.757,0 1.479,-0.174 2.163,-0.525 C -1.54,1.567 -0.799,0.929 0,0" style="fill:#241916;fill-opacity:1;fill-rule:nonzero;stroke:none" transform="matrix(1.3333333,0,0,-1.3333333,444.14067,642.40547)"/>
    <path id="path20" d="m 335.922,362.149 h 2.868 v -15.175 h -2.868 z" style="fill:#241916;fill-opacity:1;fill-rule:nonzero;stroke:none" transform="matrix(1.3333333,0,0,-1.3333333,0,1122.52)"/>
    <path id="path21" d="M 0,0 H 2.771 L 9.264,-9.986 V 0 h 2.888 V -15.175 H 9.373 L 2.889,-5.22 v -9.955 H 0 Z" style="fill:#241916;fill-opacity:1;fill-rule:nonzero;stroke:none" transform="matrix(1.3333333,0,0,-1.3333333,456.0664,639.65413)"/>
    <path id="path22" d="m 357.461,362.149 h 2.868 v -15.175 h -2.868 z" style="fill:#241916;fill-opacity:1;fill-rule:nonzero;stroke:none" transform="matrix(1.3333333,0,0,-1.3333333,0,1122.52)"/>
    <path id="path23" d="m 0,0 -2.02,-1.926 c -1.375,1.452 -2.92,2.179 -4.638,2.179 -1.449,0 -2.671,-0.496 -3.664,-1.487 -0.992,-0.992 -1.49,-2.213 -1.49,-3.666 0,-1.012 0.22,-1.911 0.661,-2.695 0.439,-0.785 1.061,-1.401 1.865,-1.848 0.804,-0.448 1.697,-0.671 2.68,-0.671 0.837,0 1.604,0.156 2.297,0.469 0.695,0.313 1.457,0.883 2.289,1.709 l 1.958,-2.043 c -1.121,-1.094 -2.18,-1.853 -3.177,-2.276 -0.997,-0.423 -2.135,-0.635 -3.414,-0.635 -2.36,0 -4.29,0.748 -5.792,2.244 -1.503,1.496 -2.254,3.413 -2.254,5.751 0,1.513 0.342,2.858 1.026,4.034 0.684,1.175 1.664,2.121 2.94,2.837 1.275,0.714 2.649,1.072 4.121,1.072 1.252,0 2.457,-0.264 3.615,-0.793 C -1.838,1.727 -0.839,0.975 0,0" style="fill:#241916;fill-opacity:1;fill-rule:nonzero;stroke:none" transform="matrix(1.3333333,0,0,-1.3333333,503.3672,643.21013)"/>
    <path id="path24" d="M 0,0 -2.035,-5.21 H 2.024 Z M -1.482,4.023 H 1.447 L 7.283,-11.151 H 4.281 l -1.187,3.126 h -6.192 l -1.234,-3.126 h -3.002 z" style="fill:#241916;fill-opacity:1;fill-rule:nonzero;stroke:none" transform="matrix(1.3333333,0,0,-1.3333333,514.88547,645.01867)"/>
    <path id="path25" d="M 0,0 H 1.754 C 3.852,0 5.306,0.131 6.117,0.392 7.259,0.763 8.156,1.431 8.81,2.396 9.463,3.362 9.79,4.542 9.79,5.937 9.79,7.4 9.436,8.651 8.727,9.688 8.019,10.727 7.032,11.438 5.767,11.822 4.818,12.111 3.253,12.255 1.073,12.255 H 0 Z m -1.454,-1.434 v 15.175 h 3.146 c 2.269,0 3.916,-0.182 4.941,-0.547 1.472,-0.516 2.622,-1.41 3.451,-2.682 0.829,-1.273 1.243,-2.788 1.243,-4.549 0,-1.521 -0.328,-2.858 -0.985,-4.013 C 9.685,0.795 8.832,-0.059 7.783,-0.608 6.734,-1.158 5.265,-1.434 3.374,-1.434 Z" style="fill:#241916;fill-opacity:1;fill-rule:nonzero;stroke:none" transform="matrix(1.3333333,0,0,-1.3333333,215.39453,689.4848)"/>
    <path id="path26" d="M 0,0 C -0.193,0.771 -0.474,1.386 -0.842,1.847 -1.21,2.308 -1.698,2.679 -2.304,2.961 -2.91,3.243 -3.546,3.384 -4.214,3.384 -5.316,3.384 -6.263,3.029 -7.055,2.321 -7.633,1.806 -8.07,1.032 -8.366,0 Z m 0,-3.022 1.217,-0.64 C 0.818,-4.445 0.356,-5.078 -0.167,-5.56 -0.69,-6.041 -1.278,-6.407 -1.932,-6.658 c -0.654,-0.251 -1.394,-0.377 -2.22,-0.377 -1.831,0 -3.263,0.6 -4.295,1.801 -1.033,1.199 -1.549,2.555 -1.549,4.069 0,1.423 0.437,2.692 1.311,3.807 1.108,1.416 2.592,2.125 4.45,2.125 1.914,0 3.442,-0.726 4.585,-2.177 C 1.162,1.564 1.575,0.285 1.588,-1.248 H -8.511 c 0.028,-1.304 0.445,-2.372 1.25,-3.206 0.805,-0.833 1.801,-1.25 2.985,-1.25 0.571,0 1.127,0.1 1.668,0.298 0.54,0.198 1,0.463 1.379,0.791 0.378,0.329 0.788,0.86 1.229,1.593" style="fill:#241916;fill-opacity:1;fill-rule:nonzero;stroke:none" transform="matrix(1.3333333,0,0,-1.3333333,246.69987,682.40147)"/>
    <path id="path27" d="m 0,0 c -1.249,0 -2.3,-0.437 -3.155,-1.31 -0.854,-0.872 -1.281,-1.957 -1.281,-3.255 0,-0.852 0.19,-1.618 0.571,-2.298 0.381,-0.68 0.927,-1.219 1.636,-1.617 0.711,-0.399 1.46,-0.598 2.25,-0.598 0.775,0 1.504,0.201 2.187,0.602 0.682,0.403 1.226,0.964 1.631,1.685 0.405,0.722 0.607,1.477 0.607,2.268 0,0.795 -0.201,1.551 -0.602,2.266 C 3.442,-1.543 2.902,-0.988 2.223,-0.593 1.544,-0.198 0.803,0 0,0 m -5.777,1.104 h 1.444 V -0.96 c 0.571,0.784 1.227,1.372 1.969,1.764 0.741,0.392 1.57,0.589 2.483,0.589 1.594,0 2.958,-0.576 4.091,-1.723 1.134,-1.149 1.701,-2.531 1.701,-4.148 0,-1.65 -0.562,-3.051 -1.685,-4.203 -1.123,-1.152 -2.478,-1.728 -4.065,-1.728 -0.894,0 -1.715,0.185 -2.464,0.557 -0.748,0.372 -1.425,0.925 -2.03,1.661 v -6.035 h -1.444 z" style="fill:#241916;fill-opacity:1;fill-rule:nonzero;stroke:none" transform="matrix(1.3333333,0,0,-1.3333333,260.13733,677.9028)"/>
    <path id="path28" d="m 0,0 c -0.804,0 -1.546,-0.198 -2.226,-0.593 -0.68,-0.395 -1.221,-0.95 -1.623,-1.664 -0.401,-0.715 -0.603,-1.471 -0.603,-2.266 0,-0.791 0.203,-1.546 0.608,-2.268 0.406,-0.721 0.95,-1.282 1.634,-1.685 0.683,-0.401 1.416,-0.602 2.199,-0.602 0.79,0 1.539,0.199 2.247,0.598 0.707,0.398 1.251,0.937 1.633,1.617 0.381,0.68 0.571,1.446 0.571,2.298 0,1.298 -0.427,2.383 -1.282,3.255 C 2.303,-0.437 1.25,0 0,0 M 5.771,1.104 V -10.12 H 4.348 v 1.929 C 3.743,-8.927 3.063,-9.48 2.311,-9.852 c -0.753,-0.372 -1.577,-0.557 -2.471,-0.557 -1.589,0 -2.945,0.576 -4.069,1.728 -1.125,1.152 -1.687,2.553 -1.687,4.203 0,1.617 0.567,2.999 1.702,4.148 1.134,1.147 2.5,1.723 4.095,1.723 0.922,0 1.755,-0.197 2.502,-0.589 0.746,-0.392 1.401,-0.98 1.965,-1.764 v 2.064 z" style="fill:#241916;fill-opacity:1;fill-rule:nonzero;stroke:none" transform="matrix(1.3333333,0,0,-1.3333333,278.83653,677.9028)"/>
    <path id="path29" d="m 0,0 h 1.475 v -1.641 c 0.44,0.647 0.904,1.13 1.393,1.45 0.488,0.32 0.997,0.48 1.527,0.48 0.398,0 0.825,-0.128 1.279,-0.382 L 4.92,-1.311 C 4.618,-1.18 4.364,-1.114 4.157,-1.114 3.676,-1.114 3.211,-1.312 2.765,-1.707 2.317,-2.103 1.977,-2.717 1.743,-3.549 1.564,-4.188 1.475,-5.481 1.475,-7.428 v -3.796 H 0 Z" style="fill:#241916;fill-opacity:1;fill-rule:nonzero;stroke:none" transform="matrix(1.3333333,0,0,-1.3333333,290.13547,676.43147)"/>
    <path id="path30" d="m 0,0 h 1.444 v -4.167 h 2.29 v -1.248 h -2.29 v -9.976 H 0 v 9.976 h -1.97 v 1.248 H 0 Z" style="fill:#241916;fill-opacity:1;fill-rule:nonzero;stroke:none" transform="matrix(1.3333333,0,0,-1.3333333,301.01427,670.87547)"/>
    <path id="path31" d="m 0,0 h 1.444 v -1.939 c 0.503,0.714 1.019,1.237 1.549,1.568 0.73,0.439 1.498,0.66 2.303,0.66 0.544,0 1.06,-0.107 1.549,-0.32 0.489,-0.213 0.888,-0.497 1.198,-0.851 0.31,-0.354 0.579,-0.861 0.806,-1.521 0.48,0.88 1.08,1.549 1.801,2.006 0.72,0.457 1.496,0.686 2.326,0.686 0.775,0 1.459,-0.196 2.053,-0.589 0.593,-0.391 1.034,-0.938 1.322,-1.639 0.288,-0.702 0.432,-1.754 0.432,-3.157 v -6.128 h -1.475 v 6.128 c 0,1.203 -0.085,2.031 -0.257,2.481 -0.171,0.45 -0.464,0.813 -0.879,1.088 -0.415,0.275 -0.91,0.413 -1.485,0.413 -0.7,0 -1.339,-0.206 -1.918,-0.619 C 10.189,-2.146 9.766,-2.696 9.499,-3.384 9.232,-4.071 9.098,-5.22 9.098,-6.829 v -4.395 H 7.654 v 5.746 c 0,1.355 -0.084,2.275 -0.253,2.759 C 7.233,-2.233 6.938,-1.845 6.52,-1.553 6.1,-1.261 5.601,-1.114 5.023,-1.114 4.356,-1.114 3.732,-1.315 3.151,-1.718 2.57,-2.12 2.14,-2.662 1.862,-3.343 1.583,-4.023 1.444,-5.065 1.444,-6.468 v -4.756 H 0 Z" style="fill:#241916;fill-opacity:1;fill-rule:nonzero;stroke:none" transform="matrix(1.3333333,0,0,-1.3333333,308.86853,676.43147)"/>
    <path id="path32" d="M 0,0 C -0.193,0.771 -0.474,1.386 -0.842,1.847 -1.21,2.308 -1.698,2.679 -2.304,2.961 -2.91,3.243 -3.546,3.384 -4.214,3.384 -5.316,3.384 -6.263,3.029 -7.055,2.321 -7.633,1.806 -8.07,1.032 -8.366,0 Z m 0,-3.022 1.217,-0.64 C 0.818,-4.445 0.356,-5.078 -0.167,-5.56 -0.69,-6.041 -1.278,-6.407 -1.932,-6.658 c -0.654,-0.251 -1.394,-0.377 -2.22,-0.377 -1.831,0 -3.263,0.6 -4.295,1.801 -1.033,1.199 -1.549,2.555 -1.549,4.069 0,1.423 0.437,2.692 1.311,3.807 1.108,1.416 2.592,2.125 4.45,2.125 1.914,0 3.442,-0.726 4.585,-2.177 C 1.162,1.564 1.575,0.285 1.588,-1.248 H -8.511 c 0.028,-1.304 0.445,-2.372 1.25,-3.206 0.805,-0.833 1.801,-1.25 2.985,-1.25 0.571,0 1.127,0.1 1.668,0.298 0.54,0.198 1,0.463 1.379,0.791 0.378,0.329 0.788,0.86 1.229,1.593" style="fill:#241916;fill-opacity:1;fill-rule:nonzero;stroke:none" transform="matrix(1.3333333,0,0,-1.3333333,347.90293,682.40147)"/>
    <path id="path33" d="m 0,0 h 1.444 v -2.012 c 0.578,0.771 1.217,1.346 1.919,1.728 0.701,0.382 1.465,0.573 2.29,0.573 0.839,0 1.583,-0.214 2.233,-0.64 0.65,-0.426 1.13,-1.001 1.439,-1.722 0.31,-0.723 0.465,-1.847 0.465,-3.374 v -5.777 H 8.345 v 5.354 c 0,1.293 -0.053,2.156 -0.16,2.59 -0.168,0.742 -0.489,1.301 -0.963,1.676 -0.475,0.375 -1.094,0.562 -1.857,0.562 -0.874,0 -1.657,-0.289 -2.347,-0.866 C 2.326,-2.486 1.871,-3.201 1.65,-4.055 1.513,-4.611 1.444,-5.629 1.444,-7.107 v -4.117 H 0 Z" style="fill:#241916;fill-opacity:1;fill-rule:nonzero;stroke:none" transform="matrix(1.3333333,0,0,-1.3333333,353.61067,676.43147)"/>
    <path id="path34" d="m 0,0 h 1.444 v -4.167 h 2.29 v -1.248 h -2.29 v -9.976 H 0 v 9.976 h -1.97 v 1.248 H 0 Z" style="fill:#241916;fill-opacity:1;fill-rule:nonzero;stroke:none" transform="matrix(1.3333333,0,0,-1.3333333,372.46747,670.87547)"/>
    <path id="path35" d="m 0,0 c -1.201,0 -2.232,-0.443 -3.095,-1.33 -0.863,-0.888 -1.294,-1.96 -1.294,-3.219 0,-0.811 0.197,-1.568 0.59,-2.269 0.393,-0.702 0.924,-1.244 1.594,-1.625 0.669,-0.381 1.405,-0.573 2.205,-0.573 0.801,0 1.536,0.192 2.205,0.573 0.67,0.381 1.201,0.923 1.594,1.625 0.394,0.701 0.59,1.458 0.59,2.269 0,1.259 -0.432,2.331 -1.299,3.219 C 2.224,-0.443 1.194,0 0,0 m 0.005,1.414 c 1.729,0 3.162,-0.626 4.299,-1.878 1.033,-1.141 1.55,-2.493 1.55,-4.054 0,-1.568 -0.546,-2.938 -1.638,-4.111 -1.091,-1.172 -2.495,-1.759 -4.211,-1.759 -1.722,0 -3.129,0.587 -4.221,1.759 -1.092,1.173 -1.638,2.543 -1.638,4.111 0,1.554 0.517,2.902 1.55,4.043 1.137,1.259 2.573,1.889 4.309,1.889" style="fill:#241916;fill-opacity:1;fill-rule:nonzero;stroke:none" transform="matrix(1.3333333,0,0,-1.3333333,395.21027,677.93147)"/>
    <path id="path36" d="m 0,0 v -1.413 c -0.529,0.227 -0.983,0.341 -1.361,0.341 -0.283,0 -0.516,-0.057 -0.702,-0.171 -0.186,-0.113 -0.302,-0.244 -0.351,-0.392 -0.048,-0.147 -0.072,-0.541 -0.072,-1.18 l -10e-4,-1.517 h 2.342 V -5.58 h -2.343 l -0.008,-9.976 H -3.94 v 9.976 h -1.476 v 1.248 h 1.476 v 1.754 c 0,0.804 0.074,1.378 0.221,1.723 0.148,0.343 0.399,0.62 0.753,0.83 0.355,0.21 0.782,0.314 1.284,0.314 C -1.214,0.289 -0.653,0.192 0,0" style="fill:#241916;fill-opacity:1;fill-rule:nonzero;stroke:none" transform="matrix(1.3333333,0,0,-1.3333333,412.7396,670.65547)"/>
    <path id="path37" d="m 317.437,338.518 h 1.517 v -15.175 h -1.517 z" style="fill:#241916;fill-opacity:1;fill-rule:nonzero;stroke:none" transform="matrix(1.3333333,0,0,-1.3333333,0,1122.52)"/>
    <path id="path38" d="m 0,0 h 1.444 v -2.012 c 0.577,0.771 1.217,1.346 1.918,1.728 0.702,0.382 1.465,0.573 2.291,0.573 0.839,0 1.583,-0.214 2.233,-0.64 0.65,-0.426 1.13,-1.001 1.439,-1.722 0.31,-0.723 0.464,-1.847 0.464,-3.374 v -5.777 H 8.346 v 5.354 c 0,1.293 -0.054,2.156 -0.161,2.59 -0.167,0.742 -0.489,1.301 -0.963,1.676 -0.475,0.375 -1.094,0.562 -1.858,0.562 -0.873,0 -1.655,-0.289 -2.346,-0.866 C 2.326,-2.486 1.87,-3.201 1.65,-4.055 1.513,-4.611 1.444,-5.629 1.444,-7.107 v -4.117 H 0 Z" style="fill:#241916;fill-opacity:1;fill-rule:nonzero;stroke:none" transform="matrix(1.3333333,0,0,-1.3333333,429.58853,676.43147)"/>
    <path id="path39" d="m 0,0 v -1.413 c -0.529,0.227 -0.983,0.341 -1.361,0.341 -0.283,0 -0.516,-0.057 -0.702,-0.171 -0.186,-0.113 -0.302,-0.244 -0.351,-0.392 -0.048,-0.147 -0.072,-0.541 -0.072,-1.18 l -10e-4,-1.517 h 2.342 V -5.58 h -2.343 l -0.008,-9.976 H -3.94 v 9.976 h -1.476 v 1.248 h 1.476 v 1.754 c 0,0.804 0.074,1.378 0.221,1.723 0.148,0.343 0.399,0.62 0.753,0.83 0.355,0.21 0.782,0.314 1.284,0.314 C -1.214,0.289 -0.653,0.192 0,0" style="fill:#241916;fill-opacity:1;fill-rule:nonzero;stroke:none" transform="matrix(1.3333333,0,0,-1.3333333,452.92973,670.65547)"/>
    <path id="path40" d="m 0,0 c -1.201,0 -2.233,-0.443 -3.096,-1.33 -0.862,-0.888 -1.294,-1.96 -1.294,-3.219 0,-0.811 0.197,-1.568 0.59,-2.269 0.394,-0.702 0.925,-1.244 1.595,-1.625 0.669,-0.381 1.404,-0.573 2.205,-0.573 0.8,0 1.535,0.192 2.205,0.573 0.669,0.381 1.2,0.923 1.594,1.625 0.393,0.701 0.59,1.458 0.59,2.269 0,1.259 -0.433,2.331 -1.299,3.219 C 2.224,-0.443 1.193,0 0,0 m 0.005,1.414 c 1.729,0 3.162,-0.626 4.299,-1.878 1.033,-1.141 1.55,-2.493 1.55,-4.054 0,-1.568 -0.546,-2.938 -1.638,-4.111 -1.092,-1.172 -2.496,-1.759 -4.211,-1.759 -1.723,0 -3.13,0.587 -4.222,1.759 -1.092,1.173 -1.637,2.543 -1.637,4.111 0,1.554 0.516,2.902 1.549,4.043 1.137,1.259 2.574,1.889 4.31,1.889" style="fill:#241916;fill-opacity:1;fill-rule:nonzero;stroke:none" transform="matrix(1.3333333,0,0,-1.3333333,462.6888,677.93147)"/>
    <path id="path41" d="m 0,0 h 1.476 v -1.641 c 0.439,0.647 0.903,1.13 1.392,1.45 0.488,0.32 0.997,0.48 1.527,0.48 0.398,0 0.825,-0.128 1.279,-0.382 L 4.921,-1.311 C 4.618,-1.18 4.363,-1.114 4.157,-1.114 3.676,-1.114 3.212,-1.312 2.765,-1.707 2.317,-2.103 1.978,-2.717 1.743,-3.549 1.564,-4.188 1.476,-5.481 1.476,-7.428 v -3.796 H 0 Z" style="fill:#241916;fill-opacity:1;fill-rule:nonzero;stroke:none" transform="matrix(1.3333333,0,0,-1.3333333,473.3268,676.43147)"/>
    <path id="path42" d="m 0,0 h 1.444 v -1.939 c 0.503,0.714 1.019,1.237 1.549,1.568 0.731,0.439 1.498,0.66 2.304,0.66 0.544,0 1.059,-0.107 1.549,-0.32 0.489,-0.213 0.888,-0.497 1.198,-0.851 0.31,-0.354 0.578,-0.861 0.806,-1.521 0.479,0.88 1.08,1.549 1.8,2.006 0.721,0.457 1.496,0.686 2.327,0.686 0.774,0 1.459,-0.196 2.052,-0.589 0.594,-0.391 1.034,-0.938 1.323,-1.639 0.288,-0.702 0.432,-1.754 0.432,-3.157 v -6.128 h -1.475 v 6.128 c 0,1.203 -0.086,2.031 -0.257,2.481 -0.172,0.45 -0.465,0.813 -0.879,1.088 -0.415,0.275 -0.91,0.413 -1.486,0.413 -0.7,0 -1.338,-0.206 -1.917,-0.619 C 10.19,-2.146 9.767,-2.696 9.5,-3.384 9.232,-4.071 9.099,-5.22 9.099,-6.829 v -4.395 H 7.654 v 5.746 c 0,1.355 -0.084,2.275 -0.253,2.759 -0.168,0.486 -0.462,0.874 -0.881,1.166 -0.419,0.292 -0.918,0.439 -1.496,0.439 -0.668,0 -1.292,-0.201 -1.873,-0.604 C 2.57,-2.12 2.141,-2.662 1.862,-3.343 1.584,-4.023 1.444,-5.065 1.444,-6.468 v -4.756 H 0 Z" style="fill:#241916;fill-opacity:1;fill-rule:nonzero;stroke:none" transform="matrix(1.3333333,0,0,-1.3333333,483.29813,676.43147)"/>
    <path id="path43" d="m 0,0 c -0.804,0 -1.545,-0.198 -2.226,-0.593 -0.679,-0.395 -1.22,-0.95 -1.623,-1.664 -0.401,-0.715 -0.602,-1.471 -0.602,-2.266 0,-0.791 0.203,-1.546 0.608,-2.268 0.405,-0.721 0.949,-1.282 1.633,-1.685 0.684,-0.401 1.417,-0.602 2.2,-0.602 0.79,0 1.538,0.199 2.246,0.598 0.707,0.398 1.252,0.937 1.633,1.617 0.381,0.68 0.572,1.446 0.572,2.298 0,1.298 -0.427,2.383 -1.283,3.255 C 2.303,-0.437 1.25,0 0,0 M 5.771,1.104 V -10.12 H 4.349 v 1.929 C 3.743,-8.927 3.064,-9.48 2.311,-9.852 c -0.753,-0.372 -1.577,-0.557 -2.47,-0.557 -1.589,0 -2.945,0.576 -4.07,1.728 -1.125,1.152 -1.687,2.553 -1.687,4.203 0,1.617 0.567,2.999 1.702,4.148 1.135,1.147 2.5,1.723 4.096,1.723 0.921,0 1.755,-0.197 2.501,-0.589 0.746,-0.392 1.401,-0.98 1.966,-1.764 v 2.064 z" style="fill:#241916;fill-opacity:1;fill-rule:nonzero;stroke:none" transform="matrix(1.3333333,0,0,-1.3333333,516.94787,677.9028)"/>
    <path id="path44" d="m 0,0 h 1.443 v -4.167 h 2.29 v -1.248 h -2.29 v -9.976 H 0 v 9.976 h -1.971 v 1.248 H 0 Z" style="fill:#241916;fill-opacity:1;fill-rule:nonzero;stroke:none" transform="matrix(1.3333333,0,0,-1.3333333,530.65493,670.87547)"/>
    <path id="path45" d="m 403.675,334.566 h 1.444 v -11.224 h -1.444 z m 0.717,4.621 c 0.329,0 0.609,-0.117 0.842,-0.35 0.233,-0.234 0.349,-0.516 0.349,-0.846 0,-0.323 -0.116,-0.602 -0.349,-0.836 -0.233,-0.233 -0.513,-0.35 -0.842,-0.35 -0.322,0 -0.599,0.117 -0.832,0.35 -0.233,0.234 -0.349,0.513 -0.349,0.836 0,0.33 0.116,0.612 0.349,0.846 0.233,0.233 0.51,0.35 0.832,0.35" style="fill:#241916;fill-opacity:1;fill-rule:nonzero;stroke:none" transform="matrix(1.3333333,0,0,-1.3333333,0,1122.52)"/>
    <path id="path46" d="m 0,0 c -1.201,0 -2.233,-0.443 -3.096,-1.33 -0.862,-0.888 -1.294,-1.96 -1.294,-3.219 0,-0.811 0.197,-1.568 0.59,-2.269 0.394,-0.702 0.925,-1.244 1.595,-1.625 0.669,-0.381 1.404,-0.573 2.205,-0.573 0.8,0 1.535,0.192 2.205,0.573 0.669,0.381 1.2,0.923 1.594,1.625 0.393,0.701 0.59,1.458 0.59,2.269 0,1.259 -0.433,2.331 -1.299,3.219 C 2.224,-0.443 1.193,0 0,0 m 0.005,1.414 c 1.729,0 3.162,-0.626 4.299,-1.878 1.033,-1.141 1.55,-2.493 1.55,-4.054 0,-1.568 -0.546,-2.938 -1.638,-4.111 -1.092,-1.172 -2.496,-1.759 -4.211,-1.759 -1.723,0 -3.13,0.587 -4.222,1.759 -1.092,1.173 -1.637,2.543 -1.637,4.111 0,1.554 0.516,2.902 1.549,4.043 1.137,1.259 2.574,1.889 4.31,1.889" style="fill:#241916;fill-opacity:1;fill-rule:nonzero;stroke:none" transform="matrix(1.3333333,0,0,-1.3333333,551.23827,677.93147)"/>
    <path id="path47" d="m 0,0 h 1.444 v -2.012 c 0.577,0.771 1.217,1.346 1.918,1.728 0.702,0.382 1.465,0.573 2.291,0.573 0.839,0 1.583,-0.214 2.233,-0.64 0.65,-0.426 1.13,-1.001 1.439,-1.722 0.31,-0.723 0.464,-1.847 0.464,-3.374 v -5.777 H 8.346 v 5.354 c 0,1.293 -0.054,2.156 -0.161,2.59 -0.167,0.742 -0.489,1.301 -0.963,1.676 -0.475,0.375 -1.094,0.562 -1.858,0.562 -0.873,0 -1.655,-0.289 -2.346,-0.866 C 2.326,-2.486 1.87,-3.201 1.65,-4.055 1.513,-4.611 1.444,-5.629 1.444,-7.107 v -4.117 H 0 Z" style="fill:#241916;fill-opacity:1;fill-rule:nonzero;stroke:none" transform="matrix(1.3333333,0,0,-1.3333333,562.60547,676.43147)"/>
    <path id="path48" d="M 0,0 V 1.486 H 8.314 V 0 H 4.931 V -13.688 H 3.384 V 0 Z" style="fill:#241916;fill-opacity:1;fill-rule:nonzero;stroke:none" transform="matrix(1.3333333,0,0,-1.3333333,257.0632,701.31293)"/>
    <path id="path49" d="M 0,0 C -0.193,0.771 -0.474,1.386 -0.842,1.847 -1.21,2.308 -1.698,2.679 -2.304,2.961 -2.91,3.243 -3.546,3.384 -4.214,3.384 -5.316,3.384 -6.263,3.029 -7.055,2.321 -7.633,1.806 -8.07,1.032 -8.366,0 Z m 0,-3.022 1.217,-0.64 C 0.818,-4.445 0.356,-5.078 -0.167,-5.56 -0.69,-6.041 -1.278,-6.407 -1.932,-6.658 c -0.654,-0.251 -1.394,-0.377 -2.22,-0.377 -1.831,0 -3.263,0.6 -4.295,1.801 -1.033,1.199 -1.549,2.555 -1.549,4.069 0,1.423 0.437,2.692 1.311,3.807 1.108,1.416 2.592,2.125 4.45,2.125 1.914,0 3.442,-0.726 4.585,-2.177 C 1.162,1.564 1.575,0.285 1.588,-1.248 H -8.511 c 0.028,-1.304 0.445,-2.372 1.25,-3.206 0.805,-0.833 1.801,-1.25 2.985,-1.25 0.571,0 1.127,0.1 1.668,0.298 0.54,0.198 1,0.463 1.379,0.791 0.378,0.329 0.788,0.86 1.229,1.593" style="fill:#241916;fill-opacity:1;fill-rule:nonzero;stroke:none" transform="matrix(1.3333333,0,0,-1.3333333,281.97267,710.56947)"/>
    <path id="path50" d="m 0,0 -1.145,-0.712 c -0.989,1.314 -2.339,1.97 -4.049,1.97 -1.367,0 -2.502,-0.44 -3.406,-1.319 -0.903,-0.879 -1.355,-1.948 -1.355,-3.205 0,-0.817 0.208,-1.587 0.624,-2.307 0.415,-0.722 0.986,-1.281 1.71,-1.68 0.725,-0.398 1.537,-0.598 2.437,-0.598 1.649,0 2.995,0.657 4.039,1.97 L 0,-6.634 c -0.536,-0.807 -1.257,-1.434 -2.161,-1.88 -0.904,-0.445 -1.934,-0.668 -3.089,-0.668 -1.775,0 -3.247,0.565 -4.416,1.693 -1.169,1.127 -1.753,2.499 -1.753,4.115 0,1.087 0.273,2.096 0.82,3.028 0.547,0.932 1.298,1.659 2.254,2.182 0.955,0.522 2.025,0.784 3.208,0.784 0.742,0 1.46,-0.114 2.151,-0.341 C -2.295,2.053 -1.709,1.757 -1.228,1.393 -0.746,1.027 -0.337,0.563 0,0" style="fill:#241916;fill-opacity:1;fill-rule:nonzero;stroke:none" transform="matrix(1.3333333,0,0,-1.3333333,302.2044,707.70747)"/>
    <path id="path51" d="m 0,0 h 1.444 v -6.344 c 0.584,0.771 1.227,1.346 1.929,1.728 0.702,0.382 1.461,0.573 2.28,0.573 0.839,0 1.583,-0.214 2.233,-0.64 0.65,-0.426 1.13,-0.999 1.439,-1.717 0.31,-0.719 0.465,-1.845 0.465,-3.379 v -5.777 H 8.345 v 5.354 c 0,1.293 -0.052,2.156 -0.155,2.59 -0.178,0.742 -0.503,1.3 -0.974,1.675 -0.471,0.375 -1.089,0.563 -1.852,0.563 -0.873,0 -1.656,-0.289 -2.347,-0.866 C 2.326,-6.818 1.871,-7.533 1.65,-8.387 1.513,-8.937 1.444,-9.954 1.444,-11.439 v -4.117 H 0 Z" style="fill:#241916;fill-opacity:1;fill-rule:nonzero;stroke:none" transform="matrix(1.3333333,0,0,-1.3333333,305.90493,698.82333)"/>
    <path id="path52" d="m 0,0 h 1.444 v -2.012 c 0.578,0.771 1.217,1.346 1.919,1.728 0.701,0.382 1.465,0.573 2.29,0.573 0.839,0 1.583,-0.214 2.233,-0.64 0.65,-0.426 1.13,-1.001 1.439,-1.722 0.31,-0.723 0.465,-1.847 0.465,-3.374 v -5.777 H 8.345 v 5.354 c 0,1.293 -0.053,2.156 -0.16,2.59 -0.168,0.742 -0.489,1.301 -0.963,1.676 -0.475,0.375 -1.094,0.562 -1.857,0.562 -0.874,0 -1.657,-0.289 -2.347,-0.866 C 2.326,-2.486 1.871,-3.201 1.65,-4.055 1.513,-4.611 1.444,-5.629 1.444,-7.107 v -4.117 H 0 Z" style="fill:#241916;fill-opacity:1;fill-rule:nonzero;stroke:none" transform="matrix(1.3333333,0,0,-1.3333333,323.08333,704.59947)"/>
    <path id="path53" d="m 0,0 c -1.201,0 -2.232,-0.443 -3.095,-1.33 -0.863,-0.888 -1.294,-1.96 -1.294,-3.219 0,-0.811 0.197,-1.568 0.59,-2.269 0.393,-0.702 0.924,-1.244 1.594,-1.625 0.669,-0.381 1.405,-0.573 2.205,-0.573 0.801,0 1.536,0.192 2.205,0.573 0.67,0.381 1.201,0.923 1.594,1.625 0.394,0.701 0.591,1.458 0.591,2.269 0,1.259 -0.433,2.331 -1.3,3.219 C 2.224,-0.443 1.194,0 0,0 m 0.005,1.414 c 1.729,0 3.162,-0.626 4.299,-1.878 1.033,-1.141 1.55,-2.493 1.55,-4.054 0,-1.568 -0.546,-2.938 -1.638,-4.111 -1.091,-1.172 -2.495,-1.759 -4.211,-1.759 -1.722,0 -3.129,0.587 -4.221,1.759 -1.092,1.173 -1.638,2.543 -1.638,4.111 0,1.554 0.517,2.902 1.55,4.043 1.137,1.259 2.573,1.889 4.309,1.889" style="fill:#241916;fill-opacity:1;fill-rule:nonzero;stroke:none" transform="matrix(1.3333333,0,0,-1.3333333,347.33853,706.09947)"/>
    <path id="path54" d="m 268.813,317.772 h 1.444 v -15.556 h -1.444 z" style="fill:#241916;fill-opacity:1;fill-rule:nonzero;stroke:none" transform="matrix(1.3333333,0,0,-1.3333333,0,1122.52)"/>
    <path id="path55" d="m 0,0 c -1.201,0 -2.232,-0.443 -3.095,-1.33 -0.863,-0.888 -1.294,-1.96 -1.294,-3.219 0,-0.811 0.197,-1.568 0.59,-2.269 0.393,-0.702 0.924,-1.244 1.594,-1.625 0.669,-0.381 1.405,-0.573 2.205,-0.573 0.801,0 1.536,0.192 2.205,0.573 0.67,0.381 1.201,0.923 1.594,1.625 0.394,0.701 0.591,1.458 0.591,2.269 0,1.259 -0.433,2.331 -1.3,3.219 C 2.224,-0.443 1.194,0 0,0 m 0.005,1.414 c 1.729,0 3.162,-0.626 4.299,-1.878 1.033,-1.141 1.55,-2.493 1.55,-4.054 0,-1.568 -0.546,-2.938 -1.638,-4.111 -1.091,-1.172 -2.495,-1.759 -4.211,-1.759 -1.722,0 -3.129,0.587 -4.221,1.759 -1.092,1.173 -1.638,2.543 -1.638,4.111 0,1.554 0.517,2.902 1.55,4.043 1.137,1.259 2.573,1.889 4.309,1.889" style="fill:#241916;fill-opacity:1;fill-rule:nonzero;stroke:none" transform="matrix(1.3333333,0,0,-1.3333333,371.42253,706.09947)"/>
    <path id="path56" d="m 0,0 c -0.818,0 -1.578,-0.198 -2.28,-0.594 -0.701,-0.395 -1.251,-0.942 -1.65,-1.639 -0.399,-0.699 -0.598,-1.454 -0.598,-2.265 0,-1.231 0.412,-2.249 1.237,-3.054 0.826,-0.804 1.895,-1.207 3.208,-1.207 1.328,0 2.396,0.4 3.204,1.197 0.808,0.798 1.212,1.846 1.212,3.146 0,0.847 -0.186,1.601 -0.558,2.265 C 3.404,-1.487 2.878,-0.963 2.197,-0.578 1.517,-0.193 0.784,0 0,0 m 4.26,1.104 h 1.445 v -8.945 c 0,-1.574 -0.138,-2.726 -0.413,-3.455 -0.378,-1.032 -1.035,-1.826 -1.97,-2.383 -0.936,-0.557 -2.06,-0.836 -3.374,-0.836 -0.963,0 -1.827,0.137 -2.594,0.409 -0.767,0.273 -1.391,0.638 -1.872,1.096 -0.482,0.459 -0.925,1.13 -1.331,2.013 h 1.568 c 0.427,-0.742 0.978,-1.293 1.653,-1.65 0.674,-0.358 1.511,-0.537 2.509,-0.537 0.985,0 1.816,0.184 2.494,0.55 0.679,0.367 1.163,0.828 1.452,1.383 0.289,0.555 0.433,1.451 0.433,2.688 v 0.579 C 3.717,-8.673 3.052,-9.2 2.268,-9.568 1.482,-9.937 0.649,-10.12 -0.231,-10.12 c -1.033,0 -2.004,0.256 -2.913,0.768 -0.908,0.512 -1.61,1.203 -2.106,2.069 -0.496,0.866 -0.743,1.818 -0.743,2.857 0,1.038 0.258,2.006 0.774,2.904 0.516,0.897 1.231,1.608 2.143,2.13 0.912,0.523 1.874,0.785 2.886,0.785 0.839,0 1.623,-0.174 2.349,-0.522 0.726,-0.348 1.427,-0.92 2.101,-1.718 z" style="fill:#241916;fill-opacity:1;fill-rule:nonzero;stroke:none" transform="matrix(1.3333333,0,0,-1.3333333,390.01107,706.0708)"/>
    <path id="path57" d="M 0,0 H 1.526 L 5.384,-8.643 9.129,0 h 1.537 L 3.972,-15.329 H 2.446 l 2.16,4.955 z" style="fill:#241916;fill-opacity:1;fill-rule:nonzero;stroke:none" transform="matrix(1.3333333,0,0,-1.3333333,400.13413,704.59947)"/>
    <path id="path58" d="m 0,0 1.29,0.774 c 0.907,-1.671 1.956,-2.506 3.146,-2.506 0.508,0 0.987,0.118 1.434,0.355 0.446,0.237 0.787,0.556 1.021,0.954 0.234,0.4 0.351,0.822 0.351,1.27 0,0.508 -0.173,1.007 -0.516,1.495 C 6.252,3.016 5.385,3.827 4.126,4.776 2.861,5.732 2.073,6.424 1.765,6.85 1.228,7.565 0.96,8.339 0.96,9.171 c 0,0.66 0.158,1.262 0.474,1.806 0.316,0.543 0.761,0.97 1.336,1.284 0.574,0.312 1.198,0.468 1.873,0.468 0.714,0 1.383,-0.176 2.005,-0.531 0.623,-0.353 1.282,-1.006 1.976,-1.954 L 7.386,9.305 C 6.815,10.062 6.329,10.56 5.927,10.801 5.524,11.041 5.086,11.162 4.611,11.162 3.999,11.162 3.499,10.977 3.11,10.604 2.722,10.233 2.527,9.776 2.527,9.232 2.527,8.902 2.597,8.583 2.733,8.273 2.871,7.964 3.122,7.627 3.487,7.263 3.687,7.07 4.34,6.564 5.447,5.746 6.761,4.776 7.661,3.913 8.149,3.157 8.638,2.4 8.882,1.641 8.882,0.877 8.882,-0.224 8.464,-1.18 7.629,-1.99 6.793,-2.802 5.777,-3.208 4.58,-3.208 3.659,-3.208 2.823,-2.962 2.073,-2.471 1.324,-1.979 0.633,-1.155 0,0" style="fill:#241916;fill-opacity:1;fill-rule:nonzero;stroke:none" transform="matrix(1.3333333,0,0,-1.3333333,422.86973,715.796)"/>
    <path id="path59" d="m 0,0 c -0.193,0.771 -0.474,1.386 -0.842,1.847 -0.369,0.461 -0.855,0.832 -1.462,1.114 -0.605,0.282 -1.242,0.423 -1.91,0.423 -1.102,0 -2.049,-0.355 -2.841,-1.063 C -7.633,1.806 -8.07,1.032 -8.366,0 Z m 0,-3.022 1.217,-0.64 c -0.4,-0.783 -0.861,-1.416 -1.384,-1.898 -0.522,-0.481 -1.111,-0.847 -1.766,-1.098 -0.653,-0.251 -1.393,-0.377 -2.219,-0.377 -1.831,0 -3.263,0.6 -4.295,1.801 -1.032,1.199 -1.549,2.555 -1.549,4.069 0,1.423 0.436,2.692 1.311,3.807 1.108,1.416 2.591,2.125 4.451,2.125 1.913,0 3.441,-0.726 4.584,-2.177 0.811,-1.026 1.224,-2.305 1.239,-3.838 h -10.1 c 0.028,-1.304 0.445,-2.372 1.25,-3.206 0.806,-0.833 1.801,-1.25 2.985,-1.25 0.571,0 1.128,0.1 1.668,0.298 0.541,0.198 1,0.463 1.379,0.791 0.378,0.329 0.789,0.86 1.229,1.593" style="fill:#241916;fill-opacity:1;fill-rule:nonzero;stroke:none" transform="matrix(1.3333333,0,0,-1.3333333,451.27347,710.56947)"/>
    <path id="path60" d="m 0,0 h 1.476 v -1.641 c 0.439,0.647 0.903,1.13 1.392,1.45 0.488,0.32 0.997,0.48 1.527,0.48 0.398,0 0.825,-0.128 1.279,-0.382 L 4.921,-1.311 C 4.618,-1.18 4.363,-1.114 4.157,-1.114 3.676,-1.114 3.212,-1.312 2.765,-1.707 2.317,-2.103 1.978,-2.717 1.743,-3.549 1.564,-4.188 1.476,-5.481 1.476,-7.428 v -3.796 H 0 Z" style="fill:#241916;fill-opacity:1;fill-rule:nonzero;stroke:none" transform="matrix(1.3333333,0,0,-1.3333333,456.25133,704.59947)"/>
    <path id="path61" d="M 0,0 H 1.537 L 5.304,-8.182 9.026,0 h 1.547 L 5.437,-11.224 H 5.168 Z" style="fill:#241916;fill-opacity:1;fill-rule:nonzero;stroke:none" transform="matrix(1.3333333,0,0,-1.3333333,464.0364,704.59947)"/>
    <path id="path62" d="m 360.581,313.44 h 1.444 v -11.224 h -1.444 z m 0.717,4.622 c 0.329,0 0.609,-0.118 0.843,-0.351 0.232,-0.234 0.348,-0.516 0.348,-0.846 0,-0.323 -0.116,-0.602 -0.348,-0.836 -0.234,-0.233 -0.514,-0.35 -0.843,-0.35 -0.321,0 -0.599,0.117 -0.832,0.35 -0.233,0.234 -0.349,0.513 -0.349,0.836 0,0.33 0.116,0.612 0.349,0.846 0.233,0.233 0.511,0.351 0.832,0.351" style="fill:#241916;fill-opacity:1;fill-rule:nonzero;stroke:none" transform="matrix(1.3333333,0,0,-1.3333333,0,1122.52)"/>
    <path id="path63" d="m 0,0 -1.146,-0.712 c -0.989,1.314 -2.338,1.97 -4.048,1.97 -1.368,0 -2.503,-0.44 -3.406,-1.319 -0.903,-0.879 -1.355,-1.948 -1.355,-3.205 0,-0.817 0.208,-1.587 0.623,-2.307 0.416,-0.722 0.986,-1.281 1.711,-1.68 0.725,-0.398 1.537,-0.598 2.436,-0.598 1.649,0 2.996,0.657 4.039,1.97 L 0,-6.634 c -0.537,-0.807 -1.257,-1.434 -2.161,-1.88 -0.904,-0.445 -1.935,-0.668 -3.09,-0.668 -1.774,0 -3.246,0.565 -4.415,1.693 -1.169,1.127 -1.754,2.499 -1.754,4.115 0,1.087 0.274,2.096 0.82,3.028 0.547,0.932 1.298,1.659 2.254,2.182 0.956,0.522 2.026,0.784 3.208,0.784 0.743,0 1.46,-0.114 2.152,-0.341 0.69,-0.226 1.277,-0.522 1.758,-0.886 C -0.747,1.027 -0.337,0.563 0,0" style="fill:#241916;fill-opacity:1;fill-rule:nonzero;stroke:none" transform="matrix(1.3333333,0,0,-1.3333333,501.22787,707.70747)"/>
    <path id="path64" d="m 0,0 c -0.193,0.771 -0.474,1.386 -0.842,1.847 -0.369,0.461 -0.855,0.832 -1.462,1.114 -0.605,0.282 -1.242,0.423 -1.91,0.423 -1.102,0 -2.049,-0.355 -2.841,-1.063 C -7.633,1.806 -8.07,1.032 -8.366,0 Z m 0,-3.022 1.217,-0.64 c -0.4,-0.783 -0.861,-1.416 -1.384,-1.898 -0.522,-0.481 -1.111,-0.847 -1.766,-1.098 -0.653,-0.251 -1.393,-0.377 -2.219,-0.377 -1.831,0 -3.263,0.6 -4.295,1.801 -1.032,1.199 -1.549,2.555 -1.549,4.069 0,1.423 0.436,2.692 1.311,3.807 1.108,1.416 2.591,2.125 4.451,2.125 1.913,0 3.441,-0.726 4.584,-2.177 0.811,-1.026 1.224,-2.305 1.239,-3.838 h -10.1 c 0.028,-1.304 0.445,-2.372 1.25,-3.206 0.806,-0.833 1.801,-1.25 2.985,-1.25 0.571,0 1.128,0.1 1.668,0.298 0.541,0.198 1,0.463 1.379,0.791 0.378,0.329 0.789,0.86 1.229,1.593" style="fill:#241916;fill-opacity:1;fill-rule:nonzero;stroke:none" transform="matrix(1.3333333,0,0,-1.3333333,517.52733,710.56947)"/>
    <path id="path65" d="M 0,0 -0.929,-0.96 C -1.701,-0.21 -2.456,0.165 -3.193,0.165 -3.662,0.165 -4.064,0.01 -4.398,-0.3 -4.732,-0.608 -4.9,-0.97 -4.9,-1.383 c 0,-0.364 0.138,-0.712 0.414,-1.042 0.275,-0.337 0.854,-0.732 1.736,-1.185 1.075,-0.558 1.806,-1.094 2.191,-1.61 0.379,-0.522 0.57,-1.111 0.57,-1.764 0,-0.921 -0.324,-1.702 -0.972,-2.341 -0.647,-0.64 -1.457,-0.96 -2.428,-0.96 -0.647,0 -1.265,0.141 -1.854,0.423 -0.589,0.282 -1.076,0.671 -1.462,1.166 l 0.907,1.031 c 0.738,-0.832 1.521,-1.248 2.348,-1.248 0.579,0 1.071,0.185 1.478,0.558 0.407,0.371 0.611,0.807 0.611,1.309 0,0.413 -0.135,0.78 -0.404,1.104 -0.268,0.316 -0.876,0.715 -1.819,1.197 -1.014,0.522 -1.703,1.038 -2.068,1.547 -0.366,0.509 -0.548,1.09 -0.548,1.743 0,0.852 0.291,1.561 0.874,2.125 0.582,0.564 1.316,0.847 2.206,0.847 C -2.087,1.517 -1.047,1.011 0,0" style="fill:#241916;fill-opacity:1;fill-rule:nonzero;stroke:none" transform="matrix(1.3333333,0,0,-1.3333333,530.75787,706.23613)"/>
    <path id="path66" d="m 0,0 h -26.655 c -3.676,0 -6.66,-3.02 -6.66,-6.75 v -26.969 c 0,-3.721 2.984,-6.743 6.66,-6.743 H 0 c 3.683,0 6.669,3.022 6.669,6.743 V -6.75 C 6.669,-3.02 3.683,0 0,0" style="fill:#00b9ef;fill-opacity:1;fill-rule:nonzero;stroke:none" transform="matrix(1.3333333,0,0,-1.3333333,355.80733,526.59427)"/>
    <path id="path67" d="m 0,0 h -26.652 c -3.679,0 -6.661,-3.02 -6.661,-6.75 v -26.969 c 0,-3.721 2.982,-6.743 6.661,-6.743 H 0 c 3.685,0 6.673,3.022 6.673,6.743 V -6.75 C 6.673,-3.02 3.685,0 0,0" style="fill:#00b9ef;fill-opacity:1;fill-rule:nonzero;stroke:none" transform="matrix(1.3333333,0,0,-1.3333333,412.08333,526.59427)"/>
    <path id="path68" d="m 0,0 h -26.655 c -3.683,0 -6.666,-3.02 -6.666,-6.75 v -26.969 c 0,-3.721 2.983,-6.743 6.666,-6.743 H 0 c 3.678,0 6.658,3.022 6.658,6.743 V -6.75 C 6.658,-3.02 3.678,0 0,0" style="fill:#00b9ef;fill-opacity:1;fill-rule:nonzero;stroke:none" transform="matrix(1.3333333,0,0,-1.3333333,468.36453,526.59427)"/>
    <path id="path69" d="m 0,0 h -26.655 c -3.676,0 -6.66,-3.012 -6.66,-6.741 v -26.974 c 0,-3.726 2.984,-6.741 6.66,-6.741 H 0 c 3.683,0 6.669,3.015 6.669,6.741 V -6.741 C 6.669,-3.012 3.683,0 0,0" style="fill:#00b9ef;fill-opacity:1;fill-rule:nonzero;stroke:none" transform="matrix(1.3333333,0,0,-1.3333333,355.80733,468.57853)"/>
    <path id="path70" d="m 0,0 h -26.652 c -3.679,0 -6.661,-3.012 -6.661,-6.741 v -26.974 c 0,-3.726 2.982,-6.741 6.661,-6.741 H 0 c 3.685,0 6.673,3.015 6.673,6.741 V -6.741 C 6.673,-3.012 3.685,0 0,0" style="fill:#00b9ef;fill-opacity:1;fill-rule:nonzero;stroke:none" transform="matrix(1.3333333,0,0,-1.3333333,412.08333,468.57853)"/>
    <path id="path71" d="m 0,0 h -26.655 c -3.683,0 -6.666,-3.012 -6.666,-6.741 v -26.974 c 0,-3.726 2.983,-6.741 6.666,-6.741 H 0 c 3.678,0 6.658,3.015 6.658,6.741 V -6.741 C 6.658,-3.012 3.678,0 0,0" style="fill:#00b9ef;fill-opacity:1;fill-rule:nonzero;stroke:none" transform="matrix(1.3333333,0,0,-1.3333333,468.36453,468.57853)"/>
    <path id="path72" d="m 0,0 h -26.655 c -3.676,0 -6.66,-3.023 -6.66,-6.741 v -26.977 c 0,-3.725 2.984,-6.742 6.66,-6.742 H 0 c 3.683,0 6.669,3.017 6.669,6.742 V -6.741 C 6.669,-3.023 3.683,0 0,0" style="fill:#00b9ef;fill-opacity:1;fill-rule:nonzero;stroke:none" transform="matrix(1.3333333,0,0,-1.3333333,355.80733,410.546)"/>
    <path id="path73" d="m 0,0 h -26.652 c -3.679,0 -6.661,-3.023 -6.661,-6.741 v -26.977 c 0,-3.725 2.982,-6.742 6.661,-6.742 H 0 c 3.685,0 6.673,3.017 6.673,6.742 V -6.741 C 6.673,-3.023 3.685,0 0,0" style="fill:#00b9ef;fill-opacity:1;fill-rule:nonzero;stroke:none" transform="matrix(1.3333333,0,0,-1.3333333,412.08333,410.546)"/>
    <path id="path74" d="m 0,0 h -26.655 c -3.683,0 -6.666,-3.023 -6.666,-6.741 v -26.977 c 0,-3.725 2.983,-6.742 6.666,-6.742 H 0 c 3.678,0 6.658,3.017 6.658,6.742 V -6.741 C 6.658,-3.023 3.678,0 0,0" style="fill:#00b9ef;fill-opacity:1;fill-rule:nonzero;stroke:none" transform="matrix(1.3333333,0,0,-1.3333333,468.36453,410.546)"/>
    <path id="path75" d="m 0,0 v 91.896 l 5.33,2.293 5.327,-2.293 V 0 Z" style="fill:#241916;fill-opacity:1;fill-rule:nonzero;stroke:none" transform="matrix(1.3333333,0,0,-1.3333333,387.76173,566.93013)"/>
    <path id="path76" d="m 0,0 c -14.681,-7.395 -30.817,-8.779 -32.73,-8.916 -1.202,-0.094 -10.473,-0.778 -13.106,3.256 -2.435,3.736 -1.131,6.935 -1.131,6.935 2.336,-2.407 6.019,-2.546 6.019,-2.546 6.45,-1.132 13.084,0.445 16.501,1.204 3.302,0.729 12.183,3.611 12.183,3.611 l 9.821,4.094 c 0,0 8.727,3.669 14.618,5.676 5.57,1.902 17.289,5.032 24.937,2.763 7.65,-2.264 7.908,-8.41 8.142,-10.483 0,0 -4.122,3.181 -10.837,3.402 C 15.58,7.932 0,0 0,0" style="fill:#241916;fill-opacity:1;fill-rule:nonzero;stroke:none" transform="matrix(1.3333333,0,0,-1.3333333,395.51947,446.20227)"/>
    <path id="path77" d="m 0,0 c -4.023,0 -7.3,-3.351 -7.3,-7.475 0,-4.121 3.277,-7.476 7.3,-7.476 4.031,0 7.301,3.355 7.301,7.476 C 7.301,-3.351 4.031,0 0,0" style="fill:#241916;fill-opacity:1;fill-rule:nonzero;stroke:none" transform="matrix(1.3333333,0,0,-1.3333333,347.99093,467.2544)"/>
    <path id="path78" d="m 0,0 h -5.489 c -7.6,0 -13.752,-4.142 -13.752,-11.735 v -15.39 c 0,-2.279 1.839,-4.124 4.107,-4.124 2.272,0 4.105,-1.85 4.105,-4.125 v -17.088 c 0,-2.282 1.848,-4.127 4.128,-4.127 h 8.309 c 2.28,0 4.127,1.845 4.127,4.127 v 17.088 c 0,2.275 1.841,4.125 4.108,4.125 2.268,0 4.11,1.845 4.11,4.124 v 15.39 C 13.753,-4.142 7.594,0 0,0" style="fill:#241916;fill-opacity:1;fill-rule:nonzero;stroke:none" transform="matrix(1.3333333,0,0,-1.3333333,351.64973,491.9224)"/>
    <path id="path79" d="m 0,0 c -1.261,1.374 -2.699,2.541 -4.321,3.511 -1.616,0.967 -3.249,1.865 -4.894,2.699 -1.64,0.831 -3.249,1.623 -4.824,2.362 -1.574,0.743 -2.957,1.554 -4.148,2.433 -1.196,0.873 -2.152,1.854 -2.869,2.933 -0.721,1.08 -1.036,2.384 -0.947,3.915 0.047,1.168 0.315,2.26 0.812,3.273 0.494,1.012 1.133,1.89 1.923,2.635 0.786,0.74 1.688,1.326 2.698,1.751 1.012,0.428 2.082,0.641 3.202,0.641 1.624,0 3.007,-0.248 4.153,-0.738 1.149,-0.497 2.128,-1.206 2.939,-2.131 0.808,-0.922 1.471,-2.02 1.99,-3.305 0.387,-0.959 0.712,-2.011 1.013,-3.107 L -7.683,15.684 2.806,9.741 8.047,19.909 3.539,18.698 c -0.588,1.667 -1.261,3.274 -2.088,4.79 -0.968,1.778 -2.151,3.34 -3.544,4.69 -1.394,1.352 -3.002,2.431 -4.825,3.24 -1.824,0.81 -3.86,1.217 -6.105,1.217 -2.25,0 -4.376,-0.369 -6.38,-1.114 -2.004,-0.743 -3.769,-1.799 -5.302,-3.172 -1.528,-1.374 -2.719,-3.028 -3.576,-4.96 -0.852,-1.937 -1.262,-4.076 -1.217,-6.415 0.047,-3.194 0.757,-5.813 2.131,-7.862 1.375,-2.049 3.049,-3.756 5.024,-5.129 1.979,-1.375 4.114,-2.545 6.382,-3.508 2.27,-0.968 4.374,-1.981 6.305,-3.036 1.938,-1.06 3.525,-2.296 4.762,-3.714 1.236,-1.417 1.81,-3.273 1.721,-5.569 -0.089,-1.35 -0.382,-2.576 -0.877,-3.677 -0.494,-1.105 -1.169,-2.058 -2.024,-2.867 -0.854,-0.81 -1.848,-1.443 -2.97,-1.896 -1.128,-0.445 -2.318,-0.67 -3.579,-0.67 -1.575,0 -3.025,0.291 -4.353,0.877 -1.326,0.582 -2.516,1.384 -3.574,2.393 -1.059,1.017 -1.938,2.197 -2.637,3.544 -0.623,1.215 -1.073,2.506 -1.387,3.863 l 3.975,1.23 -10.709,5.546 -4.856,-10.361 4.54,1.404 c 0.542,-2.011 1.254,-3.893 2.231,-5.561 1.147,-1.958 2.532,-3.636 4.151,-5.027 1.62,-1.398 3.485,-2.475 5.601,-3.242 2.115,-0.762 4.43,-1.146 6.953,-1.146 2.383,0 4.61,0.371 6.681,1.114 2.068,0.743 3.882,1.82 5.433,3.239 1.554,1.418 2.765,3.115 3.642,5.096 0.881,1.977 1.294,4.228 1.252,6.748 C 4.273,-8.761 3.855,-6.614 3.068,-4.789 2.283,-2.968 1.262,-1.371 0,0" style="fill:#241916;fill-opacity:1;fill-rule:nonzero;stroke:none" transform="matrix(1.3333333,0,0,-1.3333333,457.72653,530.352)"/>
    <path id="path80" d="m 0,0 c -8.55,1.183 -13.552,2.01 -18.701,-1.605 -2.726,-1.916 -3.685,-5.476 -3.685,-5.476 -3.117,6.894 -1.51,12.279 5.007,14.825 6.521,2.551 21.44,-1.206 23.135,-1.697 10.656,-3.107 28.832,-11.071 28.832,-11.071 0,0 29.109,-11.05 35.203,1.766 0,0 7.508,-10.052 -7.298,-13.661 0,0 -8.939,-1.853 -20.538,2.191 C 29.771,-10.481 10.467,-1.449 0,0" style="fill:#ffffff;fill-opacity:1;fill-rule:nonzero;stroke:none" transform="matrix(1.3333333,0,0,-1.3333333,361.57813,435.53173)"/>
  </g>
</svg>
</svg>